<svg width="367" height="205" viewBox="0 0 367 205" fill="none" xmlns="http://www.w3.org/2000/svg">
<path d="M288.002 0.5L194.356 106.858L194.124 107.123L194.295 107.432L236.688 184.022H195.462L171.053 136.42L170.708 135.748L170.224 136.327L113.247 204.5H70.2305L155.445 105.037L155.673 104.772L155.502 104.468L137.395 72.2109L137.251 71.9551H74.0723L74.0029 72.374L56.7393 177.519H21.7793L39.0156 72.5361L39.1104 71.9551H0.586914L5.87109 39.1104H159.631L178.541 76.5195L178.877 77.1836L179.365 76.6211L245.406 0.5H288.002ZM366.32 38.6943L359.051 65.9502L316.983 95.9668L316.132 96.5742L317.14 96.8555C321.446 98.0544 328.338 100.683 334.161 105.932C339.788 111.004 344.431 118.533 344.773 129.646L344.793 130.732C344.857 142.89 342.013 152.273 336.962 159.385C331.91 166.497 324.621 171.381 315.721 174.485C297.952 180.683 273.839 179.758 248.62 175.354L229.547 140.199C245.857 145.075 264.719 148.385 279.831 147.939C287.563 147.712 294.361 146.5 299.338 143.975C304.182 141.517 307.327 137.795 307.872 132.544L307.916 132.031C308.074 129.81 307.69 127.836 306.771 126.131C305.854 124.426 304.42 123.02 302.526 121.905C298.753 119.685 293.119 118.601 285.914 118.601H273.179L272.414 99.1865L310.874 70.3213L312.073 69.4219H250.018L251.994 67.0752L276.984 38.6943H366.32Z" stroke="url(#paint0_linear_5037_51)"/>
<defs>
<linearGradient id="paint0_linear_5037_51" x1="117.5" y1="16.5" x2="118.605" y2="117.004" gradientUnits="userSpaceOnUse">
<stop stop-color="#65FD51"/>
<stop offset="1" stop-color="#45D1FF" stop-opacity="0"/>
</linearGradient>
</defs>
</svg>
