<svg width="682" height="106" viewBox="0 0 682 106" fill="none" xmlns="http://www.w3.org/2000/svg">
<path d="M153.563 0.527725H130.284L95.2094 39.7209L85.1155 20.3623H3.24891L0.363525 37.7491H20.7764L11.5921 91.9785H30.6551L39.8395 37.7491H72.9382L82.5333 54.32L37.003 105.839H60.4968L90.7689 70.7258L103.778 95.3198H126.235L103.553 55.5924L153.563 0.527725Z" fill="url(#paint0_linear_10628_9)"/>
<path d="M271.492 37.749L274.377 20.3622H225.022L212.972 91.9784H232.026L236.476 65.5776H260.156L263.139 48.1908H239.4L241.161 37.749H271.492Z" fill="url(#paint1_linear_10628_9)"/>
<path d="M324.856 20.3622L317.54 64.2566C317.198 66.5101 316.337 68.4916 314.968 70.1914C313.588 71.901 311.838 73.222 309.715 74.1836C307.583 75.1355 305.187 75.6115 302.507 75.6115C300.306 75.6115 298.487 75.1841 297.049 74.3293C295.611 73.4745 294.613 72.2021 294.066 70.4925C293.518 68.7927 293.449 66.7044 293.86 64.2469L301.176 20.3525H282.113L274.797 64.2469C273.839 70.1817 274.269 75.3104 276.088 79.6425C277.907 83.9746 280.998 87.316 285.361 89.6666C289.723 92.0172 295.2 93.1925 301.793 93.1925C308.385 93.1925 313.794 92.0658 318.635 89.8123C323.477 87.5588 327.428 84.2757 330.48 79.9436C333.532 75.6115 335.576 70.376 336.613 64.2372L343.929 20.3428H324.866L324.856 20.3622Z" fill="url(#paint2_linear_10628_9)"/>
<path d="M396.766 60.1188L375.434 20.3622H355.246L343.186 91.9784H362.249L369.252 50.658L391.406 91.9784H410.469L422.519 20.3622H403.456L396.766 60.1188Z" fill="url(#paint3_linear_10628_9)"/>
<path d="M478.662 25.112C473.175 22.0232 466.612 20.4496 458.983 20.3719V20.3525H434.873L422.822 91.9687H446.933C452.909 91.9687 458.523 91.1139 463.775 89.4141C469.028 87.7143 473.703 85.3248 477.791 82.2554C481.88 79.186 485.264 75.5338 487.944 71.3085C490.624 67.0832 492.375 62.4111 493.196 57.2922C494.429 50.0655 493.725 43.6838 491.084 38.157C488.443 32.6301 484.296 28.2883 478.672 25.112H478.662ZM474.026 55.0387C473.546 57.8361 472.568 60.3907 471.091 62.7122C469.615 65.0337 467.756 67.0443 465.526 68.7442C463.296 70.4537 460.782 71.765 458.005 72.6878C455.227 73.6105 452.322 74.0671 449.3 74.0671H444.898L450.923 38.2541H455.999C460.186 38.2541 463.726 38.9729 466.612 40.4007C469.497 41.8286 471.59 43.7907 472.901 46.287C474.202 48.7736 474.583 51.6973 474.036 55.0387H474.026Z" fill="url(#paint4_linear_10628_9)"/>
<path d="M496.072 91.9784H515.135L527.195 20.3622H508.132L496.072 91.9784Z" fill="url(#paint5_linear_10628_9)"/>
<path d="M581.079 60.1188L559.747 20.3622H539.549L527.499 91.9784H546.562L553.555 50.658L575.709 91.9784H594.772L606.832 20.3622H587.769L581.079 60.1188Z" fill="url(#paint6_linear_10628_9)"/>
<path d="M646.904 51.8722L644.43 66.1993H660.06C659.581 67.7728 658.964 69.1618 658.182 70.3469C656.979 72.1535 655.385 73.5231 653.389 74.4362C651.394 75.3589 648.919 75.8155 645.975 75.8155C643.031 75.8155 640.41 75.2229 638.15 74.0282C635.881 72.8335 634.033 71.2502 632.585 69.2687C631.147 67.2872 630.15 65.16 629.602 62.8773C629.054 60.5947 628.947 58.3606 629.289 56.1752C630.042 51.5419 631.431 47.7829 633.465 44.9174C635.49 42.052 637.916 39.9442 640.733 38.5746C643.55 37.2148 646.464 36.5251 649.487 36.5251C651.071 36.5251 652.744 36.8165 654.534 37.3896C656.323 37.9724 657.967 38.7883 659.483 39.8471C660.989 40.9058 662.124 42.188 662.886 43.6838L680.502 35.3984C679.064 32.329 677.118 29.5704 674.682 27.113C672.247 24.6555 669.205 22.7128 665.566 21.285C661.928 19.8571 657.566 19.1383 652.48 19.1383C646.23 19.1383 640.645 19.9931 635.735 21.6929C630.825 23.4025 626.619 25.8211 623.117 28.9585C619.616 32.0959 616.76 35.8646 614.569 40.2648C612.368 44.6649 610.793 49.5895 609.835 55.0484C609.013 59.6914 609.267 64.276 610.607 68.8122C611.947 73.3483 614.158 77.457 617.249 81.1383C620.339 84.8197 624.164 87.7531 628.731 89.9386C633.299 92.1241 638.434 93.212 644.136 93.212C651.619 93.212 657.732 92.1047 662.476 89.89C667.21 87.6754 670.936 84.2466 673.655 79.6036C676.365 74.9704 678.311 69.0356 679.475 61.7992L681.128 51.8722H646.904Z" fill="url(#paint7_linear_10628_9)"/>
<path d="M194.838 20.1485H147.019L133.697 34.8156L132.279 36.4475H164.937L144.446 51.3574L144.867 61.7118H151.87C159.47 61.7118 163.588 63.9361 163.265 68.3362C162.473 79.2443 138.989 77.321 121.461 72.1244L131.937 90.842C158.775 95.4072 183.472 92.8332 183.335 67.6854C183.267 55.4952 173.095 51.2797 168.488 50.0364L190.857 34.5631L194.828 20.1291L194.838 20.1485Z" fill="url(#paint8_linear_10628_9)"/>
<defs>
<linearGradient id="paint0_linear_10628_9" x1="-22.1327" y1="52.9796" x2="681.099" y2="84.4957" gradientUnits="userSpaceOnUse">
<stop stop-color="#45D1FF"/>
<stop offset="1" stop-color="#0052B4"/>
</linearGradient>
<linearGradient id="paint1_linear_10628_9" x1="-22.1327" y1="52.9796" x2="681.099" y2="84.4957" gradientUnits="userSpaceOnUse">
<stop stop-color="#45D1FF"/>
<stop offset="1" stop-color="#0052B4"/>
</linearGradient>
<linearGradient id="paint2_linear_10628_9" x1="-22.1327" y1="52.9796" x2="681.099" y2="84.4957" gradientUnits="userSpaceOnUse">
<stop stop-color="#45D1FF"/>
<stop offset="1" stop-color="#0052B4"/>
</linearGradient>
<linearGradient id="paint3_linear_10628_9" x1="-22.1327" y1="52.9796" x2="681.099" y2="84.4957" gradientUnits="userSpaceOnUse">
<stop stop-color="#45D1FF"/>
<stop offset="1" stop-color="#0052B4"/>
</linearGradient>
<linearGradient id="paint4_linear_10628_9" x1="-22.1327" y1="52.9796" x2="681.099" y2="84.4957" gradientUnits="userSpaceOnUse">
<stop stop-color="#45D1FF"/>
<stop offset="1" stop-color="#0052B4"/>
</linearGradient>
<linearGradient id="paint5_linear_10628_9" x1="-22.1327" y1="52.9796" x2="681.099" y2="84.4957" gradientUnits="userSpaceOnUse">
<stop stop-color="#45D1FF"/>
<stop offset="1" stop-color="#0052B4"/>
</linearGradient>
<linearGradient id="paint6_linear_10628_9" x1="-22.1327" y1="52.9796" x2="681.099" y2="84.4957" gradientUnits="userSpaceOnUse">
<stop stop-color="#45D1FF"/>
<stop offset="1" stop-color="#0052B4"/>
</linearGradient>
<linearGradient id="paint7_linear_10628_9" x1="-22.1327" y1="52.9796" x2="681.099" y2="84.4957" gradientUnits="userSpaceOnUse">
<stop stop-color="#45D1FF"/>
<stop offset="1" stop-color="#0052B4"/>
</linearGradient>
<linearGradient id="paint8_linear_10628_9" x1="-22.1327" y1="52.9796" x2="681.099" y2="84.4957" gradientUnits="userSpaceOnUse">
<stop stop-color="#45D1FF"/>
<stop offset="1" stop-color="#0052B4"/>
</linearGradient>
</defs>
</svg>
