<svg width="196" height="71" viewBox="0 0 196 71" fill="none" xmlns="http://www.w3.org/2000/svg">
<path d="M132.929 93.0261C146.347 95.3497 159.132 95.8201 168.538 92.5538C173.256 90.9152 177.105 88.3432 179.768 84.6096C182.432 80.8764 183.941 75.9384 183.907 69.5125C183.874 63.3591 181.365 59.2439 178.307 56.4995C175.234 53.7417 171.591 52.3568 169.31 51.7244L168.297 51.4437L169.154 50.835L191.552 34.9241L195.333 20.808H148.031L134.761 35.8118L134.754 35.82L134.028 36.6778H165.865H167.369L166.164 37.5783L145.723 52.853L146.118 62.8269H152.695C156.558 62.8269 159.617 63.4046 161.684 64.6159C162.726 65.2259 163.525 66.0025 164.039 66.9529C164.554 67.9043 164.765 68.9993 164.678 70.2187C164.678 70.2188 164.678 70.2189 164.678 70.219L164.179 70.1834C163.391 81.329 140.315 79.5316 122.729 74.309L132.929 93.0261ZM132.929 93.0261L123.067 74.9298L132.929 93.0261ZM11.9058 94.1537L21.0663 38.6064L21.1622 38.025H20.573H0.587284L3.33371 21.0292H85.11L95.1442 40.7922L95.4798 41.4533L95.967 40.8943L131.167 0.5H153.291L103.624 56.662L103.39 56.927L103.562 57.2362L126.009 97.6121H104.53L91.5591 72.4277L91.215 71.7594L90.7317 72.3351L60.372 108.5H38.0168L83.1934 56.0024L83.4223 55.7364L83.25 55.4307L73.5796 38.2794L73.4361 38.025H73.144H39.7856H39.3613L39.2923 38.4436L30.105 94.1537H11.9058Z" stroke="url(#paint0_linear_6070_285)"/>
<defs>
<linearGradient id="paint0_linear_6070_285" x1="98" y1="9.34716e-08" x2="97.9984" y2="69.7982" gradientUnits="userSpaceOnUse">
<stop stop-color="#41C8FA"/>
<stop offset="1" stop-color="#0B66C0" stop-opacity="0"/>
</linearGradient>
</defs>
</svg>
