<svg width="118" height="118" viewBox="0 0 118 118" fill="none" xmlns="http://www.w3.org/2000/svg">
<rect x="0.849902" y="0.649951" width="116.222" height="116.222" rx="17.55" fill="url(#paint0_linear_2495_951)" stroke="#717892" stroke-width="0.9"/>
<path d="M85.7828 45.5361C85.1273 43.0743 83.2059 41.1337 80.7693 40.4708C76.3179 39.2405 58.5122 39.2405 58.5122 39.2405C58.5122 39.2405 40.7071 39.2405 36.2557 40.4242C33.866 41.0864 31.8977 43.0747 31.2422 45.5361C30.0708 50.0324 30.0708 59.3573 30.0708 59.3573C30.0708 59.3573 30.0708 68.7291 31.2422 73.1785C31.8984 75.6399 33.8191 77.5805 36.256 78.2433C40.7539 79.4741 58.5128 79.4741 58.5128 79.4741C58.5128 79.4741 76.3179 79.4741 80.7693 78.2903C83.2062 77.6278 85.1273 75.6872 85.7835 73.2258C86.9545 68.7291 86.9545 59.4046 86.9545 59.4046C86.9545 59.4046 87.0014 50.0324 85.7828 45.5361V45.5361ZM52.8432 67.9719V50.7427L67.6496 59.3573L52.8432 67.9719Z" fill="url(#paint1_linear_2495_951)"/>
<defs>
<linearGradient id="paint0_linear_2495_951" x1="16.2313" y1="-44.1494" x2="104.31" y2="86.8245" gradientUnits="userSpaceOnUse">
<stop stop-color="#2F3547"/>
<stop offset="1" stop-opacity="0"/>
</linearGradient>
<linearGradient id="paint1_linear_2495_951" x1="37.5522" y1="43.8844" x2="66.9471" y2="103.449" gradientUnits="userSpaceOnUse">
<stop stop-color="#1769E5"/>
<stop offset="1" stop-color="#45D1FF"/>
</linearGradient>
</defs>
</svg>
