<svg width="118" height="118" viewBox="0 0 118 118" fill="none" xmlns="http://www.w3.org/2000/svg">
<g clip-path="url(#clip0_2519_3022)">
<rect width="117.122" height="117.122" rx="18" fill="#FE0000"/>
<path d="M85.7828 45.3361C85.1273 42.8744 83.2059 40.9338 80.7693 40.2709C76.3179 39.0405 58.5122 39.0405 58.5122 39.0405C58.5122 39.0405 40.7071 39.0405 36.2557 40.2242C33.866 40.8864 31.8977 42.8747 31.2422 45.3361C30.0708 49.8325 30.0708 59.1573 30.0708 59.1573C30.0708 59.1573 30.0708 68.5292 31.2422 72.9785C31.8984 75.4399 33.8191 77.3805 36.256 78.0434C40.7539 79.2741 58.5128 79.2741 58.5128 79.2741C58.5128 79.2741 76.3179 79.2741 80.7693 78.0904C83.2062 77.4279 85.1273 75.4873 85.7835 73.0259C86.9545 68.5292 86.9545 59.2047 86.9545 59.2047C86.9545 59.2047 87.0014 49.8325 85.7828 45.3361V45.3361ZM52.8432 67.7719V50.5427L67.6496 59.1573L52.8432 67.7719Z" fill="white"/>
</g>
<defs>
<clipPath id="clip0_2519_3022">
<rect width="118" height="118" fill="white"/>
</clipPath>
</defs>
</svg>
