<svg width="118" height="118" viewBox="0 0 118 118" fill="none" xmlns="http://www.w3.org/2000/svg">
<g clip-path="url(#clip0_2519_3018)">
<rect width="117.122" height="117.122" rx="18" fill="#5865F2"/>
<path d="M77.302 42.3161C73.9315 40.7391 70.3275 39.593 66.5597 38.9404C66.0969 39.777 65.5563 40.9023 65.1836 41.7974C61.1783 41.1951 57.2098 41.1951 53.2781 41.7974C52.9055 40.9023 52.3526 39.777 51.8857 38.9404C48.1138 39.593 44.5057 40.7433 41.1351 42.3245C34.3367 52.5978 32.4937 62.616 33.4152 72.4919C37.9243 75.8592 42.2942 77.9047 46.5903 79.2433C47.651 77.7834 48.597 76.2315 49.412 74.596C47.8598 74.0062 46.3732 73.2784 44.9685 72.4334C45.3412 72.1573 45.7057 71.8687 46.0579 71.5717C54.6255 75.579 63.9345 75.579 72.3998 71.5717C72.7561 71.8687 73.1206 72.1573 73.4892 72.4334C72.0803 73.2825 70.5896 74.0104 69.0375 74.6002C69.8524 76.2315 70.7944 77.7876 71.8592 79.2474C76.1594 77.9089 80.5334 75.8634 85.0424 72.4919C86.1237 61.0432 83.1954 51.1171 77.302 42.3161ZM50.5792 66.4183C48.0073 66.4183 45.8981 64.0173 45.8981 61.0934C45.8981 58.1695 47.9623 55.7643 50.5792 55.7643C53.1963 55.7643 55.3054 58.1653 55.2603 61.0934C55.2644 64.0173 53.1963 66.4183 50.5792 66.4183ZM67.8784 66.4183C65.3065 66.4183 63.1973 64.0173 63.1973 61.0934C63.1973 58.1695 65.2614 55.7643 67.8784 55.7643C70.4954 55.7643 72.6046 58.1653 72.5595 61.0934C72.5595 64.0173 70.4954 66.4183 67.8784 66.4183Z" fill="white"/>
</g>
<defs>
<clipPath id="clip0_2519_3018">
<rect width="118" height="118" fill="white"/>
</clipPath>
</defs>
</svg>
