<svg width="118" height="118" viewBox="0 0 118 118" fill="none" xmlns="http://www.w3.org/2000/svg">
<g clip-path="url(#clip0_2519_3028)">
<rect width="117.122" height="117.122" rx="18" fill="black"/>
<path d="M50.6832 51.7979V49.4123C49.855 49.2812 49.0184 49.2093 48.1799 49.1973C40.0623 49.18 32.8755 54.4396 30.4377 62.1811C28 69.9227 30.8775 78.35 37.5406 82.9853C35.0972 80.3708 33.4629 77.1051 32.835 73.5824C32.207 70.0597 32.6123 66.4305 34.0019 63.133C35.3914 59.8355 37.7058 57.0106 40.6658 54.9993C43.6257 52.988 47.1047 51.8762 50.6827 51.7981L50.6832 51.7979Z" fill="#25F4EE"/>
<path d="M51.1332 78.8203C55.6719 78.8141 59.4025 75.2392 59.6013 70.7057V30.2501H66.9933C66.8425 29.4047 66.7705 28.5471 66.7783 27.6885L56.6675 27.6885V68.1051C56.4993 72.6617 52.7597 76.2709 48.1994 76.2782C46.8366 76.2667 45.4961 75.9316 44.2882 75.3007C45.071 76.3851 46.0992 77.2692 47.2887 77.8808C48.4783 78.4925 49.7956 78.8144 51.1332 78.8203ZM80.8004 43.9762V41.7276C78.0799 41.7287 75.4197 40.926 73.1539 39.4205C75.1401 41.7292 77.8243 43.3284 80.8004 43.9762Z" fill="#25F4EE"/>
<path d="M73.1539 39.4202C70.9217 36.8789 69.6912 33.6121 69.6923 30.23H66.9933C67.3419 32.0999 68.068 33.8792 69.1271 35.4593C70.1863 37.0394 71.5564 38.3871 73.1539 39.4202ZM48.1799 59.3058C46.287 59.3154 44.4516 59.9575 42.9655 61.1299C41.4795 62.3023 40.428 63.9377 39.9784 65.7762C39.5288 67.6147 39.7068 69.5507 40.4841 71.2764C41.2615 73.0021 42.5935 74.4185 44.2684 75.3003C43.3526 74.0362 42.8042 72.5435 42.6838 70.9872C42.5633 69.4309 42.8755 67.8716 43.5859 66.4816C44.2962 65.0916 45.377 63.925 46.709 63.1106C48.0409 62.2963 49.572 61.8659 51.1332 61.8671C51.982 61.8782 52.8248 62.0103 53.6362 62.2594V51.9733C52.8076 51.8491 51.9711 51.7838 51.1332 51.7778H50.6832V59.599C49.8675 59.3802 49.0242 59.2815 48.1799 59.3058Z" fill="#FE2C55"/>
<path d="M80.8004 43.9761V51.7975C75.764 51.7877 70.8583 50.1938 66.7783 47.2415V67.792C66.7566 78.0465 58.4362 86.3482 48.1799 86.3482C44.3708 86.355 40.6534 85.1799 37.5406 82.985C40.0789 85.7147 43.3806 87.6169 47.0156 88.4438C50.6507 89.2706 54.4505 88.9839 57.9202 87.6208C61.3898 86.2577 64.3685 83.8816 66.4683 80.8018C68.568 77.722 69.6915 74.0814 69.6923 70.3542V49.8618C73.7861 52.7947 78.6977 54.3678 83.7339 54.3591V44.2882C82.7479 44.2853 81.7649 44.1807 80.8004 43.9761Z" fill="#FE2C55"/>
<path d="M66.7783 67.7919V47.2413C70.8707 50.1768 75.7833 51.7502 80.8199 51.7386V43.9174C77.8444 43.2892 75.1538 41.7107 73.1539 39.4202C71.5564 38.3871 70.1863 37.0394 69.1271 35.4593C68.068 33.8792 67.3419 32.0999 66.9933 30.23H59.6013V70.7059C59.5293 72.4678 58.9102 74.1634 57.83 75.5573C56.7498 76.9511 55.2621 77.9739 53.5737 78.4835C51.8854 78.9931 50.0802 78.9642 48.409 78.4009C46.7378 77.8375 45.2837 76.7676 44.2486 75.3399C42.5734 74.4582 41.2411 73.0418 40.4636 71.3159C39.6861 69.5901 39.508 67.6539 39.9576 65.8153C40.4073 63.9766 41.4588 62.341 42.9451 61.1686C44.4314 59.9961 46.267 59.3542 48.1602 59.3448C49.0092 59.3524 49.8526 59.4842 50.6634 59.736V51.9146C47.0662 51.9755 43.5644 53.0817 40.5851 55.0981C37.6057 57.1145 35.2775 59.954 33.8843 63.2705C32.4912 66.587 32.0932 70.2371 32.739 73.7758C33.3848 77.3145 35.0465 80.5889 37.5213 83.1998C40.6648 85.3224 44.3875 86.4219 48.1799 86.348C58.4362 86.348 66.7566 78.0463 66.7783 67.7919Z" fill="white"/>
</g>
<defs>
<clipPath id="clip0_2519_3028">
<rect width="118" height="118" fill="white"/>
</clipPath>
</defs>
</svg>
