<svg width="118" height="118" viewBox="0 0 118 118" fill="none" xmlns="http://www.w3.org/2000/svg">
<rect x="0.849902" y="0.549854" width="116.222" height="116.222" rx="17.55" fill="url(#paint0_linear_2495_969)" stroke="#717892" stroke-width="0.9"/>
<path d="M77.3018 42.5161C73.9312 40.9391 70.3273 39.793 66.5594 39.1404C66.0967 39.977 65.5561 41.1022 65.1834 41.9974C61.178 41.395 57.2096 41.395 53.2779 41.9974C52.9052 41.1022 52.3523 39.977 51.8855 39.1404C48.1136 39.793 44.5055 40.9433 41.1349 42.5244C34.3364 52.7978 32.4935 62.816 33.415 72.6919C37.9241 76.0592 42.2939 78.1047 46.59 79.4432C47.6507 77.9834 48.5968 76.4315 49.4118 74.796C47.8596 74.2062 46.373 73.4783 44.9683 72.6334C45.3409 72.3573 45.7054 72.0686 46.0576 71.7716C54.6253 75.779 63.9343 75.779 72.3996 71.7716C72.7559 72.0686 73.1203 72.3573 73.4889 72.6334C72.0801 73.4825 70.5894 74.2103 69.0372 74.8002C69.8522 76.4315 70.7942 77.9876 71.859 79.4474C76.1592 78.1088 80.5331 76.0634 85.0422 72.6919C86.1234 61.2432 83.1952 51.317 77.3018 42.5161ZM50.579 66.6183C48.0071 66.6183 45.8979 64.2172 45.8979 61.2934C45.8979 58.3695 47.962 55.9643 50.579 55.9643C53.196 55.9643 55.3051 58.3653 55.2601 61.2934C55.2642 64.2172 53.196 66.6183 50.579 66.6183ZM67.8782 66.6183C65.3063 66.6183 63.1971 64.2172 63.1971 61.2934C63.1971 58.3695 65.2612 55.9643 67.8782 55.9643C70.4952 55.9643 72.6043 58.3653 72.5593 61.2934C72.5593 64.2172 70.4952 66.6183 67.8782 66.6183Z" fill="url(#paint1_linear_2495_969)"/>
<defs>
<linearGradient id="paint0_linear_2495_969" x1="16.2313" y1="-44.2495" x2="104.31" y2="86.7244" gradientUnits="userSpaceOnUse">
<stop stop-color="#2F3547"/>
<stop offset="1" stop-opacity="0"/>
</linearGradient>
<linearGradient id="paint1_linear_2495_969" x1="40.0421" y1="43.7928" x2="71.07" y2="101.24" gradientUnits="userSpaceOnUse">
<stop stop-color="#1769E5"/>
<stop offset="1" stop-color="#45D1FF"/>
</linearGradient>
</defs>
</svg>
