<svg width="118" height="118" viewBox="0 0 118 118" fill="none" xmlns="http://www.w3.org/2000/svg">
<rect x="0.849902" y="0.649951" width="116.222" height="116.222" rx="17.55" fill="url(#paint0_linear_2495_954)" stroke="#717892" stroke-width="0.9"/>
<path d="M59.8433 88.61C59.6499 88.61 59.4564 88.61 59.2617 88.609C54.6845 88.6203 50.4552 88.5033 46.3421 88.2514C42.5713 88.0206 39.1291 86.7098 36.3874 84.4609C33.7418 82.2911 31.9353 79.3571 31.018 75.7415C30.2196 72.5938 30.1773 69.5037 30.1367 66.515C30.1073 64.3708 30.0771 61.8297 30.0708 59.2457C30.0771 56.651 30.1073 54.1099 30.1367 51.9656C30.1773 48.9773 30.2196 45.8874 31.018 42.7392C31.9353 39.1235 33.742 36.1895 36.3874 34.0196C39.1291 31.7707 42.5713 30.46 46.3426 30.2292C50.4556 29.9778 54.6858 29.8603 59.2729 29.8716C63.8516 29.8617 68.0796 29.9778 72.1925 30.2292C75.9635 30.46 79.4056 31.7709 82.1474 34.0197C84.7933 36.1895 86.5994 39.1235 87.5168 42.7392C88.3151 45.8869 88.3573 48.9773 88.3979 51.9656C88.4274 54.1099 88.4582 56.651 88.4639 59.2349V59.2457C88.4582 61.8297 88.4274 64.3707 88.3979 66.515C88.3574 69.5033 88.3156 72.5932 87.5168 75.7415C86.5994 79.3571 84.7932 82.2911 82.1474 84.461C79.4055 86.7099 75.9634 88.0206 72.1925 88.2514C68.2537 88.4926 64.2076 88.61 59.8433 88.61ZM59.2617 84.02C63.7646 84.0308 67.899 83.9166 71.9155 83.6709C74.7668 83.4965 77.239 82.5658 79.2643 80.9046C81.1364 79.3687 82.4259 77.2499 83.0963 74.6067C83.761 71.9864 83.7993 69.173 83.8363 66.4523C83.8652 64.3223 83.8956 61.7993 83.9017 59.2403C83.8956 56.6809 83.8652 54.1583 83.8363 52.0283C83.7993 49.3076 83.761 46.4941 83.0963 43.8734C82.4258 41.2302 81.1364 39.1114 79.2643 37.5756C77.239 35.9148 74.7668 34.984 71.9155 34.8096C67.8991 34.5636 63.7647 34.4503 59.2725 34.4601C54.7704 34.4494 50.6357 34.5636 46.6193 34.8097C43.7679 34.9841 41.2957 35.9148 39.2703 37.5757C37.3983 39.1114 36.1089 41.2303 35.4384 43.8734C34.7737 46.4941 34.7354 49.3072 34.6984 52.0283C34.6694 54.1602 34.6391 56.6846 34.6329 59.2457C34.6392 61.7956 34.6694 64.3205 34.6984 66.4523C34.7354 69.173 34.7737 71.9865 35.4384 74.6067C36.109 77.25 37.3983 79.3687 39.2703 80.9046C41.2957 82.5653 43.7679 83.4962 46.6193 83.6706C50.6357 83.9166 54.7713 84.0313 59.2617 84.02V84.02ZM59.153 73.581C51.2923 73.581 44.8964 67.1479 44.8964 59.2403C44.8964 51.3328 51.2923 44.8997 59.153 44.8997C67.0143 44.8997 73.4097 51.3328 73.4097 59.2403C73.4097 67.1479 67.0143 73.581 59.153 73.581ZM59.153 49.4887C53.8077 49.4887 49.4585 53.8635 49.4585 59.2403C49.4585 64.6171 53.8077 68.992 59.153 68.992C64.4988 68.992 68.8476 64.6171 68.8476 59.2403C68.8476 53.8635 64.4988 49.4887 59.153 49.4887ZM75.0065 40.3107C73.1171 40.3107 71.5849 41.8514 71.5849 43.7524C71.5849 45.6534 73.1171 47.1942 75.0065 47.1942C76.8963 47.1942 78.4281 45.6534 78.4281 43.7524C78.4281 41.8514 76.8963 40.3107 75.0065 40.3107Z" fill="url(#paint1_linear_2495_954)"/>
<defs>
<linearGradient id="paint0_linear_2495_954" x1="16.2313" y1="-44.1494" x2="104.31" y2="86.8245" gradientUnits="userSpaceOnUse">
<stop stop-color="#2F3547"/>
<stop offset="1" stop-opacity="0"/>
</linearGradient>
<linearGradient id="paint1_linear_2495_954" x1="37.7507" y1="36.6507" x2="88.6007" y2="109.101" gradientUnits="userSpaceOnUse">
<stop stop-color="#1769E5"/>
<stop offset="1" stop-color="#45D1FF"/>
</linearGradient>
</defs>
</svg>
