<svg width="118" height="118" viewBox="0 0 118 118" fill="none" xmlns="http://www.w3.org/2000/svg">
<rect x="0.849902" y="0.649951" width="116.222" height="116.222" rx="17.55" fill="url(#paint0_linear_2495_963)" stroke="#717892" stroke-width="0.9"/>
<path d="M83.9086 53.2229C83.4243 53.2718 82.938 53.2974 82.4514 53.2997C79.8239 53.3 77.2377 52.6207 74.9262 51.3229C72.6147 50.0251 70.6507 48.1498 69.2114 45.8661V71.1792C69.2114 74.8795 68.1552 78.4967 66.1764 81.5734C64.1976 84.65 61.385 87.048 58.0943 88.464C54.8036 89.8801 51.1827 90.2506 47.6893 89.5287C44.1959 88.8068 40.9871 87.0249 38.4685 84.4084C35.9499 81.7919 34.2348 78.4583 33.5399 74.8292C32.845 71.2 33.2016 67.4382 34.5647 64.0196C35.9277 60.601 38.236 57.6791 41.1975 55.6233C44.159 53.5676 47.6408 52.4703 51.2026 52.4703C51.5786 52.4703 51.9461 52.5054 52.3156 52.5295V61.7491C51.9461 61.703 51.5828 61.6328 51.2026 61.6328C48.765 61.6328 46.4271 62.6388 44.7034 64.4295C42.9797 66.2202 42.0113 68.649 42.0113 71.1814C42.0113 73.7139 42.9797 76.1426 44.7034 77.9333C46.4271 79.724 48.765 80.7301 51.2026 80.7301C56.2798 80.7301 60.7635 76.5745 60.7635 71.2999L60.8522 28.3091H69.3424C69.7303 32.1415 71.4025 35.7102 74.0668 38.3914C76.731 41.0726 80.2177 42.6956 83.9171 42.9765V53.2229" fill="url(#paint1_linear_2495_963)"/>
<defs>
<linearGradient id="paint0_linear_2495_963" x1="16.2313" y1="-44.1494" x2="104.31" y2="86.8245" gradientUnits="userSpaceOnUse">
<stop stop-color="#2F3547"/>
<stop offset="1" stop-opacity="0"/>
</linearGradient>
<linearGradient id="paint1_linear_2495_963" x1="39.865" y1="35.4168" x2="95.7771" y2="101.424" gradientUnits="userSpaceOnUse">
<stop stop-color="#1769E5"/>
<stop offset="1" stop-color="#45D1FF"/>
</linearGradient>
</defs>
</svg>
