<?xml version="1.0" encoding="UTF-8"?>
<svg xmlns="http://www.w3.org/2000/svg" xmlns:xlink="http://www.w3.org/1999/xlink" viewBox="0 0 500 500">
  <defs>
    <style>
      .cls-1 {
        fill: url(#linear-gradient);
      }

      .cls-1, .cls-2, .cls-3, .cls-4, .cls-5, .cls-6, .cls-7, .cls-8, .cls-9, .cls-10, .cls-11, .cls-12, .cls-13, .cls-14, .cls-15, .cls-16, .cls-17 {
        stroke-width: 0px;
      }

      .cls-2 {
        fill: #83bf92;
      }

      .cls-3, .cls-4, .cls-17 {
        fill: #262830;
      }

      .cls-18 {
        isolation: isolate;
      }

      .cls-19 {
        opacity: .2;
      }

      .cls-4 {
        opacity: .3;
      }

      .cls-4, .cls-17 {
        mix-blend-mode: multiply;
      }

      .cls-20 {
        stroke: #33343c;
        stroke-miterlimit: 10;
        stroke-width: 2px;
      }

      .cls-20, .cls-6 {
        fill: none;
      }

      .cls-5 {
        fill: #f96000;
      }

      .cls-7 {
        fill: #8593a1;
      }

      .cls-21 {
        clip-path: url(#clippath-1);
      }

      .cls-8 {
        fill: #d6e4f9;
      }

      .cls-9 {
        fill: #bfd0e2;
      }

      .cls-22 {
        clip-path: url(#clippath);
      }

      .cls-10 {
        fill: #b4cadd;
      }

      .cls-11 {
        fill: #ec6b2c;
      }

      .cls-12 {
        fill: #32c7e8;
      }

      .cls-13 {
        fill: #dadada;
      }

      .cls-14 {
        fill: #fff;
      }

      .cls-15 {
        fill: #cfdde7;
      }

      .cls-16 {
        fill: #a3b1be;
      }

      .cls-17 {
        opacity: .4;
      }
    </style>
    <linearGradient id="linear-gradient" x1="96.92" y1="256.27" x2="317.21" y2="376.98" gradientUnits="userSpaceOnUse">
      <stop offset="0" stop-color="#67cbeb"/>
      <stop offset="1" stop-color="#5070c9"/>
    </linearGradient>
    <clipPath id="clippath">
      <rect class="cls-6" x="-11.11" y="-654.3" width="1324.78" height="557.72"/>
    </clipPath>
    <clipPath id="clippath-1">
      <path class="cls-6" d="M-114.09-302.74l395.53-224.58c50.41-28.62,112.16-28.61,162.56.03l313.59,178.21,87.47-46.67c41.36-22.07,91.13-21.45,131.93,1.62l380.06,214.96,1.04,205.69H-114.09v-329.28Z"/>
    </clipPath>
  </defs>
  <g class="cls-18">
    <g id="Layer_1" data-name="Layer 1">
      <g>
        <g>
          <path class="cls-14" d="M364.72,264.08c0-1.68,1.35-3.03,3.03-3.03s3.03,1.35,3.03,3.03-1.36,3.03-3.03,3.03-3.03-1.36-3.03-3.03ZM364.72,246.2c0-1.67,1.35-3.03,3.03-3.03s3.03,1.36,3.03,3.03-1.36,3.03-3.03,3.03-3.03-1.35-3.03-3.03ZM364.72,228.34c0-1.68,1.35-3.03,3.03-3.03s3.03,1.35,3.03,3.03-1.36,3.03-3.03,3.03-3.03-1.36-3.03-3.03ZM364.72,210.47c0-1.67,1.35-3.03,3.03-3.03s3.03,1.36,3.03,3.03-1.36,3.03-3.03,3.03-3.03-1.36-3.03-3.03Z"/>
          <path class="cls-14" d="M367.75,195.64c-.2,0-.4-.03-.6-.06-.19-.04-.38-.09-.56-.17-.18-.08-.36-.17-.52-.28-.17-.11-.33-.24-.47-.38-.56-.56-.88-1.34-.88-2.14s.32-1.59.88-2.15c.14-.14.29-.27.47-.37.16-.11.34-.21.52-.29.18-.07.37-.13.56-.17.39-.08.8-.08,1.19,0,.2.04.39.1.57.17.18.08.36.17.52.29.16.1.32.23.46.37.56.56.89,1.34.89,2.15s-.33,1.58-.89,2.14c-.14.14-.3.27-.46.38-.16.1-.34.2-.52.28-.18.08-.37.13-.57.17-.19.03-.39.06-.59.06Z"/>
        </g>
        <path class="cls-14" d="M141.25,319.7l-23.24,2.47c-.73.08-1.38.47-1.79,1.07-.41.6-.53,1.35-.34,2.06l4.25,15.37c.23.83.89,1.49,1.72,1.73.74.21,1.51.07,2.13-.38.08-.06.16-.12.24-.2l18.99-17.85c.3-.28.52-.63.65-1.01.2-.59.18-1.24-.09-1.84-.44-.97-1.46-1.54-2.52-1.43ZM136.46,324.31l-13.42,12.61-3-10.87,16.43-1.75Z"/>
        <path class="cls-5" d="M111.45,310.32c3.09-2.41,3.63-6.89,1.22-9.98-2.41-3.09-6.89-3.63-9.98-1.22-3.09,2.41-3.63,6.89-1.22,9.98s6.89,3.63,9.98,1.22ZM104.95,302.01c1.49-1.17,3.66-.9,4.83.59,1.17,1.49.9,3.66-.59,4.83-1.49,1.17-3.66.9-4.83-.59s-.9-3.66.59-4.83Z"/>
        <circle class="cls-12" cx="91.45" cy="329.2" r="3.62"/>
        <g>
          <g class="cls-19">
            <path class="cls-3" d="M421.98,357.18l-129.21-74.6c-8.19-4.73-21.43-4.73-29.54-.02l-110.89,64.44c-8.14,4.73-8.07,12.38.13,17.11l129.21,74.6c8.19,4.73,21.37,4.73,29.51,0l110.89-64.44c8.11-4.71,8.1-12.36-.1-17.09h0Z"/>
          </g>
          <g>
            <g>
              <path class="cls-8" d="M289.04,377.33l-44.03,25.59c-.26.15-.54.3-.82.43-4.39,2.15-10.65,2.35-15.4.59-.79-.28-1.53-.63-2.21-1.02l-75.68-43.7c-2.57-1.48-3.85-3.43-3.85-5.37,0-.09.01-.16.01-.25v-9.74l11.3.31,36.49-21.21c5.07-2.94,13.32-2.94,18.43,0l34.52,19.93,41.16,23.77c5.12,2.96,5.14,7.72.08,10.67Z"/>
              <path class="cls-3" d="M235.81,407.02c-2.65,0-5.31-.43-7.67-1.31-.87-.31-1.72-.71-2.49-1.15l-75.68-43.7c-3.09-1.79-4.79-4.28-4.79-7v-9.99c.01-.51.22-1,.59-1.35.36-.36.82-.57,1.37-.53l10.76.3,36.03-20.94c5.68-3.29,14.6-3.3,20.32,0l75.68,43.7c3.09,1.78,4.8,4.27,4.8,6.99,0,2.71-1.68,5.17-4.72,6.94l-44.03,25.59c-.34.19-.67.37-1,.52-2.63,1.28-5.87,1.94-9.15,1.94ZM148.96,345.8v7.79c-.01,1.55,1.05,2.92,2.9,3.99l75.67,43.7c.57.33,1.21.64,1.89.87,4.33,1.6,10.05,1.4,13.94-.51.29-.13.5-.26.71-.38l44.01-25.58h0c1.81-1.05,2.85-2.39,2.84-3.67,0-1.3-1.06-2.66-2.91-3.73l-75.68-43.7c-4.5-2.6-12.08-2.6-16.54,0l-36.49,21.21c-.3.18-.67.2-1,.25l-9.35-.26Z"/>
            </g>
            <g class="cls-18">
              <g>
                <path class="cls-9" d="M288.97,357.87l-75.69-43.7c-5.1-2.94-13.35-2.95-18.42,0l-44.03,25.59c-5.07,2.94-5.03,7.73.07,10.67l75.69,43.7c5.11,2.95,13.35,2.95,18.42,0l44.03-25.59c5.07-2.94,5.04-7.72-.07-10.67h0Z"/>
                <path class="cls-3" d="M235.82,398.23c-3.66,0-7.32-.83-10.18-2.48l-75.69-43.7c-3.08-1.78-4.78-4.27-4.79-7,0-2.71,1.67-5.17,4.72-6.94l44.03-25.59c5.68-3.31,14.6-3.3,20.31,0l75.69,43.7c3.08,1.78,4.79,4.26,4.79,6.99,0,2.71-1.67,5.17-4.72,6.95l-44.03,25.59c-2.84,1.65-6.49,2.47-10.14,2.47ZM204.05,313.85c-3.01,0-6.01.65-8.24,1.95l-44.03,25.58c-1.81,1.05-2.84,2.39-2.84,3.68,0,1.3,1.06,2.66,2.9,3.73l75.69,43.7c4.5,2.59,12.07,2.6,16.53,0l44.03-25.59c1.81-1.05,2.85-2.39,2.84-3.68,0-1.3-1.06-2.66-2.91-3.72h0l-75.69-43.7c-2.25-1.3-5.27-1.95-8.28-1.95Z"/>
              </g>
            </g>
          </g>
          <g>
            <g>
              <path class="cls-9" d="M329.98,231.98l-.38,155.66c-.01,5.17-1.84,8.81-4.79,10.53l11.53-6.7c2.95-1.71,4.77-5.35,4.79-10.53l.38-155.66-11.53,6.7Z"/>
              <path class="cls-17" d="M329.98,231.98l-.38,155.66c-.01,5.17-1.84,8.81-4.79,10.53l11.53-6.7c2.95-1.71,4.77-5.35,4.79-10.53l.38-155.66-11.53,6.7Z"/>
              <path class="cls-3" d="M324.82,400.06c-.65,0-1.28-.34-1.63-.94-.52-.9-.22-2.06.68-2.58,2.47-1.43,3.84-4.59,3.85-8.9l.38-155.66c0-.67.36-1.29.94-1.63l11.52-6.7c.59-.34,1.31-.34,1.89,0,.58.34.94.96.94,1.64l-.38,155.66c-.02,5.7-2.05,10.02-5.73,12.15l-11.51,6.69h0c-.3.18-.63.26-.95.26ZM331.87,233.06l-.38,154.58c0,1.73-.2,3.33-.56,4.78l4.46-2.6c2.47-1.43,3.84-4.59,3.85-8.9l.38-152.38-7.75,4.5Z"/>
            </g>
            <g>
              <path class="cls-9" d="M126.45,82.22c-4.56-2.63-8.7-2.88-11.68-1.14l-11.53,6.7c2.99-1.73,7.12-1.49,11.68,1.14l198.69,114.71,11.53-6.7L126.45,82.22Z"/>
              <path class="cls-3" d="M313.61,205.52c-.33,0-.65-.09-.94-.26L113.98,90.55c-3.8-2.19-7.28-2.6-9.79-1.14-.91.52-2.05.21-2.58-.68-.52-.9-.22-2.06.68-2.58h.01s11.51-6.7,11.51-6.7c3.73-2.16,8.54-1.76,13.57,1.14h0l198.69,114.71c.58.34.94.96.94,1.63,0,.68-.36,1.3-.94,1.64l-11.52,6.7c-.3.17-.62.26-.95.26ZM111.25,85.3c1.5.42,3.05,1.08,4.62,1.99l197.74,114.16,7.76-4.51L125.5,83.85c-3.8-2.18-7.28-2.6-9.78-1.14l-4.47,2.59Z"/>
            </g>
            <g>
              <path class="cls-9" d="M329.99,231.98l-.34,136.33-.05,19.32c-.03,10.42-7.41,14.62-16.47,9.38l-198.69-114.71c-9.07-5.25-16.4-17.93-16.37-28.34l.05-19.33.33-136.33c.02-10.42,7.41-14.62,16.47-9.38l198.69,114.71c9.07,5.23,16.4,17.93,16.38,28.35Z"/>
              <path class="cls-3" d="M320.49,401.17c-2.59,0-5.42-.84-8.31-2.52l-198.69-114.71c-9.59-5.54-17.35-18.99-17.31-29.98l.38-155.66c.02-5.72,2.07-10.05,5.76-12.18,3.72-2.14,8.53-1.73,13.54,1.16l198.69,114.71c9.58,5.53,17.34,18.98,17.32,29.99l-.39,155.66c-.02,5.72-2.07,10.05-5.76,12.18-1.57.9-3.34,1.35-5.23,1.35ZM107.57,88.55c-1.24,0-2.37.28-3.36.85-2.49,1.43-3.86,4.59-3.87,8.91l-.38,155.67c-.04,9.78,6.88,21.76,15.42,26.7l198.69,114.71c3.79,2.18,7.25,2.6,9.76,1.16,2.48-1.43,3.86-4.59,3.87-8.91l.39-155.66h0c.03-9.81-6.89-21.79-15.43-26.71L113.97,90.55c-2.3-1.33-4.48-2-6.4-2Z"/>
            </g>
            <g>
              <path class="cls-9" d="M317.16,206.13c.22.18.44.38.65.57.35.31.69.62,1.03.94.22.21.44.43.66.66.32.33.64.66.95,1.01.2.22.39.44.58.66.47.55.93,1.12,1.38,1.7.1.13.2.25.29.37.53.71,1.03,1.44,1.51,2.19.13.2.24.4.37.6.36.58.7,1.17,1.03,1.76.13.24.26.48.39.72.36.69.7,1.38,1.02,2.08.05.12.11.23.17.35.05.11.09.21.13.32.22.5.42,1.01.61,1.52.07.19.14.39.21.58.16.45.31.9.46,1.36.06.18.11.36.17.53.18.62.35,1.23.49,1.85.02.07.03.13.04.2.12.55.23,1.1.32,1.65.03.19.06.37.08.56.07.45.12.89.16,1.33.02.18.04.36.05.54.04.6.07,1.2.07,1.79l11.53-6.7c0-.59-.03-1.19-.07-1.79-.01-.18-.03-.36-.05-.54-.04-.44-.09-.88-.16-1.33-.03-.19-.05-.37-.08-.56-.09-.55-.2-1.1-.32-1.65-.01-.07-.03-.13-.04-.2-.14-.62-.31-1.23-.49-1.85-.05-.18-.11-.36-.17-.53-.14-.45-.29-.91-.46-1.36-.07-.19-.14-.39-.21-.58-.19-.51-.4-1.02-.61-1.52-.05-.11-.09-.21-.13-.32-.01-.03-.02-.06-.03-.08-.04-.09-.09-.18-.13-.27-.32-.7-.66-1.4-1.02-2.09-.13-.24-.26-.48-.39-.71-.33-.6-.67-1.18-1.03-1.76-.12-.2-.24-.4-.37-.6-.48-.75-.98-1.48-1.51-2.19-.09-.13-.2-.25-.29-.37-.45-.58-.91-1.15-1.38-1.7-.08-.1-.16-.2-.24-.3-.11-.13-.23-.24-.34-.37-.31-.35-.63-.68-.95-1.01-.22-.22-.44-.44-.66-.66-.34-.32-.68-.63-1.03-.94-.22-.19-.43-.39-.65-.57-.38-.32-.78-.62-1.17-.91-.19-.14-.38-.3-.57-.43-.59-.42-1.19-.81-1.8-1.16l-11.53,6.7c.61.35,1.21.74,1.8,1.16.19.14.38.29.57.43.39.29.79.59,1.17.91Z"/>
              <path class="cls-3" d="M329.98,233.87c-.33,0-.65-.08-.94-.25-.59-.34-.95-.96-.95-1.64,0-.54-.02-1.09-.06-1.65l1.83-.68-1.88.17c-.04-.41-.08-.81-.15-1.22l-.08-.5c-.09-.55-.19-1.05-.3-1.56-.18-.78-.33-1.35-.5-1.93l1.64-1.07-1.8.57c-.14-.43-.28-.86-.44-1.29l-.2-.55c-.19-.5-.38-.98-.59-1.45l1.51-1.26-1.7.81c-.39-.86-.71-1.52-1.06-2.18l-.37-.68c-.31-.58-.64-1.14-.98-1.69l1.24-1.59-1.58,1.02c-.46-.71-.94-1.41-1.44-2.09-.7-.91-1.14-1.45-1.59-1.97l-.54-.61c-.3-.34-.6-.66-.91-.97l-.61-.61c-.32-.31-.64-.6-.96-.88l-.61-.53s-.01,0-.02-.01c-.35-.3-.71-.57-1.08-.84l-.53-.41c-.55-.39-1.1-.75-1.66-1.07-.58-.34-.94-.96-.94-1.63,0-.68.36-1.29.94-1.63l11.52-6.7c.59-.33,1.31-.34,1.88,0,.66.38,1.31.8,1.95,1.25.02.02.36.27.38.29.65.49,1.07.81,1.48,1.15l.42.37c.64.56,1.01.9,1.37,1.24l.69.69c.34.34.68.7,1.01,1.07,0,0,.36.38.37.39.74.88,1.22,1.47,1.69,2.08,0,0,.3.38.3.39.56.75,1.08,1.51,1.59,2.3l.28.46c.48.77.83,1.39,1.18,2l.41.76c.38.71.73,1.44,1.06,2.18.01.03.18.38.19.41.35.82.56,1.35.77,1.88l.22.6c.17.5.34.97.48,1.44l.18.56c.19.64.37,1.29.52,1.95.18.8.29,1.38.39,1.96l.08.55c.08.53.14,1,.18,1.47l.05.6c.05.65.08,1.3.08,1.93,0,.67-.36,1.28-.94,1.62l-11.52,6.7c-.3.17-.62.26-.95.26ZM318.37,204.69l.7.61c.35.31.72.64,1.08.99l.52.51c.52.53.85.88,1.18,1.24l.61.69c.5.58.98,1.17,1.45,1.78,0,0,.3.39.3.4.55.74,1.08,1.51,1.58,2.29,0,.01.23.38.24.39.53.85.88,1.46,1.23,2.08l.4.75c.38.72.74,1.45,1.07,2.18.01.03.27.61.29.64.26.6.47,1.13.67,1.67l.23.64c.16.44.31.91.47,1.39,0,0,.17.55.17.56.2.66.38,1.32.53,1.97.18.79.29,1.38.38,1.97l.09.6c.04.25.07.5.1.75l7.92-4.6c0-.19-.02-.38-.04-.58l-.04-.45c-.04-.45-.09-.87-.15-1.28l-.08-.53c-.08-.51-.19-1.03-.3-1.55-.17-.75-.33-1.34-.5-1.92l-.15-.49c-.14-.45-.29-.89-.44-1.32l-.2-.54c-.18-.48-.37-.96-.58-1.43,0-.02-.17-.41-.18-.43-.41-.89-.73-1.54-1.08-2.2l-.24-.45c-.44-.79-.77-1.35-1.11-1.91l-.35-.57c-.45-.71-.94-1.41-1.44-2.09-.7-.9-1.14-1.45-1.59-1.97l-.3-.36c-.54-.59-.84-.9-1.14-1.21l-.62-.62c-.32-.31-.64-.6-.97-.89l-.61-.53c-.36-.3-.72-.57-1.09-.85l-.53-.4c-.24-.17-.49-.34-.74-.5l-7.94,4.62c.45.34.83.63,1.2.94h0Z"/>
            </g>
            <g>
              <path class="cls-1" d="M329.65,368.32l-.05,19.32c-.03,10.42-7.41,14.62-16.47,9.38l-198.69-114.71c-9.07-5.25-16.4-17.93-16.37-28.34l.05-19.33,231.52,133.68Z"/>
              <path class="cls-3" d="M320.49,401.17c-2.59,0-5.42-.84-8.31-2.52l-198.69-114.71c-9.59-5.54-17.35-18.99-17.31-29.98l.05-19.33c0-.68.36-1.29.95-1.63.58-.34,1.3-.33,1.88,0l231.52,133.68c.58.34.94.96.94,1.64l-.05,19.32c-.02,5.72-2.07,10.05-5.76,12.17-1.57.9-3.34,1.35-5.23,1.35ZM100.01,237.9l-.04,16.08c-.04,9.78,6.88,21.76,15.42,26.7l198.69,114.71c3.79,2.18,7.25,2.6,9.76,1.16,2.48-1.43,3.86-4.59,3.87-8.91l.05-18.23L100.01,237.9Z"/>
            </g>
            <g>
              <path class="cls-14" d="M105.68,230.29l.32-131.96c0-.69.08-4.11,1.56-4.11.43,0,1.65.12,3.59,1.24l198.69,114.71c6.73,3.89,12.62,14.07,12.61,21.8l-.31,123.3-216.45-124.98Z"/>
              <path class="cls-3" d="M322.13,357.15c-.33,0-.65-.09-.94-.26l-216.45-124.98c-.58-.34-.94-.96-.94-1.64l.32-131.96c.04-5.21,2.18-5.99,3.45-5.99.72,0,2.28.19,4.53,1.5l198.69,114.71c7.36,4.25,13.57,14.98,13.55,23.44l-.31,123.3c0,.68-.36,1.29-.95,1.63-.29.17-.61.25-.94.25ZM107.57,229.2l212.68,122.8.3-120.04c.02-7.02-5.54-16.63-11.66-20.16L110.2,97.09c-.94-.54-1.63-.79-2.07-.9-.12.45-.23,1.2-.24,2.14l-.32,130.86Z"/>
            </g>
          </g>
          <g>
            <g>
              <polygon class="cls-9" points="171.5 219.34 151.7 230.84 131.78 219.34 151.57 207.83 171.5 219.34"/>
              <path class="cls-3" d="M151.7,232.73c-.33,0-.65-.09-.94-.26l-19.92-11.5c-.58-.34-.94-.96-.94-1.63,0-.68.36-1.3.94-1.64l19.79-11.51c.59-.34,1.31-.34,1.89,0l19.92,11.51c.58.34.94.96.94,1.63,0,.68-.36,1.3-.94,1.64l-19.79,11.5c-.3.17-.62.26-.95.26ZM135.54,219.33l16.15,9.33,16.03-9.32-16.15-9.33-16.03,9.32Z"/>
            </g>
            <g>
              <polygon class="cls-11" points="171.5 219.34 171.2 266.72 151.41 255.26 151.7 230.84 171.5 219.34"/>
              <polygon class="cls-4" points="171.5 219.34 171.2 266.72 151.41 255.26 151.7 230.84 171.5 219.34"/>
              <path class="cls-3" d="M171.2,268.6c-.33,0-.65-.09-.94-.26l-19.79-11.46c-.59-.34-.95-.98-.94-1.66l.29-24.42c0-.67.36-1.28.94-1.61l19.79-11.5c.59-.34,1.31-.34,1.89,0,.59.34.94.97.94,1.65l-.29,47.38c0,.67-.37,1.29-.95,1.62-.29.17-.61.25-.94.25ZM153.31,254.17l16.03,9.28.25-40.82-16.01,9.3-.27,22.24Z"/>
            </g>
            <g>
              <polygon class="cls-11" points="151.7 230.84 151.41 255.26 131.49 243.75 131.78 219.34 151.7 230.84"/>
              <path class="cls-3" d="M151.41,257.14c-.33,0-.65-.09-.94-.26l-19.92-11.5c-.59-.34-.95-.98-.94-1.66l.29-24.42c0-.67.37-1.28.95-1.62.59-.33,1.3-.32,1.88,0l19.92,11.5c.59.34.95.98.94,1.66l-.29,24.42c0,.67-.37,1.28-.95,1.62-.29.16-.61.25-.94.25ZM133.39,242.67l16.18,9.34.24-20.09-16.18-9.34-.24,20.09Z"/>
            </g>
          </g>
          <g>
            <polygon class="cls-9" points="225.59 191.45 205.79 202.95 185.87 191.45 205.66 179.95 225.59 191.45"/>
            <path class="cls-3" d="M205.79,204.84c-.33,0-.65-.09-.94-.26l-19.92-11.5c-.58-.34-.94-.96-.94-1.63,0-.68.36-1.3.94-1.64l19.79-11.51c.59-.34,1.31-.34,1.89,0l19.92,11.51c.58.34.94.96.94,1.63,0,.68-.36,1.3-.94,1.64l-19.79,11.5c-.3.17-.62.26-.95.26ZM189.64,191.45l16.15,9.33,16.03-9.32-16.15-9.33-16.03,9.32Z"/>
          </g>
          <g>
            <polygon class="cls-11" points="225.59 191.45 225.29 297.96 205.5 286.5 205.79 202.95 225.59 191.45"/>
            <polygon class="cls-4" points="225.59 191.45 225.29 297.96 205.5 286.5 205.79 202.95 225.59 191.45"/>
            <path class="cls-3" d="M225.3,299.85c-.33,0-.65-.09-.94-.26l-19.79-11.46c-.59-.34-.94-.96-.94-1.64l.29-83.54c0-.67.36-1.29.94-1.63l19.79-11.5c.59-.34,1.31-.34,1.89,0,.58.34.94.96.94,1.64l-.29,106.51c0,.68-.37,1.3-.95,1.63-.29.17-.61.25-.94.25ZM207.39,285.41l16.03,9.28.27-99.96-16.01,9.31-.29,81.37Z"/>
          </g>
          <g>
            <polygon class="cls-11" points="205.79 202.95 205.5 286.5 185.58 275 185.87 191.45 205.79 202.95"/>
            <path class="cls-3" d="M205.5,288.39c-.33,0-.65-.09-.94-.26l-19.92-11.5c-.58-.34-.94-.96-.94-1.64l.29-83.54c0-.68.37-1.3.95-1.63s1.3-.33,1.88,0l19.92,11.5c.58.34.94.96.94,1.64l-.29,83.54c0,.68-.37,1.3-.95,1.63-.29.17-.61.25-.94.25ZM187.47,273.91l16.16,9.33.28-79.2-16.16-9.33-.28,79.2Z"/>
          </g>
          <g>
            <g>
              <polygon class="cls-9" points="279.68 156.02 259.88 167.52 239.96 156.02 259.75 144.51 279.68 156.02"/>
              <path class="cls-3" d="M259.88,169.41c-.33,0-.65-.09-.94-.26l-19.92-11.5c-.58-.34-.94-.96-.94-1.63,0-.68.36-1.3.94-1.64l19.79-11.5c.59-.34,1.31-.34,1.89,0l19.92,11.5c.58.34.94.96.94,1.63,0,.68-.36,1.3-.94,1.64l-19.79,11.5c-.3.17-.62.26-.95.26ZM243.73,156.01l16.15,9.33,16.03-9.32-16.15-9.33-16.03,9.32Z"/>
            </g>
            <g>
              <polygon class="cls-11" points="279.68 156.02 279.39 329.2 259.59 317.74 259.88 167.52 279.68 156.02"/>
              <polygon class="cls-4" points="279.68 156.02 279.39 329.2 259.59 317.74 259.88 167.52 279.68 156.02"/>
              <path class="cls-3" d="M279.39,331.09c-.33,0-.65-.09-.94-.26l-19.79-11.46c-.59-.34-.94-.96-.94-1.64l.29-150.22c0-.67.36-1.29.94-1.63l19.79-11.5c.59-.34,1.3-.34,1.89,0,.58.34.94.96.94,1.64l-.29,173.18c0,.67-.36,1.29-.95,1.63-.29.17-.61.25-.94.25ZM261.48,316.65l16.03,9.28.28-166.63-16.02,9.3-.29,148.05Z"/>
            </g>
            <g>
              <polygon class="cls-11" points="259.88 167.52 259.59 317.74 239.67 306.24 239.96 156.02 259.88 167.52"/>
              <path class="cls-3" d="M259.59,319.63c-.33,0-.65-.09-.94-.26l-19.92-11.5c-.58-.34-.94-.96-.94-1.64l.29-150.22c0-.67.36-1.29.95-1.63.58-.34,1.3-.34,1.88,0l19.92,11.5c.58.34.94.96.94,1.64l-.29,150.22c0,.67-.36,1.29-.95,1.63-.29.17-.61.26-.94.26ZM241.56,305.15l16.15,9.33.28-145.87-16.15-9.33-.28,145.86Z"/>
            </g>
          </g>
          <path class="cls-3" d="M151.41,221.38c-.69,0-1.33-.38-1.66-.99l-19.92-36.81c-.49-.91-.15-2.06.76-2.56.9-.5,2.06-.16,2.56.76l18.17,33.58,28.79-59.29c.3-.6.88-1,1.55-1.05.69-.08,1.31.25,1.7.8l21.82,31.28,35.7-76.9c.32-.69,1-1.02,1.78-1.09.75.03,1.43.5,1.69,1.21l15.77,41.05,32.96-65.75c.47-.94,1.6-1.31,2.53-.84.93.47,1.31,1.6.84,2.53l-34.88,69.57c-.34.67-1.02,1.11-1.78,1.04-.75-.04-1.4-.51-1.67-1.21l-15.7-40.88-35.21,75.84c-.29.61-.87,1.03-1.55,1.09-.68.08-1.32-.25-1.71-.8l-21.86-31.33-28.99,59.71c-.31.64-.95,1.05-1.66,1.06-.01,0-.03,0-.04,0Z"/>
          <path class="cls-3" d="M292.69,116.22s-.09,0-.14,0c-1.04-.08-1.82-.98-1.74-2.02l1.76-23.66-14.66,11.35c-.82.63-2.01.49-2.65-.34-.64-.83-.49-2.01.34-2.65l18.01-13.94c.59-.45,1.39-.53,2.05-.17.66.35,1.05,1.06.99,1.81l-2.07,27.88c-.07.99-.9,1.75-1.88,1.75Z"/>
        </g>
      </g>
      <g class="cls-22">
        <g>
          <path class="cls-2" d="M758.06-402.64L209.02-85.64l7.55,161.23h1189.81l-1.43-281.77-404.29-228.67c-27.73-15.68-59.22-23.97-91.08-23.97s-60.38,7.53-87.08,21.78l-64.14,34.22"/>
          <path class="cls-20" d="M758.06-402.64L209.02-85.64l7.55,161.23h1189.81l-1.43-281.77-404.29-228.67c-27.73-15.68-59.22-23.97-91.08-23.97s-60.38,7.53-87.08,21.78l-64.14,34.22"/>
        </g>
        <g>
          <path class="cls-13" d="M-114.05-302.78l395.53-224.58c50.41-28.62,112.16-28.61,162.56.03l313.59,178.21,87.47-46.67c41.36-22.07,91.13-21.45,131.93,1.62l380.06,214.96,1.04,205.69H-114.05v-329.28Z"/>
          <g class="cls-21">
            <g>
              <g>
                <g class="cls-19">
                  <g>
                    <g>
                      <polygon class="cls-10" points="62.78 141.61 -2.1 104.14 76.8 58.59 141.69 96.05 62.78 141.61"/>
                      <g>
                        <polygon class="cls-16" points="85.85 64.77 77.26 59.81 61.54 68.88 61.54 68.88 47.31 77.1 55.9 82.06 85.85 64.77"/>
                        <polygon class="cls-7" points="54.41 82.91 45.82 77.95 31.59 86.17 40.18 91.13 54.41 82.91"/>
                        <polygon class="cls-15" points="38.7 91.99 30.11 87.03 15.87 95.25 24.46 100.21 38.7 91.99"/>
                        <polygon class="cls-15" points="82.41 79.21 96.64 71 88.05 66.04 73.82 74.25 82.41 79.21"/>
                        <polygon class="cls-7" points="58.1 83.33 66.69 88.29 80.92 80.07 72.33 75.11 58.1 83.33"/>
                        <polygon class="cls-16" points="42.38 92.4 61.76 103.59 76 95.37 56.61 84.19 42.38 92.4"/>
                        <polygon class="cls-7" points="26.66 101.48 35.25 106.44 49.49 98.22 40.9 93.26 26.66 101.48"/>
                        <polygon class="cls-15" points="25.18 102.33 25.18 102.33 14.39 96.1 .16 104.32 10.95 110.55 10.95 110.55 19.54 115.51 33.77 107.29 25.18 102.33"/>
                        <polygon class="cls-16" points="93.2 85.44 107.43 77.23 98.84 72.27 84.61 80.48 93.2 85.44"/>
                        <polygon class="cls-16" points="68.89 89.56 77.48 94.52 91.71 86.3 83.12 81.34 68.89 89.56"/>
                        <polygon class="cls-16" points="60.28 104.45 51.69 99.49 37.46 107.71 46.05 112.67 60.28 104.45"/>
                        <polygon class="cls-16" points="35.97 108.56 21.74 116.78 30.33 121.74 44.56 113.52 35.97 108.56"/>
                        <polygon class="cls-7" points="114.78 97.9 129.01 89.69 109.63 78.5 95.4 86.71 114.78 97.9"/>
                        <polygon class="cls-16" points="79.68 95.79 88.27 100.75 102.5 92.53 93.91 87.57 79.68 95.79"/>
                        <polygon class="cls-7" points="63.96 104.86 72.55 109.82 86.79 101.61 78.2 96.65 63.96 104.86"/>
                        <polygon class="cls-15" points="71.07 110.68 62.48 105.72 48.25 113.94 56.84 118.9 71.07 110.68"/>
                        <polygon class="cls-7" points="46.76 114.79 32.53 123.01 41.12 127.97 55.35 119.75 46.76 114.79"/>
                        <polygon class="cls-16" points="90.47 102.02 99.06 106.98 113.29 98.76 104.7 93.8 90.47 102.02"/>
                        <polygon class="cls-15" points="97.58 107.84 88.99 102.88 59.04 120.17 67.63 125.13 97.58 107.84"/>
                        <polygon class="cls-16" points="57.55 121.02 43.32 129.24 54.11 135.47 54.11 135.47 62.7 140.43 76.93 132.21 57.55 121.02"/>
                        <polygon class="cls-15" points="125.57 104.13 139.8 95.92 131.21 90.96 116.98 99.17 125.57 104.13"/>
                        <polygon class="cls-7" points="101.26 108.25 109.85 113.21 124.09 104.99 115.5 100.03 101.26 108.25"/>
                        <polygon class="cls-16" points="85.55 117.32 94.14 122.28 108.37 114.06 99.78 109.11 85.55 117.32"/>
                        <polygon class="cls-7" points="92.65 123.14 84.06 118.18 69.83 126.4 78.42 131.36 92.65 123.14"/>
                      </g>
                    </g>
                    <g>
                      <polygon class="cls-10" points="127.67 179.07 62.78 141.61 141.69 96.05 206.58 133.52 127.67 179.07"/>
                      <g>
                        <polygon class="cls-16" points="150.74 102.23 142.15 97.27 126.43 106.34 126.43 106.34 112.2 114.56 120.79 119.52 150.74 102.23"/>
                        <polygon class="cls-7" points="119.3 120.38 110.71 115.42 96.48 123.64 105.07 128.59 119.3 120.38"/>
                        <polygon class="cls-15" points="103.58 129.45 94.99 124.49 80.76 132.71 89.35 137.67 103.58 129.45"/>
                        <polygon class="cls-15" points="147.3 116.68 161.53 108.46 152.94 103.5 138.71 111.72 147.3 116.68"/>
                        <polygon class="cls-7" points="122.99 120.79 131.58 125.75 145.81 117.53 137.22 112.57 122.99 120.79"/>
                        <polygon class="cls-16" points="107.27 129.87 126.65 141.05 140.88 132.84 121.5 121.65 107.27 129.87"/>
                        <polygon class="cls-7" points="91.55 138.94 100.14 143.9 114.37 135.68 105.78 130.72 91.55 138.94"/>
                        <polygon class="cls-15" points="90.07 139.8 90.07 139.8 79.28 133.57 65.04 141.78 75.84 148.01 75.84 148.01 84.43 152.97 98.66 144.76 90.07 139.8"/>
                        <polygon class="cls-16" points="158.09 122.91 172.32 114.69 163.73 109.73 149.5 117.95 158.09 122.91"/>
                        <polygon class="cls-16" points="133.78 127.02 142.37 131.98 156.6 123.76 148.01 118.8 133.78 127.02"/>
                        <polygon class="cls-16" points="125.17 141.91 116.58 136.95 102.34 145.17 110.93 150.13 125.17 141.91"/>
                        <polygon class="cls-16" points="100.86 146.03 86.63 154.24 95.22 159.2 109.45 150.99 100.86 146.03"/>
                        <polygon class="cls-7" points="179.67 135.37 193.9 127.15 174.52 115.96 160.29 124.18 179.67 135.37"/>
                        <polygon class="cls-16" points="144.57 133.25 153.16 138.21 167.39 129.99 158.8 125.03 144.57 133.25"/>
                        <polygon class="cls-7" points="128.85 142.33 137.44 147.28 151.67 139.07 143.08 134.11 128.85 142.33"/>
                        <polygon class="cls-15" points="135.96 148.14 127.37 143.18 113.13 151.4 121.72 156.36 135.96 148.14"/>
                        <polygon class="cls-7" points="111.65 152.26 97.42 160.47 106.01 165.43 120.24 157.22 111.65 152.26"/>
                        <polygon class="cls-16" points="155.36 139.48 163.95 144.44 178.18 136.22 169.59 131.26 155.36 139.48"/>
                        <polygon class="cls-15" points="162.46 145.3 153.88 140.34 123.93 157.63 132.52 162.59 162.46 145.3"/>
                        <polygon class="cls-16" points="122.44 158.49 108.21 166.71 119 172.94 119 172.94 127.59 177.89 141.82 169.68 122.44 158.49"/>
                        <polygon class="cls-15" points="190.46 141.6 204.69 133.38 196.1 128.42 181.87 136.64 190.46 141.6"/>
                        <polygon class="cls-7" points="166.15 145.71 174.74 150.67 188.97 142.45 180.38 137.49 166.15 145.71"/>
                        <polygon class="cls-16" points="150.43 154.79 159.02 159.75 173.26 151.53 164.67 146.57 150.43 154.79"/>
                        <polygon class="cls-7" points="157.54 160.6 148.95 155.64 134.72 163.86 143.31 168.82 157.54 160.6"/>
                      </g>
                    </g>
                    <g>
                      <polygon class="cls-10" points="192.56 216.53 127.67 179.07 206.58 133.52 271.46 170.98 192.56 216.53"/>
                      <g>
                        <polygon class="cls-16" points="215.63 139.69 207.04 134.73 191.32 143.81 191.32 143.81 177.09 152.02 185.68 156.98 215.63 139.69"/>
                        <polygon class="cls-7" points="184.19 157.84 175.6 152.88 161.37 161.1 169.96 166.06 184.19 157.84"/>
                        <polygon class="cls-15" points="168.47 166.92 159.88 161.96 145.65 170.17 154.24 175.13 168.47 166.92"/>
                        <polygon class="cls-15" points="212.18 154.14 226.42 145.92 217.83 140.96 203.59 149.18 212.18 154.14"/>
                        <polygon class="cls-7" points="187.88 158.25 196.47 163.21 210.7 155 202.11 150.04 187.88 158.25"/>
                        <polygon class="cls-16" points="172.16 167.33 191.54 178.52 205.77 170.3 186.39 159.11 172.16 167.33"/>
                        <polygon class="cls-7" points="156.44 176.4 165.03 181.36 179.26 173.15 170.67 168.19 156.44 176.4"/>
                        <polygon class="cls-15" points="154.95 177.26 154.95 177.26 144.16 171.03 129.93 179.25 140.72 185.48 140.72 185.48 149.31 190.44 163.54 182.22 154.95 177.26"/>
                        <polygon class="cls-16" points="222.98 160.37 237.21 152.15 228.62 147.19 214.38 155.41 222.98 160.37"/>
                        <polygon class="cls-16" points="198.67 164.48 207.26 169.44 221.49 161.23 212.9 156.27 198.67 164.48"/>
                        <polygon class="cls-16" points="190.05 179.38 181.46 174.42 167.23 182.63 175.82 187.59 190.05 179.38"/>
                        <polygon class="cls-16" points="165.75 183.49 151.51 191.71 160.1 196.67 174.34 188.45 165.75 183.49"/>
                        <polygon class="cls-7" points="244.56 172.83 258.79 164.61 239.41 153.42 225.18 161.64 244.56 172.83"/>
                        <polygon class="cls-16" points="209.46 170.71 218.05 175.67 232.28 167.46 223.69 162.5 209.46 170.71"/>
                        <polygon class="cls-7" points="193.74 179.79 202.33 184.75 216.56 176.53 207.97 171.57 193.74 179.79"/>
                        <polygon class="cls-15" points="200.84 185.61 192.25 180.65 178.02 188.86 186.61 193.82 200.84 185.61"/>
                        <polygon class="cls-7" points="176.54 189.72 162.3 197.94 170.89 202.9 185.13 194.68 176.54 189.72"/>
                        <polygon class="cls-16" points="220.25 176.94 228.84 181.9 243.07 173.69 234.48 168.73 220.25 176.94"/>
                        <polygon class="cls-15" points="227.35 182.76 218.76 177.8 188.81 195.09 197.4 200.05 227.35 182.76"/>
                        <polygon class="cls-16" points="187.33 195.95 173.1 204.17 183.89 210.4 183.89 210.4 192.48 215.36 206.71 207.14 187.33 195.95"/>
                        <polygon class="cls-15" points="255.35 179.06 269.58 170.84 260.99 165.88 246.76 174.1 255.35 179.06"/>
                        <polygon class="cls-7" points="231.04 183.17 239.63 188.13 253.86 179.92 245.27 174.96 231.04 183.17"/>
                        <polygon class="cls-16" points="215.32 192.25 223.91 197.21 238.14 188.99 229.55 184.03 215.32 192.25"/>
                        <polygon class="cls-7" points="222.43 198.07 213.84 193.11 199.6 201.32 208.19 206.28 222.43 198.07"/>
                      </g>
                    </g>
                  </g>
                  <g>
                    <g>
                      <g>
                        <polygon class="cls-10" points="226.58 52.22 161.69 14.75 240.6 -30.8 305.48 6.66 226.58 52.22"/>
                        <g>
                          <polygon class="cls-7" points="218.21 -6.48 209.62 -11.44 195.39 -3.22 203.98 1.74 218.21 -6.48"/>
                          <polygon class="cls-15" points="202.49 2.6 193.9 -2.36 179.67 5.86 188.26 10.82 202.49 2.6"/>
                          <polygon class="cls-16" points="206.18 3.01 225.56 14.2 239.79 5.98 220.41 -5.21 206.18 3.01"/>
                          <polygon class="cls-7" points="190.46 12.09 199.05 17.05 213.28 8.83 204.69 3.87 190.46 12.09"/>
                          <polygon class="cls-15" points="188.98 12.94 188.98 12.94 178.19 6.71 163.95 14.93 174.74 21.16 174.74 21.16 183.33 26.12 197.57 17.9 188.98 12.94"/>
                          <polygon class="cls-16" points="232.69 .17 241.28 5.13 255.51 -3.09 246.92 -8.05 232.69 .17"/>
                          <polygon class="cls-16" points="224.08 15.06 215.48 10.1 201.25 18.32 209.84 23.28 224.08 15.06"/>
                          <polygon class="cls-16" points="199.77 19.17 185.54 27.39 194.13 32.35 208.36 24.13 199.77 19.17"/>
                          <polygon class="cls-7" points="278.58 8.51 292.81 .29 273.43 -10.89 259.2 -2.68 278.58 8.51"/>
                          <polygon class="cls-16" points="243.48 6.4 252.07 11.36 266.3 3.14 257.71 -1.82 243.48 6.4"/>
                          <polygon class="cls-7" points="227.76 15.47 236.35 20.43 250.58 12.21 241.99 7.25 227.76 15.47"/>
                          <polygon class="cls-15" points="234.87 21.29 226.28 16.33 212.04 24.55 220.63 29.51 234.87 21.29"/>
                          <polygon class="cls-7" points="210.56 25.4 196.33 33.62 204.92 38.58 219.15 30.36 210.56 25.4"/>
                          <polygon class="cls-16" points="254.27 12.63 262.86 17.59 277.09 9.37 268.5 4.41 254.27 12.63"/>
                          <polygon class="cls-15" points="261.37 18.44 252.78 13.48 222.84 30.78 231.43 35.74 261.37 18.44"/>
                          <polygon class="cls-16" points="221.35 31.63 207.12 39.85 217.91 46.08 217.91 46.08 226.5 51.04 240.73 42.82 221.35 31.63"/>
                          <polygon class="cls-15" points="289.37 14.74 303.6 6.52 295.01 1.57 280.78 9.78 289.37 14.74"/>
                          <polygon class="cls-7" points="265.06 18.86 273.65 23.82 287.88 15.6 279.29 10.64 265.06 18.86"/>
                          <polygon class="cls-16" points="249.34 27.93 257.93 32.89 272.17 24.67 263.58 19.71 249.34 27.93"/>
                          <polygon class="cls-7" points="256.45 33.75 247.86 28.79 233.63 37.01 242.22 41.97 256.45 33.75"/>
                        </g>
                      </g>
                      <g>
                        <polygon class="cls-10" points="147.68 97.77 82.79 60.31 161.69 14.75 226.58 52.22 147.68 97.77"/>
                        <g>
                          <polygon class="cls-16" points="170.74 20.93 162.15 15.97 146.44 25.04 146.44 25.04 132.2 33.26 140.79 38.22 170.74 20.93"/>
                          <polygon class="cls-7" points="139.31 39.08 130.72 34.12 116.49 42.34 125.08 47.3 139.31 39.08"/>
                          <polygon class="cls-15" points="123.59 48.15 115 43.19 100.77 51.41 109.36 56.37 123.59 48.15"/>
                          <polygon class="cls-15" points="167.3 35.38 181.53 27.16 172.94 22.2 158.71 30.42 167.3 35.38"/>
                          <polygon class="cls-7" points="142.99 39.49 151.58 44.45 165.82 36.23 157.23 31.27 142.99 39.49"/>
                          <polygon class="cls-16" points="127.28 48.57 146.66 59.76 160.89 51.54 141.51 40.35 127.28 48.57"/>
                          <polygon class="cls-7" points="111.56 57.64 120.15 62.6 134.38 54.38 125.79 49.42 111.56 57.64"/>
                          <polygon class="cls-15" points="110.07 58.5 110.07 58.5 99.28 52.27 85.05 60.49 95.84 66.72 95.84 66.72 104.43 71.67 118.66 63.46 110.07 58.5"/>
                          <polygon class="cls-16" points="178.09 41.61 192.33 33.39 183.74 28.43 169.5 36.65 178.09 41.61"/>
                          <polygon class="cls-16" points="153.79 45.72 162.38 50.68 176.61 42.46 168.02 37.5 153.79 45.72"/>
                          <polygon class="cls-16" points="145.17 60.61 136.58 55.65 122.35 63.87 130.94 68.83 145.17 60.61"/>
                          <polygon class="cls-16" points="120.86 64.73 106.63 72.95 115.22 77.9 129.45 69.69 120.86 64.73"/>
                          <polygon class="cls-7" points="199.67 54.07 213.91 45.85 194.53 34.66 180.29 42.88 199.67 54.07"/>
                          <polygon class="cls-16" points="164.58 51.95 173.17 56.91 187.4 48.69 178.81 43.73 164.58 51.95"/>
                          <polygon class="cls-7" points="148.86 61.03 157.45 65.99 171.68 57.77 163.09 52.81 148.86 61.03"/>
                          <polygon class="cls-15" points="155.96 66.84 147.37 61.88 133.14 70.1 141.73 75.06 155.96 66.84"/>
                          <polygon class="cls-7" points="131.65 70.96 117.42 79.18 126.01 84.14 140.24 75.92 131.65 70.96"/>
                          <polygon class="cls-16" points="175.37 58.18 183.96 63.14 198.19 54.92 189.6 49.97 175.37 58.18"/>
                          <polygon class="cls-15" points="182.47 64 173.88 59.04 143.93 76.33 152.52 81.29 182.47 64"/>
                          <polygon class="cls-16" points="142.45 77.19 128.21 85.41 139 91.64 139 91.64 147.59 96.6 161.83 88.38 142.45 77.19"/>
                          <polygon class="cls-15" points="210.47 60.3 224.7 52.08 216.11 47.12 201.88 55.34 210.47 60.3"/>
                          <polygon class="cls-7" points="186.16 64.41 194.75 69.37 208.98 61.15 200.39 56.2 186.16 64.41"/>
                          <polygon class="cls-16" points="170.44 73.49 179.03 78.45 193.26 70.23 184.67 65.27 170.44 73.49"/>
                          <polygon class="cls-7" points="177.54 79.3 168.95 74.34 154.72 82.56 163.31 87.52 177.54 79.3"/>
                        </g>
                      </g>
                    </g>
                    <g>
                      <g>
                        <polygon class="cls-10" points="291.47 89.68 226.58 52.22 305.48 6.66 370.37 44.12 291.47 89.68"/>
                        <g>
                          <polygon class="cls-16" points="314.53 12.84 305.95 7.88 290.23 16.95 290.23 16.95 276 25.17 284.59 30.13 314.53 12.84"/>
                          <polygon class="cls-7" points="283.1 30.99 274.51 26.03 260.28 34.24 268.87 39.2 283.1 30.99"/>
                          <polygon class="cls-15" points="267.38 40.06 258.79 35.1 244.56 43.32 253.15 48.28 267.38 40.06"/>
                          <polygon class="cls-15" points="311.09 27.28 325.33 19.07 316.74 14.11 302.5 22.33 311.09 27.28"/>
                          <polygon class="cls-7" points="286.79 31.4 295.38 36.36 309.61 28.14 301.02 23.18 286.79 31.4"/>
                          <polygon class="cls-16" points="271.07 40.47 290.45 51.66 304.68 43.45 285.3 32.26 271.07 40.47"/>
                          <polygon class="cls-7" points="255.35 49.55 263.94 54.51 278.17 46.29 269.58 41.33 255.35 49.55"/>
                          <polygon class="cls-15" points="253.86 50.41 253.86 50.41 243.07 44.18 228.84 52.39 239.63 58.62 239.63 58.62 248.22 63.58 262.45 55.37 253.86 50.41"/>
                          <polygon class="cls-16" points="321.88 33.51 336.12 25.3 327.53 20.34 313.29 28.56 321.88 33.51"/>
                          <polygon class="cls-16" points="297.58 37.63 306.17 42.59 320.4 34.37 311.81 29.41 297.58 37.63"/>
                          <polygon class="cls-16" points="288.96 52.52 280.37 47.56 266.14 55.78 274.73 60.74 288.96 52.52"/>
                          <polygon class="cls-16" points="264.66 56.64 250.42 64.85 259.01 69.81 273.25 61.6 264.66 56.64"/>
                          <polygon class="cls-7" points="343.47 45.97 357.7 37.76 338.32 26.57 324.09 34.79 343.47 45.97"/>
                          <polygon class="cls-16" points="308.37 43.86 316.96 48.82 331.19 40.6 322.6 35.64 308.37 43.86"/>
                          <polygon class="cls-7" points="292.65 52.93 301.24 57.89 315.47 49.68 306.88 44.72 292.65 52.93"/>
                          <polygon class="cls-15" points="299.75 58.75 291.16 53.79 276.93 62.01 285.52 66.97 299.75 58.75"/>
                          <polygon class="cls-7" points="275.45 62.87 261.21 71.08 269.8 76.04 284.04 67.83 275.45 62.87"/>
                          <polygon class="cls-16" points="319.16 50.09 327.75 55.05 341.98 46.83 333.39 41.87 319.16 50.09"/>
                          <polygon class="cls-15" points="326.26 55.91 317.67 50.95 287.72 68.24 296.31 73.2 326.26 55.91"/>
                          <polygon class="cls-16" points="286.24 69.1 272 77.31 282.8 83.54 282.8 83.54 291.39 88.5 305.62 80.29 286.24 69.1"/>
                          <polygon class="cls-15" points="354.26 52.2 368.49 43.99 359.9 39.03 345.67 47.25 354.26 52.2"/>
                          <polygon class="cls-7" points="329.95 56.32 338.54 61.28 352.77 53.06 344.18 48.1 329.95 56.32"/>
                          <polygon class="cls-16" points="314.23 65.39 322.82 70.35 337.05 62.14 328.46 57.18 314.23 65.39"/>
                          <polygon class="cls-7" points="321.34 71.21 312.75 66.25 298.51 74.47 307.1 79.43 321.34 71.21"/>
                        </g>
                      </g>
                      <g>
                        <polygon class="cls-10" points="212.57 135.23 147.68 97.77 226.58 52.22 291.47 89.68 212.57 135.23"/>
                        <g>
                          <polygon class="cls-16" points="235.63 58.39 227.04 53.43 211.32 62.51 211.32 62.51 197.09 70.72 205.68 75.68 235.63 58.39"/>
                          <polygon class="cls-7" points="204.2 76.54 195.61 71.58 181.37 79.8 189.96 84.76 204.2 76.54"/>
                          <polygon class="cls-15" points="188.48 85.62 179.89 80.66 165.66 88.87 174.25 93.83 188.48 85.62"/>
                          <polygon class="cls-15" points="232.19 72.84 246.42 64.62 237.83 59.66 223.6 67.88 232.19 72.84"/>
                          <polygon class="cls-7" points="207.88 76.95 216.47 81.91 230.7 73.7 222.11 68.74 207.88 76.95"/>
                          <polygon class="cls-16" points="192.17 86.03 211.55 97.22 225.78 89 206.4 77.81 192.17 86.03"/>
                          <polygon class="cls-7" points="176.45 95.1 185.04 100.06 199.27 91.85 190.68 86.89 176.45 95.1"/>
                          <polygon class="cls-15" points="174.96 95.96 174.96 95.96 164.17 89.73 149.94 97.95 160.73 104.18 160.73 104.18 169.32 109.14 183.55 100.92 174.96 95.96"/>
                          <polygon class="cls-16" points="242.98 79.07 257.21 70.85 248.62 65.89 234.39 74.11 242.98 79.07"/>
                          <polygon class="cls-16" points="218.67 83.18 227.26 88.14 241.5 79.93 232.91 74.97 218.67 83.18"/>
                          <polygon class="cls-16" points="210.06 98.08 201.47 93.12 187.24 101.33 195.83 106.29 210.06 98.08"/>
                          <polygon class="cls-16" points="185.75 102.19 171.52 110.41 180.11 115.37 194.34 107.15 185.75 102.19"/>
                          <polygon class="cls-7" points="264.56 91.53 278.79 83.31 259.41 72.12 245.18 80.34 264.56 91.53"/>
                          <polygon class="cls-16" points="229.46 89.41 238.05 94.37 252.29 86.16 243.7 81.2 229.46 89.41"/>
                          <polygon class="cls-7" points="213.75 98.49 222.34 103.45 236.57 95.23 227.98 90.27 213.75 98.49"/>
                          <polygon class="cls-15" points="220.85 104.31 212.26 99.35 198.03 107.56 206.62 112.52 220.85 104.31"/>
                          <polygon class="cls-7" points="196.54 108.42 182.31 116.64 190.9 121.6 205.13 113.38 196.54 108.42"/>
                          <polygon class="cls-16" points="240.26 95.64 248.84 100.6 263.08 92.39 254.49 87.43 240.26 95.64"/>
                          <polygon class="cls-15" points="247.36 101.46 238.77 96.5 208.82 113.79 217.41 118.75 247.36 101.46"/>
                          <polygon class="cls-16" points="207.33 114.65 193.1 122.87 203.89 129.1 203.89 129.1 212.48 134.06 226.71 125.84 207.33 114.65"/>
                          <polygon class="cls-15" points="275.35 97.76 289.59 89.54 281 84.58 266.76 92.8 275.35 97.76"/>
                          <polygon class="cls-7" points="251.05 101.87 259.64 106.83 273.87 98.62 265.28 93.66 251.05 101.87"/>
                          <polygon class="cls-16" points="235.33 110.95 243.92 115.91 258.15 107.69 249.56 102.73 235.33 110.95"/>
                          <polygon class="cls-7" points="242.43 116.77 233.84 111.81 219.61 120.02 228.2 124.98 242.43 116.77"/>
                        </g>
                      </g>
                    </g>
                    <g>
                      <g>
                        <polygon class="cls-10" points="356.36 127.14 291.47 89.68 370.37 44.12 435.26 81.59 356.36 127.14"/>
                        <g>
                          <polygon class="cls-16" points="379.42 50.3 370.83 45.34 355.12 54.42 355.12 54.42 340.88 62.63 349.47 67.59 379.42 50.3"/>
                          <polygon class="cls-7" points="347.99 68.45 339.4 63.49 325.17 71.71 333.75 76.67 347.99 68.45"/>
                          <polygon class="cls-15" points="332.27 77.52 323.68 72.57 309.45 80.78 318.04 85.74 332.27 77.52"/>
                          <polygon class="cls-15" points="375.98 64.75 390.21 56.53 381.62 51.57 367.39 59.79 375.98 64.75"/>
                          <polygon class="cls-7" points="351.67 68.86 360.26 73.82 374.5 65.61 365.91 60.65 351.67 68.86"/>
                          <polygon class="cls-16" points="335.96 77.94 355.34 89.13 369.57 80.91 350.19 69.72 335.96 77.94"/>
                          <polygon class="cls-7" points="320.24 87.01 328.83 91.97 343.06 83.76 334.47 78.8 320.24 87.01"/>
                          <polygon class="cls-15" points="318.75 87.87 318.75 87.87 307.96 81.64 293.73 89.86 304.52 96.09 304.52 96.09 313.11 101.05 327.34 92.83 318.75 87.87"/>
                          <polygon class="cls-16" points="386.77 70.98 401 62.76 392.41 57.8 378.18 66.02 386.77 70.98"/>
                          <polygon class="cls-16" points="362.46 75.09 371.05 80.05 385.29 71.84 376.7 66.88 362.46 75.09"/>
                          <polygon class="cls-16" points="353.85 89.99 345.26 85.03 331.03 93.24 339.62 98.2 353.85 89.99"/>
                          <polygon class="cls-16" points="329.54 94.1 315.31 102.32 323.9 107.28 338.13 99.06 329.54 94.1"/>
                          <polygon class="cls-7" points="408.35 83.44 422.59 75.22 403.21 64.03 388.97 72.25 408.35 83.44"/>
                          <polygon class="cls-16" points="373.26 81.32 381.85 86.28 396.08 78.07 387.49 73.11 373.26 81.32"/>
                          <polygon class="cls-7" points="357.54 90.4 366.13 95.36 380.36 87.14 371.77 82.18 357.54 90.4"/>
                          <polygon class="cls-15" points="364.64 96.22 356.05 91.26 341.82 99.47 350.41 104.43 364.64 96.22"/>
                          <polygon class="cls-7" points="340.33 100.33 326.1 108.55 334.69 113.51 348.92 105.29 340.33 100.33"/>
                          <polygon class="cls-16" points="384.05 87.55 392.64 92.51 406.87 84.3 398.28 79.34 384.05 87.55"/>
                          <polygon class="cls-15" points="391.15 93.37 382.56 88.41 352.61 105.7 361.2 110.66 391.15 93.37"/>
                          <polygon class="cls-16" points="351.12 106.56 336.89 114.78 347.68 121.01 347.68 121.01 356.27 125.97 370.51 117.75 351.12 106.56"/>
                          <polygon class="cls-15" points="419.14 89.67 433.38 81.45 424.79 76.49 410.55 84.71 419.14 89.67"/>
                          <polygon class="cls-7" points="394.84 93.78 403.43 98.74 417.66 90.53 409.07 85.57 394.84 93.78"/>
                          <polygon class="cls-16" points="379.12 102.86 387.71 107.82 401.94 99.6 393.35 94.64 379.12 102.86"/>
                          <polygon class="cls-7" points="386.22 108.68 377.63 103.72 363.4 111.93 371.99 116.89 386.22 108.68"/>
                        </g>
                      </g>
                      <g>
                        <polygon class="cls-10" points="277.45 172.7 212.57 135.23 291.47 89.68 356.36 127.14 277.45 172.7"/>
                        <g>
                          <polygon class="cls-16" points="300.52 95.86 291.93 90.9 276.21 99.97 276.21 99.97 261.98 108.19 270.57 113.15 300.52 95.86"/>
                          <polygon class="cls-7" points="269.08 114.01 260.49 109.05 246.26 117.26 254.85 122.22 269.08 114.01"/>
                          <polygon class="cls-15" points="253.37 123.08 244.78 118.12 230.54 126.34 239.13 131.3 253.37 123.08"/>
                          <polygon class="cls-15" points="297.08 110.3 311.31 102.09 302.72 97.13 288.49 105.34 297.08 110.3"/>
                          <polygon class="cls-7" points="272.77 114.42 281.36 119.38 295.59 111.16 287 106.2 272.77 114.42"/>
                          <polygon class="cls-16" points="257.05 123.49 276.43 134.68 290.67 126.47 271.28 115.28 257.05 123.49"/>
                          <polygon class="cls-7" points="241.33 132.57 249.92 137.53 264.16 129.31 255.57 124.35 241.33 132.57"/>
                          <polygon class="cls-15" points="239.85 133.43 239.85 133.43 229.06 127.2 214.83 135.41 225.62 141.64 225.62 141.64 234.21 146.6 248.44 138.38 239.85 133.43"/>
                          <polygon class="cls-16" points="307.87 116.53 322.1 108.32 313.51 103.36 299.28 111.57 307.87 116.53"/>
                          <polygon class="cls-16" points="283.56 120.65 292.15 125.61 306.38 117.39 297.79 112.43 283.56 120.65"/>
                          <polygon class="cls-16" points="274.95 135.54 266.36 130.58 252.13 138.8 260.72 143.76 274.95 135.54"/>
                          <polygon class="cls-16" points="250.64 139.66 236.41 147.87 245 152.83 259.23 144.61 250.64 139.66"/>
                          <polygon class="cls-7" points="329.45 128.99 343.68 120.78 324.3 109.59 310.07 117.8 329.45 128.99"/>
                          <polygon class="cls-16" points="294.35 126.88 302.94 131.84 317.17 123.62 308.58 118.66 294.35 126.88"/>
                          <polygon class="cls-7" points="278.63 135.95 287.22 140.91 301.46 132.7 292.87 127.74 278.63 135.95"/>
                          <polygon class="cls-15" points="285.74 141.77 277.15 136.81 262.92 145.03 271.51 149.99 285.74 141.77"/>
                          <polygon class="cls-7" points="261.43 145.89 247.2 154.1 255.79 159.06 270.02 150.84 261.43 145.89"/>
                          <polygon class="cls-16" points="305.14 133.11 313.73 138.07 327.96 129.85 319.37 124.89 305.14 133.11"/>
                          <polygon class="cls-15" points="312.25 138.93 303.66 133.97 273.71 151.26 282.3 156.22 312.25 138.93"/>
                          <polygon class="cls-16" points="272.22 152.12 257.99 160.33 268.78 166.56 268.78 166.56 277.37 171.52 291.6 163.3 272.22 152.12"/>
                          <polygon class="cls-15" points="340.24 135.22 354.47 127.01 345.88 122.05 331.65 130.26 340.24 135.22"/>
                          <polygon class="cls-7" points="315.93 139.34 324.52 144.3 338.76 136.08 330.17 131.12 315.93 139.34"/>
                          <polygon class="cls-16" points="300.22 148.41 308.81 153.37 323.04 145.16 314.45 140.2 300.22 148.41"/>
                          <polygon class="cls-7" points="307.32 154.23 298.73 149.27 284.5 157.49 293.09 162.45 307.32 154.23"/>
                        </g>
                      </g>
                    </g>
                  </g>
                </g>
                <g class="cls-19">
                  <g>
                    <g>
                      <polygon class="cls-10" points="-67.7 66.09 -132.59 28.62 -53.69 -16.93 11.2 20.53 -67.7 66.09"/>
                      <polygon class="cls-15" points="-4.92 28.61 9.32 20.4 .73 15.44 -13.51 23.65 -4.92 28.61"/>
                    </g>
                    <g>
                      <polygon class="cls-10" points="-2.82 103.55 -67.7 66.09 11.2 20.53 76.09 58 -2.82 103.55"/>
                      <g>
                        <polygon class="cls-16" points="20.25 26.71 11.66 21.75 -4.06 30.82 -4.06 30.82 -18.29 39.04 -9.7 44 20.25 26.71"/>
                        <polygon class="cls-15" points="16.81 41.16 31.04 32.94 22.45 27.98 8.22 36.2 16.81 41.16"/>
                        <polygon class="cls-7" points="-7.5 45.27 1.09 50.23 15.32 42.01 6.73 37.05 -7.5 45.27"/>
                        <polygon class="cls-16" points="-23.22 54.35 -3.84 65.54 10.4 57.32 -8.98 46.13 -23.22 54.35"/>
                        <polygon class="cls-16" points="27.6 47.39 41.83 39.17 33.24 34.21 19.01 42.43 27.6 47.39"/>
                        <polygon class="cls-16" points="3.29 51.5 11.88 56.46 26.11 48.24 17.52 43.28 3.29 51.5"/>
                        <polygon class="cls-7" points="49.18 59.85 63.41 51.63 44.03 40.44 29.8 48.66 49.18 59.85"/>
                        <polygon class="cls-16" points="14.08 57.73 22.67 62.69 36.91 54.47 28.31 49.51 14.08 57.73"/>
                        <polygon class="cls-7" points="-1.63 66.81 6.95 71.77 21.19 63.55 12.6 58.59 -1.63 66.81"/>
                        <polygon class="cls-15" points="5.47 72.62 -3.12 67.66 -17.35 75.88 -8.76 80.84 5.47 72.62"/>
                        <polygon class="cls-16" points="24.87 63.96 33.46 68.92 47.7 60.7 39.11 55.74 24.87 63.96"/>
                        <polygon class="cls-15" points="31.98 69.78 23.39 64.82 -6.56 82.11 2.03 87.07 31.98 69.78"/>
                        <polygon class="cls-16" points="-8.05 82.97 -22.28 91.19 -11.49 97.42 -11.49 97.42 -2.9 102.38 11.33 94.16 -8.05 82.97"/>
                        <polygon class="cls-15" points="59.97 66.08 74.2 57.86 65.61 52.9 51.38 61.12 59.97 66.08"/>
                        <polygon class="cls-7" points="35.66 70.19 44.25 75.15 58.49 66.93 49.9 61.98 35.66 70.19"/>
                        <polygon class="cls-16" points="19.95 79.27 28.54 84.23 42.77 76.01 34.18 71.05 19.95 79.27"/>
                        <polygon class="cls-7" points="27.05 85.08 18.46 80.12 4.23 88.34 12.82 93.3 27.05 85.08"/>
                      </g>
                    </g>
                  </g>
                  <g>
                    <g>
                      <polygon class="cls-10" points="17.19 22.25 -47.7 -15.21 31.21 -60.77 96.09 -23.3 17.19 22.25"/>
                      <g>
                        <polygon class="cls-7" points="1.17 -4.56 -13.06 3.66 -4.47 8.62 9.76 .4 1.17 -4.56"/>
                        <polygon class="cls-15" points="51.98 -11.52 43.39 -16.48 13.44 .81 22.03 5.77 51.98 -11.52"/>
                        <polygon class="cls-16" points="11.96 1.67 -2.27 9.89 8.52 16.12 8.52 16.12 17.11 21.08 31.34 12.86 11.96 1.67"/>
                        <polygon class="cls-16" points="39.95 -2.03 48.54 2.93 62.77 -5.29 54.18 -10.25 39.95 -2.03"/>
                        <polygon class="cls-7" points="47.06 3.78 38.47 -1.17 24.24 7.04 32.82 12 47.06 3.78"/>
                      </g>
                    </g>
                    <g>
                      <g>
                        <polygon class="cls-10" points="160.98 14.16 96.09 -23.3 175 -68.86 239.89 -31.39 160.98 14.16"/>
                        <g>
                          <polygon class="cls-7" points="144.96 -12.65 130.73 -4.44 139.32 .52 153.55 -7.69 144.96 -12.65"/>
                          <polygon class="cls-16" points="155.75 -6.42 141.52 1.8 152.31 8.03 152.31 8.03 160.9 12.98 175.13 4.77 155.75 -6.42"/>
                          <polygon class="cls-7" points="190.85 -4.31 182.26 -9.27 168.03 -1.05 176.62 3.91 190.85 -4.31"/>
                        </g>
                      </g>
                      <g>
                        <polygon class="cls-10" points="82.08 59.72 17.19 22.25 96.09 -23.3 160.98 14.16 82.08 59.72"/>
                        <g>
                          <polygon class="cls-16" points="105.14 -17.13 96.55 -22.09 80.84 -13.01 80.84 -13.01 66.6 -4.79 75.19 .16 105.14 -17.13"/>
                          <polygon class="cls-7" points="73.71 1.02 65.12 -3.94 50.89 4.28 59.48 9.24 73.71 1.02"/>
                          <polygon class="cls-15" points="57.99 10.1 49.4 5.14 35.17 13.36 43.76 18.31 57.99 10.1"/>
                          <polygon class="cls-7" points="77.4 1.44 85.99 6.4 100.22 -1.82 91.63 -6.78 77.4 1.44"/>
                          <polygon class="cls-16" points="61.68 10.51 81.06 21.7 95.29 13.48 75.91 2.29 61.68 10.51"/>
                          <polygon class="cls-7" points="45.96 19.59 54.55 24.54 68.78 16.33 60.19 11.37 45.96 19.59"/>
                          <polygon class="cls-15" points="44.47 20.44 44.47 20.44 33.68 14.21 19.45 22.43 30.24 28.66 30.24 28.66 38.83 33.62 53.06 25.4 44.47 20.44"/>
                          <polygon class="cls-16" points="112.49 3.55 126.73 -4.67 118.14 -9.63 103.9 -1.41 112.49 3.55"/>
                          <polygon class="cls-16" points="88.19 7.67 96.78 12.63 111.01 4.41 102.42 -.55 88.19 7.67"/>
                          <polygon class="cls-16" points="79.57 22.56 70.98 17.6 56.75 25.82 65.34 30.77 79.57 22.56"/>
                          <polygon class="cls-16" points="55.26 26.67 41.03 34.89 49.62 39.85 63.85 31.63 55.26 26.67"/>
                          <polygon class="cls-7" points="134.08 16.01 148.31 7.79 128.93 -3.4 114.7 4.82 134.08 16.01"/>
                          <polygon class="cls-16" points="98.98 13.9 107.57 18.86 121.8 10.64 113.21 5.68 98.98 13.9"/>
                          <polygon class="cls-7" points="83.26 22.97 91.85 27.93 106.08 19.71 97.49 14.75 83.26 22.97"/>
                          <polygon class="cls-15" points="90.36 28.79 81.77 23.83 67.54 32.05 76.13 37 90.36 28.79"/>
                          <polygon class="cls-7" points="66.06 32.9 51.82 41.12 60.41 46.08 74.65 37.86 66.06 32.9"/>
                          <polygon class="cls-16" points="109.77 20.13 118.36 25.09 132.59 16.87 124 11.91 109.77 20.13"/>
                          <polygon class="cls-15" points="116.87 25.94 108.28 20.98 78.33 38.28 86.92 43.23 116.87 25.94"/>
                          <polygon class="cls-16" points="76.85 39.13 62.61 47.35 73.41 53.58 73.41 53.58 82 58.54 96.23 50.32 76.85 39.13"/>
                          <polygon class="cls-15" points="144.87 22.24 159.1 14.02 150.51 9.06 136.28 17.28 144.87 22.24"/>
                          <polygon class="cls-7" points="120.56 26.36 129.15 31.32 143.38 23.1 134.79 18.14 120.56 26.36"/>
                          <polygon class="cls-16" points="104.84 35.43 113.43 40.39 127.66 32.17 119.07 27.21 104.84 35.43"/>
                          <polygon class="cls-7" points="111.94 41.25 103.35 36.29 89.12 44.51 97.71 49.46 111.94 41.25"/>
                        </g>
                      </g>
                    </g>
                  </g>
                </g>
                <g class="cls-19">
                  <g>
                    <polygon class="cls-10" points="296.5 .76 231.62 -36.7 310.52 -82.26 375.41 -44.79 296.5 .76"/>
                    <g>
                      <polygon class="cls-10" points="361.39 38.22 296.5 .76 375.41 -44.79 440.3 -7.33 361.39 38.22"/>
                      <g>
                        <polygon class="cls-16" points="340.99 -10.98 360.37 .21 374.6 -8.01 355.22 -19.2 340.99 -10.98"/>
                        <polygon class="cls-7" points="325.27 -1.91 333.86 3.05 348.09 -5.16 339.5 -10.12 325.27 -1.91"/>
                        <polygon class="cls-15" points="323.79 -1.05 323.79 -1.05 313 -7.28 298.76 .94 309.56 7.17 309.56 7.17 318.15 12.13 332.38 3.91 323.79 -1.05"/>
                        <polygon class="cls-16" points="358.89 1.07 350.3 -3.89 336.06 4.32 344.65 9.28 358.89 1.07"/>
                        <polygon class="cls-16" points="334.58 5.18 320.35 13.4 328.94 18.36 343.17 10.14 334.58 5.18"/>
                        <polygon class="cls-7" points="362.57 1.48 371.16 6.44 385.39 -1.78 376.8 -6.74 362.57 1.48"/>
                        <polygon class="cls-15" points="369.68 7.3 361.09 2.34 346.85 10.55 355.44 15.51 369.68 7.3"/>
                        <polygon class="cls-7" points="345.37 11.41 331.14 19.63 339.73 24.59 353.96 16.37 345.37 11.41"/>
                        <polygon class="cls-16" points="389.08 -1.36 397.67 3.59 411.9 -4.62 403.31 -9.58 389.08 -1.36"/>
                        <polygon class="cls-15" points="396.18 4.45 387.6 -.51 357.65 16.78 366.24 21.74 396.18 4.45"/>
                        <polygon class="cls-16" points="356.16 17.64 341.93 25.86 352.72 32.09 352.72 32.09 361.31 37.05 375.54 28.83 356.16 17.64"/>
                        <polygon class="cls-15" points="424.18 .75 438.41 -7.47 429.82 -12.43 415.59 -4.21 424.18 .75"/>
                        <polygon class="cls-7" points="399.87 4.87 408.46 9.82 422.69 1.61 414.1 -3.35 399.87 4.87"/>
                        <polygon class="cls-16" points="384.15 13.94 392.74 18.9 406.98 10.68 398.39 5.72 384.15 13.94"/>
                        <polygon class="cls-7" points="391.26 19.76 382.67 14.8 368.44 23.01 377.03 27.97 391.26 19.76"/>
                      </g>
                    </g>
                    <g>
                      <polygon class="cls-10" points="426.28 75.69 361.39 38.22 440.3 -7.33 505.18 30.13 426.28 75.69"/>
                      <g>
                        <polygon class="cls-16" points="449.35 -1.15 440.76 -6.11 425.04 2.96 425.04 2.96 410.81 11.18 419.4 16.14 449.35 -1.15"/>
                        <polygon class="cls-7" points="417.91 17 409.32 12.04 395.09 20.25 403.68 25.21 417.91 17"/>
                        <polygon class="cls-15" points="402.19 26.07 393.6 21.11 379.37 29.33 387.96 34.29 402.19 26.07"/>
                        <polygon class="cls-15" points="445.9 13.29 460.14 5.08 451.55 .12 437.31 8.33 445.9 13.29"/>
                        <polygon class="cls-7" points="421.6 17.41 430.19 22.37 444.42 14.15 435.83 9.19 421.6 17.41"/>
                        <polygon class="cls-16" points="405.88 26.48 425.26 37.67 439.49 29.46 420.11 18.27 405.88 26.48"/>
                        <polygon class="cls-7" points="390.16 35.56 398.75 40.52 412.98 32.3 404.39 27.34 390.16 35.56"/>
                        <polygon class="cls-15" points="388.68 36.42 388.68 36.42 377.88 30.19 363.65 38.4 374.44 44.63 374.44 44.63 383.03 49.59 397.27 41.37 388.68 36.42"/>
                        <polygon class="cls-16" points="456.7 19.52 470.93 11.31 462.34 6.35 448.11 14.56 456.7 19.52"/>
                        <polygon class="cls-16" points="432.39 23.64 440.98 28.6 455.21 20.38 446.62 15.42 432.39 23.64"/>
                        <polygon class="cls-16" points="423.77 38.53 415.18 33.57 400.95 41.79 409.54 46.75 423.77 38.53"/>
                        <polygon class="cls-16" points="399.47 42.65 385.23 50.86 393.82 55.82 408.06 47.6 399.47 42.65"/>
                        <polygon class="cls-7" points="478.28 31.98 492.51 23.77 473.13 12.58 458.9 20.79 478.28 31.98"/>
                        <polygon class="cls-16" points="443.18 29.87 451.77 34.83 466 26.61 457.41 21.65 443.18 29.87"/>
                        <polygon class="cls-7" points="427.46 38.94 436.05 43.9 450.28 35.69 441.69 30.73 427.46 38.94"/>
                        <polygon class="cls-15" points="434.56 44.76 425.97 39.8 411.74 48.02 420.33 52.98 434.56 44.76"/>
                        <polygon class="cls-7" points="410.26 48.88 396.02 57.09 404.61 62.05 418.85 53.83 410.26 48.88"/>
                        <polygon class="cls-16" points="453.97 36.1 462.56 41.06 476.79 32.84 468.2 27.88 453.97 36.1"/>
                        <polygon class="cls-15" points="461.07 41.92 452.48 36.96 422.53 54.25 431.12 59.21 461.07 41.92"/>
                        <polygon class="cls-16" points="421.05 55.11 406.82 63.32 417.61 69.55 417.61 69.55 426.2 74.51 440.43 66.3 421.05 55.11"/>
                        <polygon class="cls-15" points="489.07 38.21 503.3 30 494.71 25.04 480.48 33.25 489.07 38.21"/>
                        <polygon class="cls-7" points="464.76 42.33 473.35 47.29 487.58 39.07 478.99 34.11 464.76 42.33"/>
                        <polygon class="cls-16" points="449.04 51.4 457.63 56.36 471.86 48.15 463.27 43.19 449.04 51.4"/>
                        <polygon class="cls-7" points="456.15 57.22 447.56 52.26 433.32 60.48 441.91 65.44 456.15 57.22"/>
                      </g>
                    </g>
                  </g>
                  <g>
                    <polygon class="cls-10" points="511.17 31.85 446.29 -5.61 525.19 -51.17 590.08 -13.7 511.17 31.85"/>
                    <g>
                      <polygon class="cls-15" points="473.57 -7.42 473.57 -7.42 462.78 -13.65 448.55 -5.43 459.34 .8 459.34 .8 467.93 5.76 482.16 -2.46 473.57 -7.42"/>
                      <polygon class="cls-16" points="508.67 -5.31 500.08 -10.27 485.85 -2.05 494.44 2.91 508.67 -5.31"/>
                      <polygon class="cls-16" points="484.36 -1.19 470.13 7.03 478.72 11.99 492.95 3.77 484.36 -1.19"/>
                      <polygon class="cls-15" points="519.46 .92 510.87 -4.04 496.64 4.18 505.23 9.14 519.46 .92"/>
                      <polygon class="cls-7" points="495.15 5.04 480.92 13.26 489.51 18.22 503.74 10 495.15 5.04"/>
                      <polygon class="cls-16" points="505.94 11.27 491.71 19.49 502.5 25.72 502.5 25.72 511.09 30.68 525.32 22.46 505.94 11.27"/>
                    </g>
                  </g>
                </g>
              </g>
              <g>
                <g class="cls-19">
                  <g>
                    <g>
                      <polygon class="cls-10" points="454.16 367.65 389.28 330.18 468.18 284.63 533.07 322.09 454.16 367.65"/>
                      <g>
                        <polygon class="cls-16" points="477.23 290.81 468.64 285.85 452.92 294.92 452.92 294.92 438.69 303.14 447.28 308.1 477.23 290.81"/>
                        <polygon class="cls-7" points="445.79 308.95 437.2 304 422.97 312.21 431.56 317.17 445.79 308.95"/>
                        <polygon class="cls-15" points="430.08 318.03 421.49 313.07 407.25 321.29 415.84 326.25 430.08 318.03"/>
                        <polygon class="cls-15" points="473.79 305.25 488.02 297.04 479.43 292.08 465.2 300.29 473.79 305.25"/>
                        <polygon class="cls-7" points="449.48 309.37 458.07 314.33 472.3 306.11 463.71 301.15 449.48 309.37"/>
                        <polygon class="cls-16" points="433.76 318.44 453.14 329.63 467.38 321.42 447.99 310.23 433.76 318.44"/>
                        <polygon class="cls-7" points="418.04 327.52 426.63 332.48 440.87 324.26 432.28 319.3 418.04 327.52"/>
                        <polygon class="cls-15" points="416.56 328.37 416.56 328.37 405.77 322.14 391.54 330.36 402.33 336.59 402.33 336.59 410.92 341.55 425.15 333.33 416.56 328.37"/>
                        <polygon class="cls-16" points="484.58 311.48 498.81 303.27 490.22 298.31 475.99 306.52 484.58 311.48"/>
                        <polygon class="cls-16" points="460.27 315.6 468.86 320.56 483.09 312.34 474.5 307.38 460.27 315.6"/>
                        <polygon class="cls-16" points="451.66 330.49 443.07 325.53 428.84 333.75 437.43 338.71 451.66 330.49"/>
                        <polygon class="cls-16" points="427.35 334.6 413.12 342.82 421.71 347.78 435.94 339.56 427.35 334.6"/>
                        <polygon class="cls-7" points="506.16 323.94 520.39 315.73 501.01 304.54 486.78 312.75 506.16 323.94"/>
                        <polygon class="cls-16" points="471.06 321.83 479.65 326.79 493.88 318.57 485.29 313.61 471.06 321.83"/>
                        <polygon class="cls-7" points="455.34 330.9 463.93 335.86 478.17 327.65 469.58 322.69 455.34 330.9"/>
                        <polygon class="cls-15" points="462.45 336.72 453.86 331.76 439.63 339.98 448.22 344.94 462.45 336.72"/>
                        <polygon class="cls-7" points="438.14 340.84 423.91 349.05 432.5 354.01 446.73 345.79 438.14 340.84"/>
                        <polygon class="cls-16" points="481.85 328.06 490.44 333.02 504.67 324.8 496.08 319.84 481.85 328.06"/>
                        <polygon class="cls-15" points="488.96 333.88 480.37 328.92 450.42 346.21 459.01 351.17 488.96 333.88"/>
                        <polygon class="cls-16" points="448.93 347.06 434.7 355.28 445.49 361.51 445.49 361.51 454.08 366.47 468.31 358.25 448.93 347.06"/>
                        <polygon class="cls-7" points="492.64 334.29 501.23 339.25 515.47 331.03 506.88 326.07 492.64 334.29"/>
                        <polygon class="cls-16" points="476.93 343.36 485.52 348.32 499.75 340.11 491.16 335.15 476.93 343.36"/>
                        <polygon class="cls-7" points="484.03 349.18 475.44 344.22 461.21 352.44 469.8 357.4 484.03 349.18"/>
                      </g>
                    </g>
                    <g>
                      <polygon class="cls-10" points="519.05 405.11 454.16 367.65 533.07 322.09 597.95 359.56 519.05 405.11"/>
                      <g>
                        <polygon class="cls-7" points="510.68 346.42 502.09 341.46 487.86 349.68 496.45 354.64 510.68 346.42"/>
                        <polygon class="cls-15" points="494.96 355.49 486.37 350.53 472.14 358.75 480.73 363.71 494.96 355.49"/>
                        <polygon class="cls-16" points="498.65 355.91 518.03 367.09 532.26 358.88 512.88 347.69 498.65 355.91"/>
                        <polygon class="cls-7" points="482.93 364.98 491.52 369.94 505.75 361.72 497.16 356.76 482.93 364.98"/>
                        <polygon class="cls-15" points="481.45 365.84 481.45 365.84 470.66 359.61 456.42 367.82 467.21 374.05 467.21 374.05 475.81 379.01 490.04 370.8 481.45 365.84"/>
                        <polygon class="cls-16" points="516.55 367.95 507.96 362.99 493.72 371.21 502.31 376.17 516.55 367.95"/>
                        <polygon class="cls-16" points="492.24 372.07 478.01 380.28 486.6 385.24 500.83 377.03 492.24 372.07"/>
                        <polygon class="cls-7" points="503.03 378.3 488.8 386.51 497.39 391.47 511.62 383.26 503.03 378.3"/>
                        <polygon class="cls-16" points="513.82 384.53 499.59 392.75 510.38 398.98 510.38 398.98 518.97 403.93 533.2 395.72 513.82 384.53"/>
                      </g>
                    </g>
                  </g>
                  <g>
                    <polygon class="cls-10" points="539.06 323.81 474.17 286.35 553.07 240.79 617.96 278.26 539.06 323.81"/>
                    <g>
                      <polygon class="cls-15" points="514.97 274.19 506.38 269.23 492.15 277.45 500.74 282.41 514.97 274.19"/>
                      <polygon class="cls-15" points="501.45 284.54 501.45 284.54 490.66 278.31 476.43 286.53 487.22 292.76 487.22 292.76 495.81 297.72 510.04 289.5 501.45 284.54"/>
                      <polygon class="cls-16" points="512.24 290.77 498.01 298.99 506.6 303.95 520.83 295.73 512.24 290.77"/>
                    </g>
                  </g>
                </g>
                <g class="cls-19">
                  <g>
                    <g>
                      <polygon class="cls-10" points="258.79 254.67 193.9 217.2 272.8 171.65 337.69 209.11 258.79 254.67"/>
                      <g>
                        <polygon class="cls-16" points="281.85 177.82 273.26 172.86 257.55 181.94 257.55 181.94 243.31 190.16 251.9 195.11 281.85 177.82"/>
                        <polygon class="cls-7" points="250.42 195.97 241.83 191.01 227.6 199.23 236.19 204.19 250.42 195.97"/>
                        <polygon class="cls-15" points="234.7 205.05 226.11 200.09 211.88 208.3 220.47 213.26 234.7 205.05"/>
                        <polygon class="cls-15" points="278.41 192.27 292.65 184.05 284.05 179.09 269.82 187.31 278.41 192.27"/>
                        <polygon class="cls-7" points="254.11 196.38 262.7 201.34 276.93 193.13 268.34 188.17 254.11 196.38"/>
                        <polygon class="cls-16" points="238.39 205.46 257.77 216.65 272 208.43 252.62 197.24 238.39 205.46"/>
                        <polygon class="cls-7" points="222.67 214.53 231.26 219.49 245.49 211.28 236.9 206.32 222.67 214.53"/>
                        <polygon class="cls-15" points="221.18 215.39 221.18 215.39 210.39 209.16 196.16 217.38 206.95 223.61 206.95 223.61 215.54 228.57 229.77 220.35 221.18 215.39"/>
                        <polygon class="cls-16" points="289.2 198.5 303.44 190.28 294.85 185.32 280.61 193.54 289.2 198.5"/>
                        <polygon class="cls-16" points="264.9 202.62 273.49 207.57 287.72 199.36 279.13 194.4 264.9 202.62"/>
                        <polygon class="cls-16" points="256.28 217.51 247.69 212.55 233.46 220.76 242.05 225.72 256.28 217.51"/>
                        <polygon class="cls-16" points="231.97 221.62 217.74 229.84 226.33 234.8 240.56 226.58 231.97 221.62"/>
                        <polygon class="cls-7" points="310.79 210.96 325.02 202.74 305.64 191.55 291.4 199.77 310.79 210.96"/>
                        <polygon class="cls-16" points="275.69 208.85 284.28 213.81 298.51 205.59 289.92 200.63 275.69 208.85"/>
                        <polygon class="cls-7" points="259.97 217.92 268.56 222.88 282.79 214.66 274.2 209.7 259.97 217.92"/>
                        <polygon class="cls-15" points="267.07 223.74 258.48 218.78 244.25 226.99 252.84 231.95 267.07 223.74"/>
                        <polygon class="cls-7" points="242.77 227.85 228.53 236.07 237.12 241.03 251.36 232.81 242.77 227.85"/>
                        <polygon class="cls-16" points="286.48 215.08 295.07 220.03 309.3 211.82 300.71 206.86 286.48 215.08"/>
                        <polygon class="cls-15" points="293.58 220.89 284.99 215.93 255.04 233.22 263.63 238.18 293.58 220.89"/>
                        <polygon class="cls-16" points="253.56 234.08 239.32 242.3 250.12 248.53 250.12 248.53 258.7 253.49 272.94 245.27 253.56 234.08"/>
                        <polygon class="cls-15" points="321.58 217.19 335.81 208.97 327.22 204.01 312.99 212.23 321.58 217.19"/>
                        <polygon class="cls-7" points="297.27 221.31 305.86 226.26 320.09 218.05 311.5 213.09 297.27 221.31"/>
                        <polygon class="cls-16" points="281.55 230.38 290.14 235.34 304.37 227.12 295.78 222.16 281.55 230.38"/>
                        <polygon class="cls-7" points="288.65 236.2 280.06 231.24 265.83 239.45 274.42 244.41 288.65 236.2"/>
                      </g>
                    </g>
                    <g>
                      <polygon class="cls-10" points="323.68 292.13 258.79 254.67 337.69 209.11 402.58 246.57 323.68 292.13"/>
                      <g>
                        <polygon class="cls-16" points="346.74 215.29 338.15 210.33 322.43 219.4 322.43 219.4 308.2 227.62 316.79 232.58 346.74 215.29"/>
                        <polygon class="cls-7" points="315.31 233.44 306.72 228.48 292.48 236.69 301.07 241.65 315.31 233.44"/>
                        <polygon class="cls-15" points="299.59 242.51 291 237.55 276.77 245.77 285.36 250.73 299.59 242.51"/>
                        <polygon class="cls-15" points="343.3 229.73 357.53 221.52 348.94 216.56 334.71 224.77 343.3 229.73"/>
                        <polygon class="cls-7" points="318.99 233.85 327.58 238.81 341.82 230.59 333.22 225.63 318.99 233.85"/>
                        <polygon class="cls-16" points="303.28 242.92 322.66 254.11 336.89 245.9 317.51 234.71 303.28 242.92"/>
                        <polygon class="cls-7" points="287.56 252 296.15 256.96 310.38 248.74 301.79 243.78 287.56 252"/>
                        <polygon class="cls-15" points="286.07 252.86 286.07 252.86 275.28 246.63 261.05 254.84 271.84 261.07 271.84 261.07 280.43 266.03 294.66 257.82 286.07 252.86"/>
                        <polygon class="cls-16" points="354.09 235.96 368.32 227.75 359.73 222.79 345.5 231 354.09 235.96"/>
                        <polygon class="cls-16" points="329.78 240.08 338.37 245.04 352.61 236.82 344.02 231.86 329.78 240.08"/>
                        <polygon class="cls-16" points="321.17 254.97 312.58 250.01 298.35 258.23 306.94 263.19 321.17 254.97"/>
                        <polygon class="cls-16" points="296.86 259.09 282.63 267.3 291.22 272.26 305.45 264.05 296.86 259.09"/>
                        <polygon class="cls-7" points="375.67 248.42 389.91 240.21 370.52 229.02 356.29 237.23 375.67 248.42"/>
                        <polygon class="cls-16" points="340.58 246.31 349.17 251.27 363.4 243.05 354.81 238.09 340.58 246.31"/>
                        <polygon class="cls-7" points="324.86 255.38 333.45 260.34 347.68 252.13 339.09 247.17 324.86 255.38"/>
                        <polygon class="cls-15" points="331.96 261.2 323.37 256.24 309.14 264.46 317.73 269.42 331.96 261.2"/>
                        <polygon class="cls-7" points="307.65 265.32 293.42 273.53 302.01 278.49 316.24 270.28 307.65 265.32"/>
                        <polygon class="cls-16" points="351.37 252.54 359.96 257.5 374.19 249.28 365.6 244.32 351.37 252.54"/>
                        <polygon class="cls-15" points="358.47 258.36 349.88 253.4 319.93 270.69 328.52 275.65 358.47 258.36"/>
                        <polygon class="cls-16" points="318.44 271.55 304.21 279.76 315 285.99 315 285.99 323.59 290.95 337.82 282.74 318.44 271.55"/>
                        <polygon class="cls-15" points="386.46 254.65 400.7 246.44 392.11 241.48 377.87 249.69 386.46 254.65"/>
                        <polygon class="cls-7" points="362.16 258.77 370.75 263.73 384.98 255.51 376.39 250.55 362.16 258.77"/>
                        <polygon class="cls-16" points="346.44 267.84 355.03 272.8 369.26 264.59 360.67 259.63 346.44 267.84"/>
                        <polygon class="cls-7" points="353.54 273.66 344.95 268.7 330.72 276.92 339.31 281.88 353.54 273.66"/>
                      </g>
                    </g>
                    <g>
                      <polygon class="cls-10" points="388.56 329.59 323.68 292.13 402.58 246.57 467.47 284.04 388.56 329.59"/>
                      <g>
                        <polygon class="cls-16" points="411.63 252.75 403.04 247.79 387.32 256.87 387.32 256.87 373.09 265.08 381.68 270.04 411.63 252.75"/>
                        <polygon class="cls-7" points="380.19 270.9 371.6 265.94 357.37 274.16 365.96 279.12 380.19 270.9"/>
                        <polygon class="cls-15" points="364.48 279.97 355.89 275.01 341.65 283.23 350.24 288.19 364.48 279.97"/>
                        <polygon class="cls-15" points="408.19 267.2 422.42 258.98 413.83 254.02 399.6 262.24 408.19 267.2"/>
                        <polygon class="cls-7" points="383.88 271.31 392.47 276.27 406.7 268.05 398.11 263.1 383.88 271.31"/>
                        <polygon class="cls-16" points="368.16 280.39 387.54 291.58 401.78 283.36 382.4 272.17 368.16 280.39"/>
                        <polygon class="cls-7" points="352.44 289.46 361.04 294.42 375.27 286.2 366.68 281.24 352.44 289.46"/>
                        <polygon class="cls-15" points="350.96 290.32 350.96 290.32 340.17 284.09 325.94 292.31 336.73 298.54 336.73 298.54 345.32 303.5 359.55 295.28 350.96 290.32"/>
                        <polygon class="cls-16" points="418.98 273.43 433.21 265.21 424.62 260.25 410.39 268.47 418.98 273.43"/>
                        <polygon class="cls-16" points="394.67 277.54 403.26 282.5 417.49 274.29 408.9 269.32 394.67 277.54"/>
                        <polygon class="cls-16" points="386.06 292.43 377.47 287.47 363.24 295.69 371.83 300.65 386.06 292.43"/>
                        <polygon class="cls-16" points="361.75 296.55 347.52 304.77 356.11 309.73 370.34 301.51 361.75 296.55"/>
                        <polygon class="cls-7" points="440.56 285.89 454.79 277.67 435.41 266.48 421.18 274.7 440.56 285.89"/>
                        <polygon class="cls-16" points="405.46 283.77 414.05 288.73 428.28 280.51 419.69 275.56 405.46 283.77"/>
                        <polygon class="cls-7" points="389.74 292.85 398.33 297.81 412.57 289.59 403.98 284.63 389.74 292.85"/>
                        <polygon class="cls-15" points="396.85 298.66 388.26 293.7 374.03 301.92 382.62 306.88 396.85 298.66"/>
                        <polygon class="cls-7" points="372.54 302.78 358.31 311 366.9 315.96 381.13 307.74 372.54 302.78"/>
                        <polygon class="cls-16" points="416.25 290 424.84 294.96 439.08 286.74 430.49 281.79 416.25 290"/>
                        <polygon class="cls-15" points="423.36 295.82 414.77 290.86 384.82 308.15 393.41 313.11 423.36 295.82"/>
                        <polygon class="cls-16" points="383.33 309.01 369.1 317.23 379.89 323.46 379.89 323.46 388.48 328.42 402.71 320.2 383.33 309.01"/>
                        <polygon class="cls-15" points="451.35 292.12 465.58 283.9 456.99 278.94 442.76 287.16 451.35 292.12"/>
                        <polygon class="cls-7" points="427.04 296.23 435.63 301.19 449.87 292.98 441.28 288.02 427.04 296.23"/>
                        <polygon class="cls-16" points="411.33 305.31 419.92 310.27 434.15 302.05 425.56 297.09 411.33 305.31"/>
                        <polygon class="cls-7" points="418.43 311.12 409.84 306.16 395.61 314.38 404.2 319.34 418.43 311.12"/>
                      </g>
                    </g>
                  </g>
                  <g>
                    <g>
                      <g>
                        <polygon class="cls-10" points="422.59 165.27 357.7 127.81 436.6 82.26 501.49 119.72 422.59 165.27"/>
                        <g>
                          <polygon class="cls-16" points="445.65 88.43 437.06 83.47 421.34 92.55 421.34 92.55 407.11 100.76 415.7 105.72 445.65 88.43"/>
                          <polygon class="cls-7" points="414.22 106.58 405.63 101.62 391.39 109.84 399.98 114.8 414.22 106.58"/>
                          <polygon class="cls-15" points="398.5 115.66 389.91 110.7 375.68 118.91 384.27 123.87 398.5 115.66"/>
                          <polygon class="cls-15" points="442.21 102.88 456.44 94.66 447.85 89.7 433.62 97.92 442.21 102.88"/>
                          <polygon class="cls-7" points="417.9 106.99 426.49 111.95 440.72 103.74 432.13 98.78 417.9 106.99"/>
                          <polygon class="cls-16" points="402.19 116.07 421.57 127.26 435.8 119.04 416.42 107.85 402.19 116.07"/>
                          <polygon class="cls-7" points="386.47 125.14 395.06 130.1 409.29 121.89 400.7 116.93 386.47 125.14"/>
                          <polygon class="cls-15" points="384.98 126 384.98 126 374.19 119.77 359.96 127.99 370.75 134.22 370.75 134.22 379.34 139.18 393.57 130.96 384.98 126"/>
                          <polygon class="cls-16" points="453 109.11 467.23 100.89 458.64 95.93 444.41 104.15 453 109.11"/>
                          <polygon class="cls-16" points="428.69 113.22 437.28 118.18 451.52 109.97 442.93 105.01 428.69 113.22"/>
                          <polygon class="cls-16" points="420.08 128.12 411.49 123.16 397.26 131.37 405.85 136.33 420.08 128.12"/>
                          <polygon class="cls-16" points="395.77 132.23 381.54 140.45 390.13 145.41 404.36 137.19 395.77 132.23"/>
                          <polygon class="cls-7" points="474.58 121.57 488.81 113.35 469.43 102.16 455.2 110.38 474.58 121.57"/>
                          <polygon class="cls-16" points="439.48 119.45 448.07 124.41 462.31 116.2 453.72 111.24 439.48 119.45"/>
                          <polygon class="cls-7" points="423.77 128.53 432.36 133.49 446.59 125.27 438 120.31 423.77 128.53"/>
                          <polygon class="cls-15" points="430.87 134.35 422.28 129.39 408.05 137.6 416.64 142.56 430.87 134.35"/>
                          <polygon class="cls-7" points="406.56 138.46 392.33 146.68 400.92 151.64 415.15 143.42 406.56 138.46"/>
                          <polygon class="cls-16" points="450.28 125.68 458.87 130.64 473.1 122.43 464.51 117.47 450.28 125.68"/>
                          <polygon class="cls-15" points="457.38 131.5 448.79 126.54 418.84 143.83 427.43 148.79 457.38 131.5"/>
                          <polygon class="cls-16" points="417.35 144.69 403.12 152.91 413.91 159.14 413.91 159.14 422.5 164.1 436.73 155.88 417.35 144.69"/>
                          <polygon class="cls-15" points="485.37 127.8 499.61 119.58 491.02 114.62 476.78 122.84 485.37 127.8"/>
                          <polygon class="cls-7" points="461.07 131.91 469.66 136.87 483.89 128.66 475.3 123.7 461.07 131.91"/>
                          <polygon class="cls-16" points="445.35 140.99 453.94 145.95 468.17 137.73 459.58 132.77 445.35 140.99"/>
                          <polygon class="cls-7" points="452.45 146.81 443.86 141.85 429.63 150.06 438.22 155.02 452.45 146.81"/>
                        </g>
                      </g>
                      <g>
                        <polygon class="cls-10" points="343.68 210.83 278.79 173.37 357.7 127.81 422.59 165.27 343.68 210.83"/>
                        <g>
                          <polygon class="cls-16" points="366.75 133.99 358.16 129.03 342.44 138.1 342.44 138.1 328.21 146.32 336.8 151.28 366.75 133.99"/>
                          <polygon class="cls-7" points="335.31 152.14 326.72 147.18 312.49 155.39 321.08 160.35 335.31 152.14"/>
                          <polygon class="cls-15" points="319.6 161.21 311 156.25 296.77 164.47 305.36 169.43 319.6 161.21"/>
                          <polygon class="cls-15" points="363.31 148.43 377.54 140.22 368.95 135.26 354.72 143.47 363.31 148.43"/>
                          <polygon class="cls-7" points="339 152.55 347.59 157.51 361.82 149.29 353.23 144.33 339 152.55"/>
                          <polygon class="cls-16" points="323.28 161.62 342.66 172.81 356.89 164.6 337.51 153.41 323.28 161.62"/>
                          <polygon class="cls-7" points="307.56 170.7 316.15 175.66 330.39 167.44 321.8 162.48 307.56 170.7"/>
                          <polygon class="cls-15" points="306.08 171.56 306.08 171.56 295.29 165.33 281.05 173.54 291.85 179.77 291.85 179.77 300.44 184.73 314.67 176.52 306.08 171.56"/>
                          <polygon class="cls-16" points="374.1 154.66 388.33 146.45 379.74 141.49 365.51 149.7 374.1 154.66"/>
                          <polygon class="cls-16" points="349.79 158.78 358.38 163.74 372.61 155.52 364.02 150.56 349.79 158.78"/>
                          <polygon class="cls-16" points="341.18 173.67 332.59 168.71 318.35 176.93 326.94 181.89 341.18 173.67"/>
                          <polygon class="cls-16" points="316.87 177.79 302.64 186 311.23 190.96 325.46 182.75 316.87 177.79"/>
                          <polygon class="cls-7" points="395.68 167.12 409.91 158.91 390.53 147.72 376.3 155.93 395.68 167.12"/>
                          <polygon class="cls-16" points="360.58 165.01 369.17 169.97 383.4 161.75 374.81 156.79 360.58 165.01"/>
                          <polygon class="cls-7" points="344.86 174.08 353.45 179.04 367.69 170.83 359.1 165.87 344.86 174.08"/>
                          <polygon class="cls-15" points="351.97 179.9 343.38 174.94 329.15 183.16 337.73 188.12 351.97 179.9"/>
                          <polygon class="cls-7" points="327.66 184.02 313.43 192.23 322.02 197.19 336.25 188.98 327.66 184.02"/>
                          <polygon class="cls-16" points="371.37 171.24 379.96 176.2 394.19 167.98 385.6 163.02 371.37 171.24"/>
                          <polygon class="cls-15" points="378.48 177.06 369.89 172.1 339.94 189.39 348.53 194.35 378.48 177.06"/>
                          <polygon class="cls-16" points="338.45 190.25 324.22 198.46 335.01 204.69 335.01 204.69 343.6 209.65 357.83 201.44 338.45 190.25"/>
                          <polygon class="cls-15" points="406.47 173.35 420.7 165.14 412.11 160.18 397.88 168.39 406.47 173.35"/>
                          <polygon class="cls-7" points="382.16 177.47 390.75 182.43 404.98 174.21 396.39 169.25 382.16 177.47"/>
                          <polygon class="cls-16" points="366.44 186.54 375.03 191.5 389.27 183.29 380.68 178.33 366.44 186.54"/>
                          <polygon class="cls-7" points="373.55 192.36 364.96 187.4 350.73 195.62 359.32 200.58 373.55 192.36"/>
                        </g>
                      </g>
                    </g>
                    <g>
                      <g>
                        <polygon class="cls-10" points="487.47 202.74 422.59 165.27 501.49 119.72 566.38 157.18 487.47 202.74"/>
                        <g>
                          <polygon class="cls-16" points="510.54 125.9 501.95 120.94 486.23 130.01 486.23 130.01 472 138.23 480.59 143.19 510.54 125.9"/>
                          <polygon class="cls-7" points="479.1 144.04 470.51 139.09 456.28 147.3 464.87 152.26 479.1 144.04"/>
                          <polygon class="cls-15" points="463.39 153.12 454.8 148.16 440.56 156.38 449.15 161.34 463.39 153.12"/>
                          <polygon class="cls-15" points="507.1 140.34 521.33 132.13 512.74 127.17 498.51 135.38 507.1 140.34"/>
                          <polygon class="cls-7" points="482.79 144.46 491.38 149.42 505.61 141.2 497.02 136.24 482.79 144.46"/>
                          <polygon class="cls-16" points="467.07 153.53 486.45 164.72 500.69 156.51 481.31 145.32 467.07 153.53"/>
                          <polygon class="cls-7" points="451.35 162.61 459.95 167.57 474.18 159.35 465.59 154.39 451.35 162.61"/>
                          <polygon class="cls-15" points="449.87 163.47 449.87 163.47 439.08 157.24 424.85 165.45 435.64 171.68 435.64 171.68 444.23 176.64 458.46 168.42 449.87 163.47"/>
                          <polygon class="cls-16" points="493.58 150.69 502.17 155.65 516.4 147.43 507.81 142.47 493.58 150.69"/>
                          <polygon class="cls-16" points="484.97 165.58 476.38 160.62 462.15 168.84 470.74 173.8 484.97 165.58"/>
                          <polygon class="cls-16" points="460.66 169.7 446.43 177.91 455.02 182.87 469.25 174.65 460.66 169.7"/>
                          <polygon class="cls-7" points="488.65 165.99 497.24 170.95 511.48 162.74 502.89 157.78 488.65 165.99"/>
                          <polygon class="cls-15" points="495.76 171.81 487.17 166.85 472.94 175.07 481.53 180.03 495.76 171.81"/>
                          <polygon class="cls-7" points="471.45 175.93 457.22 184.14 465.81 189.1 480.04 180.88 471.45 175.93"/>
                          <polygon class="cls-15" points="522.27 168.97 513.68 164.01 483.73 181.3 492.32 186.26 522.27 168.97"/>
                          <polygon class="cls-16" points="482.24 182.16 468.01 190.37 478.8 196.6 478.8 196.6 487.39 201.56 501.62 193.34 482.24 182.16"/>
                          <polygon class="cls-7" points="517.34 184.27 508.75 179.31 494.52 187.53 503.11 192.49 517.34 184.27"/>
                        </g>
                      </g>
                      <g>
                        <polygon class="cls-10" points="408.57 248.29 343.68 210.83 422.59 165.27 487.47 202.74 408.57 248.29"/>
                        <g>
                          <polygon class="cls-16" points="431.64 171.45 423.05 166.49 407.33 175.57 407.33 175.57 393.1 183.78 401.69 188.74 431.64 171.45"/>
                          <polygon class="cls-7" points="400.2 189.6 391.61 184.64 377.38 192.86 385.97 197.82 400.2 189.6"/>
                          <polygon class="cls-15" points="384.48 198.67 375.89 193.72 361.66 201.93 370.25 206.89 384.48 198.67"/>
                          <polygon class="cls-15" points="428.2 185.9 442.43 177.68 433.84 172.72 419.6 180.94 428.2 185.9"/>
                          <polygon class="cls-7" points="403.89 190.01 412.48 194.97 426.71 186.76 418.12 181.8 403.89 190.01"/>
                          <polygon class="cls-16" points="388.17 199.09 407.55 210.28 421.78 202.06 402.4 190.87 388.17 199.09"/>
                          <polygon class="cls-7" points="372.45 208.16 381.04 213.12 395.27 204.9 386.68 199.95 372.45 208.16"/>
                          <polygon class="cls-15" points="370.97 209.02 370.97 209.02 360.17 202.79 345.94 211.01 356.73 217.24 356.73 217.24 365.32 222.2 379.56 213.98 370.97 209.02"/>
                          <polygon class="cls-16" points="438.99 192.13 453.22 183.91 444.63 178.95 430.4 187.17 438.99 192.13"/>
                          <polygon class="cls-16" points="414.68 196.24 423.27 201.2 437.5 192.99 428.91 188.03 414.68 196.24"/>
                          <polygon class="cls-16" points="406.06 211.14 397.47 206.18 383.24 214.39 391.83 219.35 406.06 211.14"/>
                          <polygon class="cls-16" points="381.76 215.25 367.52 223.47 376.11 228.43 390.35 220.21 381.76 215.25"/>
                          <polygon class="cls-7" points="460.57 204.59 474.8 196.37 455.42 185.18 441.19 193.4 460.57 204.59"/>
                          <polygon class="cls-16" points="425.47 202.47 434.06 207.43 448.29 199.22 439.7 194.26 425.47 202.47"/>
                          <polygon class="cls-7" points="409.75 211.55 418.34 216.51 432.57 208.29 423.98 203.33 409.75 211.55"/>
                          <polygon class="cls-15" points="416.85 217.37 408.26 212.4 394.03 220.62 402.62 225.58 416.85 217.37"/>
                          <polygon class="cls-7" points="392.55 221.48 378.32 229.7 386.91 234.66 401.14 226.44 392.55 221.48"/>
                          <polygon class="cls-16" points="436.26 208.7 444.85 213.66 459.08 205.45 450.49 200.49 436.26 208.7"/>
                          <polygon class="cls-15" points="443.36 214.52 434.77 209.56 404.82 226.85 413.41 231.81 443.36 214.52"/>
                          <polygon class="cls-16" points="403.34 227.71 389.11 235.93 399.9 242.16 399.9 242.16 408.49 247.12 422.72 238.9 403.34 227.71"/>
                          <polygon class="cls-15" points="471.36 210.82 485.59 202.6 477 197.64 462.77 205.86 471.36 210.82"/>
                          <polygon class="cls-7" points="447.05 214.93 455.64 219.89 469.87 211.68 461.28 206.72 447.05 214.93"/>
                          <polygon class="cls-16" points="431.33 224.01 439.92 228.97 454.15 220.75 445.56 215.79 431.33 224.01"/>
                          <polygon class="cls-7" points="438.44 229.83 429.85 224.87 415.62 233.08 424.2 238.04 438.44 229.83"/>
                        </g>
                      </g>
                    </g>
                    <g>
                      <g>
                        <polygon class="cls-10" points="552.36 240.2 487.47 202.74 566.38 157.18 631.27 194.65 552.36 240.2"/>
                        <polygon class="cls-15" points="514.76 200.93 514.76 200.93 503.97 194.7 489.73 202.92 500.53 209.15 500.53 209.15 509.12 214.1 523.35 205.89 514.76 200.93"/>
                      </g>
                      <g>
                        <polygon class="cls-10" points="473.46 285.76 408.57 248.29 487.47 202.74 552.36 240.2 473.46 285.76"/>
                        <g>
                          <polygon class="cls-16" points="496.52 208.91 487.93 203.95 472.22 213.03 472.22 213.03 457.98 221.25 466.57 226.21 496.52 208.91"/>
                          <polygon class="cls-7" points="465.09 227.06 456.5 222.1 442.27 230.32 450.86 235.28 465.09 227.06"/>
                          <polygon class="cls-15" points="449.37 236.14 440.78 231.18 426.55 239.4 435.14 244.35 449.37 236.14"/>
                          <polygon class="cls-15" points="493.08 223.36 507.31 215.14 498.72 210.18 484.49 218.4 493.08 223.36"/>
                          <polygon class="cls-7" points="468.78 227.48 477.37 232.44 491.6 224.22 483.01 219.26 468.78 227.48"/>
                          <polygon class="cls-16" points="453.06 236.55 472.44 247.74 486.67 239.52 467.29 228.33 453.06 236.55"/>
                          <polygon class="cls-7" points="437.34 245.63 445.93 250.59 460.16 242.37 451.57 237.41 437.34 245.63"/>
                          <polygon class="cls-15" points="435.85 246.48 435.85 246.48 425.06 240.25 410.83 248.47 421.62 254.7 421.62 254.7 430.21 259.66 444.44 251.44 435.85 246.48"/>
                          <polygon class="cls-16" points="503.87 229.59 518.11 221.37 509.52 216.41 495.28 224.63 503.87 229.59"/>
                          <polygon class="cls-16" points="479.57 233.71 488.16 238.67 502.39 230.45 493.8 225.49 479.57 233.71"/>
                          <polygon class="cls-16" points="470.95 248.6 462.36 243.64 448.13 251.86 456.72 256.81 470.95 248.6"/>
                          <polygon class="cls-16" points="446.64 252.71 432.41 260.93 441 265.89 455.23 257.67 446.64 252.71"/>
                          <polygon class="cls-16" points="490.36 239.94 498.95 244.9 513.18 236.68 504.59 231.72 490.36 239.94"/>
                          <polygon class="cls-7" points="474.64 249.01 483.23 253.97 497.46 245.75 488.87 240.79 474.64 249.01"/>
                          <polygon class="cls-15" points="481.74 254.83 473.15 249.87 458.92 258.09 467.51 263.05 481.74 254.83"/>
                          <polygon class="cls-7" points="457.44 258.94 443.2 267.16 451.79 272.12 466.03 263.9 457.44 258.94"/>
                          <polygon class="cls-15" points="508.25 251.98 499.66 247.02 469.71 264.32 478.3 269.28 508.25 251.98"/>
                          <polygon class="cls-16" points="468.23 265.17 453.99 273.39 464.78 279.62 464.78 279.62 473.38 284.58 487.61 276.36 468.23 265.17"/>
                          <polygon class="cls-16" points="496.22 261.47 504.81 266.43 519.04 258.21 510.45 253.25 496.22 261.47"/>
                          <polygon class="cls-7" points="503.32 267.29 494.73 262.33 480.5 270.55 489.09 275.51 503.32 267.29"/>
                        </g>
                      </g>
                    </g>
                  </g>
                </g>
                <g class="cls-19">
                  <g>
                    <g>
                      <polygon class="cls-10" points="492.51 113.82 427.62 76.36 506.52 30.8 571.41 68.26 492.51 113.82"/>
                      <g>
                        <polygon class="cls-16" points="515.57 36.98 506.98 32.02 491.27 41.09 491.27 41.09 477.03 49.31 485.62 54.27 515.57 36.98"/>
                        <polygon class="cls-7" points="484.14 55.13 475.55 50.17 461.32 58.38 469.91 63.34 484.14 55.13"/>
                        <polygon class="cls-15" points="468.42 64.2 459.83 59.24 445.6 67.46 454.19 72.42 468.42 64.2"/>
                        <polygon class="cls-7" points="487.83 55.54 496.42 60.5 510.65 52.28 502.06 47.32 487.83 55.54"/>
                        <polygon class="cls-16" points="472.11 64.61 491.49 75.8 505.72 67.59 486.34 56.4 472.11 64.61"/>
                        <polygon class="cls-7" points="456.39 73.69 464.98 78.65 479.21 70.43 470.62 65.47 456.39 73.69"/>
                        <polygon class="cls-15" points="454.9 74.55 454.9 74.55 444.11 68.32 429.88 76.53 440.67 82.76 440.67 82.76 449.26 87.72 463.49 79.51 454.9 74.55"/>
                        <polygon class="cls-16" points="498.62 61.77 507.21 66.73 521.44 58.51 512.85 53.55 498.62 61.77"/>
                        <polygon class="cls-16" points="490 76.66 481.41 71.7 467.18 79.92 475.77 84.88 490 76.66"/>
                        <polygon class="cls-16" points="465.69 80.78 451.46 88.99 460.05 93.95 474.28 85.74 465.69 80.78"/>
                        <polygon class="cls-7" points="493.69 77.07 502.28 82.03 516.51 73.82 507.92 68.86 493.69 77.07"/>
                        <polygon class="cls-15" points="500.79 82.89 492.2 77.93 477.97 86.15 486.56 91.11 500.79 82.89"/>
                        <polygon class="cls-7" points="476.49 87.01 462.25 95.22 470.84 100.18 485.08 91.97 476.49 87.01"/>
                        <polygon class="cls-15" points="527.3 80.05 518.71 75.09 488.76 92.38 497.35 97.34 527.3 80.05"/>
                        <polygon class="cls-16" points="487.28 93.24 473.04 101.45 483.84 107.68 483.84 107.68 492.42 112.64 506.66 104.43 487.28 93.24"/>
                        <polygon class="cls-7" points="522.37 95.35 513.79 90.39 499.55 98.61 508.14 103.57 522.37 95.35"/>
                      </g>
                    </g>
                    <g>
                      <polygon class="cls-10" points="557.4 151.28 492.51 113.82 571.41 68.26 636.3 105.73 557.4 151.28"/>
                      <polygon class="cls-15" points="519.79 112.01 519.79 112.01 509 105.78 494.77 114 505.56 120.23 505.56 120.23 514.15 125.19 528.38 116.97 519.79 112.01"/>
                    </g>
                  </g>
                </g>
              </g>
            </g>
          </g>
          <path class="cls-20" d="M-114.05-302.78l395.53-224.58c50.41-28.62,112.16-28.61,162.56.03l313.59,178.21,87.47-46.67c41.36-22.07,91.13-21.45,131.93,1.62l380.06,214.96,1.04,205.69H-114.05v-329.28Z"/>
        </g>
        <g>
          <path class="cls-2" d="M-657.14,187.04V-83.65l280.45-159.23c21.33-12.11,45.58-18.52,70.11-18.52s48.81,6.41,70.16,18.54L-42.31-132.54.54-155.4c17.84-9.52,37.95-14.55,58.17-14.55,21.28,0,42.32,5.54,60.84,16.01L389.62-1.19l.95,188.22H-657.14Z"/>
          <path class="cls-20" d="M-657.14,187.04V-83.65l280.45-159.23c21.33-12.11,45.58-18.52,70.11-18.52s48.81,6.41,70.16,18.54L-42.31-132.54.54-155.4c17.84-9.52,37.95-14.55,58.17-14.55,21.28,0,42.32,5.54,60.84,16.01L389.62-1.19l.95,188.22H-657.14Z"/>
        </g>
      </g>
    </g>
  </g>
</svg>