<?xml version="1.0" encoding="UTF-8"?>
<svg id="Layer_1" data-name="Layer 1" xmlns="http://www.w3.org/2000/svg" xmlns:xlink="http://www.w3.org/1999/xlink" viewBox="0 0 500 500">
  <defs>
    <style>
      .cls-1 {
        fill: url(#linear-gradient);
      }

      .cls-1, .cls-2, .cls-3, .cls-4, .cls-5, .cls-6, .cls-7, .cls-8, .cls-9, .cls-10 {
        stroke-width: 0px;
      }

      .cls-2 {
        fill: #262830;
      }

      .cls-3 {
        fill: url(#linear-gradient-5);
      }

      .cls-4 {
        fill: #ff6000;
      }

      .cls-5 {
        fill: #bfd0e2;
      }

      .cls-6 {
        fill: url(#linear-gradient-2);
      }

      .cls-7 {
        fill: url(#linear-gradient-3);
      }

      .cls-8 {
        fill: #32c7e8;
      }

      .cls-9 {
        fill: #fff;
      }

      .cls-10 {
        fill: url(#linear-gradient-4);
      }
    </style>
    <linearGradient id="linear-gradient" x1="152.38" y1="-23.23" x2="217.12" y2="242.27" gradientTransform="translate(17 161.13) rotate(-1.93)" gradientUnits="userSpaceOnUse">
      <stop offset="0" stop-color="#67cbeb"/>
      <stop offset="1" stop-color="#5070c9"/>
    </linearGradient>
    <linearGradient id="linear-gradient-2" x1="71.26" y1="78" x2="75.71" y2="192.27" gradientUnits="userSpaceOnUse">
      <stop offset="0" stop-color="#32c9ea"/>
      <stop offset="1" stop-color="#4671ca"/>
    </linearGradient>
    <linearGradient id="linear-gradient-3" x1="93.95" y1="77.12" x2="98.4" y2="191.38" xlink:href="#linear-gradient-2"/>
    <linearGradient id="linear-gradient-4" x1="116.84" y1="76.23" x2="121.29" y2="190.49" xlink:href="#linear-gradient-2"/>
    <linearGradient id="linear-gradient-5" x1="138.93" y1="75.37" x2="143.38" y2="189.63" xlink:href="#linear-gradient-2"/>
  </defs>
  <g>
    <g>
      <path class="cls-9" d="M335.49,286.53l37.9-12.1-9.72-14.39-49.32-73-11.31-16.73-2.06-3.05-11.59,3.7-.9-13.49c-.07-1.1.06-2.03.3-2.87l7.82-2.5h.03s-9.67-14.3-9.67-14.3l-2.17-3.2-9.45-13.99-3.18-4.7-6.26-9.26-66.84,21.34.43,25.59-29.41,3.75-62.22,41.29h0s0,0,0,0l25.02,8.3.11.6-42.01,13.41,65.73,97.28,26.95-8.83,5.22,73.86,31.55-10.07,25.76,38,66.76-21.29.08-.05-1.94-28.24,26.97-8.61,30.54-20.26,18.29-12.14,7.72-5.12-59.12-28.93ZM281.98,344.41l.17-.11.05.04-.22.07Z"/>
      <g>
        <path class="cls-5" d="M223.68,189.32s-.95-13.78.87-15.5c.46-.43,62.32-18,62.36-17.38s3.65,13.15,1.82,13.9-54.6,18.26-54.6,18.26l5.14,81.84-10.19,4.06-5.41-85.19Z"/>
        <path class="cls-5" d="M177.32,248.44c.72-.89-7.24-91.11-7.24-91.11,0,0,10.22-2.48,10.23-2.27s7.09,90.92,7.09,90.92l-10.09,2.46Z"/>
        <polygon class="cls-5" points="198.69 378.24 214.85 367.1 218.91 372.57 198.69 378.24"/>
        <path class="cls-5" d="M156.94,316.88s-4.39-13.34,5.06-15.82c7.59-1.99,20.33,7.93,20.33,7.93l-25.4,7.89Z"/>
        <path class="cls-5" d="M246.19,411.18c-.03-.47-5-72.85-5-72.85,0,0,17.03,6.76,21.01,11.18,9.79,10.84,9.02,24.81,9.02,24.81l39.87-12.73,1.86,28.29-66.76,21.29Z"/>
        <path class="cls-5" d="M277.6,371.15c.82-.27,50.18-34.35,50.18-34.35l61.41-17.74-51.13,33.92-60.46,18.17Z"/>
      </g>
      <path class="cls-2" d="M246.26,413.12c-.65.02-1.29-.29-1.67-.85l-24.94-36.8-30.17,9.63c-.57.18-1.18.09-1.68-.24-.49-.33-.8-.87-.85-1.47l-5.04-71.38-24.59,8.06c-.82.27-1.72-.04-2.21-.76l-65.73-97.28c-.34-.51-.42-1.14-.22-1.72.2-.58.66-1.03,1.24-1.21l37.21-11.88-20.35-6.75c-.7-.23-1.21-.85-1.31-1.58-.1-.73.23-1.46.85-1.87l62.22-41.29c.17-.11.35-.19.54-.25l28.89-8.24-1.31-19.1c-.06-.89.49-1.71,1.34-1.98l66.84-21.34c.82-.26,1.71.05,2.2.76l30.72,45.47c.49.73.43,1.7-.15,2.36-.31.35-.73.57-1.17.64l-6.47,2.07c-.05.4-.06.81-.03,1.24l.74,11.02,9.23-2.95c.81-.26,1.71.05,2.2.76l72.41,107.17c.34.51.42,1.14.22,1.72-.2.58-.66,1.03-1.24,1.21l-33.3,10.63,54.79,26.81c.62.3,1.04.92,1.08,1.61s-.28,1.36-.86,1.74l-56.55,37.52c-.15.1-.31.18-.48.23l-25.52,8.15,1.83,26.72c.05.7-.28,1.36-.86,1.75-.15.1-.39.23-.56.28l-66.76,21.29c-.17.05-.35.08-.52.09ZM220.37,371.24c.65-.02,1.29.29,1.67.85l24.94,36.8,64.01-20.41-1.84-26.75c-.06-.89.49-1.71,1.34-1.98l26.71-8.53,53.51-35.5-56.08-27.44c-.71-.35-1.14-1.09-1.08-1.88.06-.79.59-1.46,1.34-1.7l35.43-11.31-70.15-103.82-10.21,3.26c-.57.18-1.19.09-1.68-.24-.49-.34-.8-.88-.84-1.47l-.9-13.49c-.08-1.23.04-2.39.37-3.53.18-.62.66-1.11,1.27-1.31l5.37-1.71-28.45-42.1-64.01,20.44,1.31,19.15c.06.91-.52,1.75-1.4,2l-30.11,8.59-58.66,38.92,21.25,7.05c.68.23,1.18.8,1.3,1.5l.11.6c.17.95-.4,1.89-1.32,2.18l-39.54,12.63,63.46,93.92,25.56-8.37c.56-.19,1.19-.1,1.68.23.5.33.81.88.85,1.47l5.05,71.4,29.2-9.32c.17-.06.35-.09.52-.09ZM282.04,346.35c-.76.03-1.48-.39-1.82-1.11-.41-.87-.12-1.92.69-2.45l.17-.11c.74-.48,1.7-.41,2.35.17.52.46.77,1.19.63,1.87-.15.68-.62,1.25-1.29,1.46l-.22.07c-.17.05-.35.08-.52.09Z"/>
      <path class="cls-1" d="M199.06,127.99l-4.07,2.7-4.06,2.69-18.28,12.13h0c4.84,2.37,9.07,8.62,9.44,13.97l6.66,96.08,39.29,19.22-6.41-95.96c-.36-5.33,3.27-7.73,8.11-5.36h.03s-9.67-14.3-9.67-14.3l-2.17-3.2-9.45-13.99-4.72-6.98-4.71-6.98h0ZM234.13,188.6l6.33,92.25,40.25,19.7-.57-8.34c-.37-5.35,3.27-7.76,8.11-5.38l18.29,8.95-9.72-14.39-49.32-73-11.31-16.73-2.06-3.05h0ZM170.09,157.33l-1.77,1.17-9.71,6.45-42.38,28.12-8.36,5.54,18.29,8.95c4.85,2.37,9.07,8.63,9.44,13.97l.57,8.34,40.25,19.7-6.33-92.25h0ZM90.98,220.94l8.94,13.25,21.21,31.38,35.58,52.65-.45-6.51c-.64-9.28,5.67-13.47,14.09-9.35l13.27,6.49,5.09,74.14.17.26,8.12-5.39h.02s-.04-.06-.04-.06l18.32-12.16h.02s.03.04.03.04l21.01,31.08.3.44h-.02s.02.04.02.04l9.44,13.98.08-.05-5.09-74.21,13.27,6.49c8.42,4.12,15.76,14.98,16.4,24.27l.45,6.6,30.54-20.26,18.29-12.14,7.72-5.12-236.79-115.87Z"/>
      <path class="cls-2" d="M228.11,276.71c-.31.01-.63-.05-.92-.2l-39.29-19.22c-.62-.3-1.03-.92-1.08-1.61l-6.66-96.08c-.32-4.64-4.15-10.3-8.36-12.36-.62-.3-1.04-.92-1.08-1.61s.28-1.36.86-1.74l26.4-17.52c.89-.59,2.08-.35,2.68.53l30.72,45.47c.49.73.43,1.7-.15,2.36-.58.66-1.53.85-2.32.46-1.71-.84-3.2-.95-4.12-.34-.9.61-1.35,2-1.23,3.82l6.41,95.96c.05.69-.28,1.35-.85,1.74-.31.21-.66.32-1.01.33ZM190.62,254.3l35.27,17.26-6.18-92.62c-.22-3.28.82-5.87,2.94-7.29.86-.58,1.83-.92,2.88-1.02l-27-39.95-22.31,14.8c4.23,3.28,7.47,8.85,7.82,13.87l6.58,94.96Z"/>
      <path class="cls-2" d="M280.78,302.49c-.31.01-.63-.05-.92-.2l-40.25-19.7c-.62-.3-1.04-.92-1.08-1.61l-6.33-92.25c-.06-.87.47-1.68,1.3-1.97.83-.28,1.75.02,2.24.75l72.41,107.17c.49.73.43,1.69-.14,2.36-.58.66-1.52.86-2.31.47l-18.29-8.95c-1.68-.82-3.18-.94-4.1-.32-.91.61-1.35,2.01-1.23,3.83l.57,8.34c.05.69-.28,1.35-.85,1.74-.31.21-.66.32-1.02.33ZM242.32,279.6l36.23,17.73-.34-4.99c-.23-3.29.82-5.89,2.93-7.31,2.13-1.44,4.96-1.41,7.96.06l11.76,5.76-64.31-95.18,5.76,83.95Z"/>
      <path class="cls-2" d="M176.48,251.52c-.31.01-.63-.05-.92-.2l-40.25-19.7c-.62-.3-1.04-.92-1.08-1.61l-.57-8.34c-.32-4.64-4.15-10.3-8.36-12.36l-18.29-8.95c-.62-.3-1.04-.92-1.08-1.61-.05-.69.28-1.36.86-1.74l62.22-41.29c.58-.38,1.31-.43,1.93-.12.62.31,1.03.92,1.08,1.61l6.33,92.25c.05.69-.28,1.35-.85,1.74-.31.21-.66.32-1.02.33ZM138.02,228.63l36.23,17.73-5.87-85.57-56.63,37.57,15.25,7.46c5.49,2.68,10.11,9.53,10.52,15.58l.5,7.22Z"/>
      <path class="cls-2" d="M246.19,413.13c-.65.02-1.3-.26-1.68-.82l-9.44-13.98c-.04-.06-.07-.12-.11-.18-.01-.02-.02-.04-.03-.06l-20.13-29.79-16.34,10.84c-.11.13-.24.24-.38.33l-8.11,5.38c-.43.28-.96.39-1.46.28-.51-.1-.95-.41-1.23-.84l-.17-.26c-.18-.28-.29-.6-.31-.93l-5.01-73.02-12.27-6c-3.44-1.69-6.48-1.85-8.54-.46-2.04,1.37-3.02,4.19-2.76,7.94l.45,6.51c.06.87-.47,1.68-1.3,1.97-.83.28-1.75-.02-2.24-.75l-65.73-97.28c-.49-.73-.43-1.69.14-2.36.58-.66,1.52-.86,2.31-.47l236.79,115.87c.62.3,1.04.92,1.08,1.61.05.69-.28,1.36-.86,1.74l-56.55,37.52c-.58.38-1.31.43-1.93.12-.62-.31-1.03-.92-1.08-1.61l-.45-6.6c-.59-8.65-7.46-18.82-15.31-22.66l-10.26-5.02,4.86,70.86c.05.7-.28,1.36-.86,1.75-.32.22-.7.33-1.07.34ZM238.41,396.37l5.36,7.94-4.61-67.2c-.05-.69.28-1.35.85-1.74.58-.39,1.31-.44,1.93-.13l13.27,6.49c9.11,4.46,16.79,15.82,17.48,25.88l.22,3.27,50.95-33.81-227.23-111.19,57.65,85.31c-.18-4.87,1.4-8.68,4.5-10.76,3.26-2.19,7.67-2.13,12.41.2l13.27,6.5c.62.3,1.04.92,1.08,1.61l4.88,71.17,5.12-3.4c.1-.12.22-.22.35-.31l18.32-12.16c.45-.3,1.02-.4,1.55-.27.52.13.97.46,1.23.92l21.26,31.45c.05.08.1.16.14.25Z"/>
      <path class="cls-2" d="M229.85,175.4c-.84.03-1.64-.5-1.91-1.35-.33-1.02.24-2.11,1.26-2.44l58.99-18.86c1.02-.32,2.11.24,2.44,1.26.33,1.02-.24,2.11-1.26,2.44l-58.99,18.86c-.17.06-.35.09-.53.09Z"/>
      <path class="cls-2" d="M234.2,190.54c-.85.03-1.64-.5-1.91-1.35-.33-1.02.24-2.11,1.26-2.44l55.25-17.64c1.02-.32,2.11.24,2.44,1.26.33,1.02-.24,2.11-1.26,2.44l-55.25,17.64c-.17.06-.35.09-.53.09Z"/>
      <path class="cls-2" d="M306.61,297.71c-.85.03-1.64-.5-1.91-1.35-.33-1.02.24-2.11,1.26-2.44l31.19-9.96c1.02-.32,2.11.24,2.44,1.26.33,1.02-.24,2.11-1.26,2.44l-31.19,9.96c-.17.06-.35.09-.53.09Z"/>
      <path class="cls-2" d="M327.84,338.74c-.85.03-1.64-.5-1.91-1.35-.33-1.02.24-2.11,1.26-2.44l66.84-21.34c1.02-.32,2.11.24,2.44,1.26.33,1.02-.24,2.11-1.26,2.44l-66.84,21.34c-.17.06-.35.09-.53.09Z"/>
      <path class="cls-2" d="M271.29,376.26c-.85.03-1.64-.5-1.91-1.35-.33-1.02.24-2.11,1.26-2.44l42.67-13.62c1.02-.32,2.11.24,2.44,1.26.33,1.02-.24,2.11-1.26,2.44l-42.67,13.62c-.17.06-.35.09-.53.09Z"/>
      <path class="cls-2" d="M228.39,276.69c-.84.03-1.63-.5-1.91-1.33-.33-1.02.22-2.11,1.24-2.45l11-3.6c1.02-.33,2.11.22,2.45,1.24.33,1.02-.22,2.11-1.24,2.45l-11,3.6c-.18.06-.36.09-.54.09Z"/>
      <path class="cls-2" d="M176.48,251.52c-.84.03-1.63-.49-1.91-1.33-.33-1.02.22-2.11,1.24-2.45l11-3.6c1.02-.33,2.11.22,2.45,1.24.33,1.02-.22,2.11-1.24,2.45l-11,3.6c-.18.06-.36.09-.54.09Z"/>
    </g>
    <path class="cls-4" d="M157.34,340.19l-22.78,5.13c-.71.16-1.31.62-1.65,1.26-.34.64-.38,1.39-.11,2.06l5.93,14.61c.32.79,1.05,1.36,1.9,1.5.75.12,1.51-.11,2.07-.62.07-.07.14-.14.21-.22l16.85-19.74c.27-.31.45-.68.53-1.06.13-.6.04-1.24-.3-1.79-.55-.9-1.62-1.35-2.66-1.11ZM151.22,346.6l-9.42,11.04-3.32-8.17,12.74-2.87Z"/>
    <path class="cls-4" d="M390.38,287.86l23.3,1.46c.73.05,1.43-.23,1.94-.75.51-.52.75-1.23.68-1.95l-1.59-15.69c-.09-.85-.62-1.6-1.4-1.97-.69-.32-1.48-.32-2.16.02-.09.04-.18.1-.27.15l-21.71,14.22c-.35.23-.62.53-.81.87-.3.54-.38,1.18-.22,1.8.27,1.02,1.17,1.75,2.24,1.81ZM398.05,283.43l12.14-7.96.89,8.77-13.03-.82Z"/>
    <path class="cls-9" d="M122.45,319.06c-3.97,0-7.2,3.19-7.2,7.12s3.23,7.12,7.2,7.12,7.2-3.19,7.2-7.12-3.23-7.12-7.2-7.12ZM122.45,329.13c-1.64,0-2.98-1.32-2.98-2.95s1.34-2.95,2.98-2.95,2.98,1.32,2.98,2.95-1.34,2.95-2.98,2.95Z"/>
    <path class="cls-9" d="M390.72,244.4c-3.97,0-7.2,3.19-7.2,7.12s3.23,7.12,7.2,7.12,7.2-3.19,7.2-7.12-3.23-7.12-7.2-7.12ZM390.72,254.47c-1.64,0-2.98-1.32-2.98-2.95s1.34-2.95,2.98-2.95,2.98,1.32,2.98,2.95-1.34,2.95-2.98,2.95Z"/>
    <path class="cls-8" d="M363.55,365.55c-3.97,0-7.2,3.19-7.2,7.12s3.23,7.12,7.2,7.12,7.2-3.19,7.2-7.12-3.23-7.12-7.2-7.12ZM363.55,375.62c-1.64,0-2.98-1.32-2.98-2.95s1.34-2.95,2.98-2.95,2.98,1.32,2.98,2.95-1.34,2.95-2.98,2.95Z"/>
    <ellipse class="cls-8" cx="107.86" cy="352.46" rx="3.02" ry="2.99"/>
    <ellipse class="cls-8" cx="413.3" cy="244.04" rx="3.02" ry="2.99"/>
    <ellipse class="cls-9" cx="338.55" cy="379.26" rx="3.02" ry="2.99"/>
    <g>
      <path class="cls-9" d="M356.82,204.97c-.83-1.39-.39-3.19,1-4.03,1.39-.84,3.2-.38,4.03,1s.38,3.2-1,4.03-3.19.39-4.03-1ZM347.9,190.14c-.84-1.4-.39-3.19,1-4.03s3.19-.39,4.03,1c.83,1.39.38,3.2-1,4.03s-3.2.38-4.03-1ZM338.98,175.3c-.83-1.39-.39-3.19,1-4.03,1.39-.84,3.2-.38,4.03,1,.83,1.39.38,3.2-1,4.03s-3.2.38-4.03-1Z"/>
      <path class="cls-9" d="M334.09,161.47c-.17.1-.34.18-.53.25-.18.06-.36.11-.55.14-.19.03-.38.03-.57.03-.2,0-.39-.04-.58-.08-.75-.19-1.4-.67-1.8-1.34s-.53-1.48-.34-2.23c.05-.18.11-.37.2-.54.07-.17.18-.34.29-.5.12-.15.24-.29.38-.43.28-.26.62-.46.99-.59.19-.06.38-.11.56-.14.19-.03.38-.03.57-.02.19,0,.38.03.57.08.75.19,1.41.67,1.81,1.34s.51,1.47.33,2.22c-.05.18-.11.37-.19.55-.09.17-.18.33-.29.49-.11.16-.24.29-.39.43-.14.12-.29.25-.46.34Z"/>
      <g>
        <path class="cls-9" d="M321.14,145.63c-.84-1.4-.39-3.19,1-4.03s3.19-.39,4.03,1c.83,1.39.38,3.2-1,4.03s-3.2.38-4.03-1ZM312.21,130.79c-.83-1.39-.39-3.19,1-4.03,1.39-.84,3.2-.38,4.03,1,.83,1.39.38,3.2-1,4.03-1.4.84-3.2.38-4.03-1Z"/>
        <path class="cls-9" d="M307.33,116.96c-.17.1-.34.18-.53.25-.18.06-.36.11-.55.14-.19.03-.38.03-.57.03-.2,0-.39-.04-.58-.08-.75-.19-1.4-.67-1.8-1.34s-.53-1.48-.34-2.23c.05-.18.11-.37.2-.54.07-.17.18-.34.29-.5.12-.15.24-.29.38-.43.28-.26.62-.46.99-.59.19-.06.38-.11.56-.14.19-.03.38-.03.57-.02.19,0,.38.03.57.08.75.19,1.41.67,1.81,1.34s.51,1.47.33,2.22c-.05.18-.11.37-.19.55-.09.17-.18.33-.29.49-.11.16-.24.29-.39.43-.14.12-.29.25-.46.34Z"/>
      </g>
    </g>
  </g>
  <g>
    <path class="cls-6" d="M74.82,185.62c-1.19,0-2.15-.96-2.15-2.15v-28.22c0-1.19.96-2.15,2.15-2.15s2.15.96,2.15,2.15v28.22c0,1.19-.96,2.15-2.15,2.15Z"/>
    <path class="cls-7" d="M96.85,172.9c-1.19,0-2.15-.96-2.15-2.15v-38.52c0-1.19.96-2.15,2.15-2.15s2.15.96,2.15,2.15v38.52c0,1.19-.96,2.15-2.15,2.15Z"/>
    <path class="cls-10" d="M118.88,160.18c-1.19,0-2.15-.96-2.15-2.15v-59.15c0-1.19.96-2.15,2.15-2.15s2.15.96,2.15,2.15v59.15c0,1.19-.96,2.15-2.15,2.15Z"/>
    <path class="cls-3" d="M140.9,147.46c-1.19,0-2.15-.96-2.15-2.15v-38.52c0-1.19.96-2.15,2.15-2.15s2.15.96,2.15,2.15v38.52c0,1.19-.96,2.15-2.15,2.15Z"/>
  </g>
</svg>