<?xml version="1.0" encoding="UTF-8"?>
<svg id="Layer_1" data-name="Layer 1" xmlns="http://www.w3.org/2000/svg" xmlns:xlink="http://www.w3.org/1999/xlink" viewBox="0 0 500 500">
  <defs>
    <style>
      .cls-1, .cls-2 {
        opacity: .7;
      }

      .cls-3 {
        fill: url(#linear-gradient);
      }

      .cls-3, .cls-4, .cls-5, .cls-6, .cls-7, .cls-2, .cls-8, .cls-9, .cls-10, .cls-11, .cls-12, .cls-13, .cls-14, .cls-15, .cls-16, .cls-17, .cls-18, .cls-19, .cls-20, .cls-21 {
        stroke-width: 0px;
      }

      .cls-4, .cls-7, .cls-2 {
        fill: #262830;
      }

      .cls-5 {
        fill: #b98261;
      }

      .cls-6 {
        fill: #dbbc44;
      }

      .cls-7 {
        opacity: .4;
      }

      .cls-22 {
        opacity: .2;
      }

      .cls-8 {
        fill: #7e6355;
      }

      .cls-9 {
        fill: #f4bca9;
      }

      .cls-10 {
        fill: none;
      }

      .cls-23 {
        opacity: .8;
      }

      .cls-11 {
        fill: #8593a1;
      }

      .cls-12 {
        fill: #bfd0e2;
      }

      .cls-13 {
        fill: #979797;
      }

      .cls-14 {
        fill: url(#linear-gradient-2);
      }

      .cls-24 {
        clip-path: url(#clippath);
      }

      .cls-15 {
        fill: #f76000;
      }

      .cls-16 {
        fill: #efefef;
      }

      .cls-17 {
        fill: #d6dce0;
      }

      .cls-18 {
        fill: #c59c77;
      }

      .cls-19 {
        fill: #32c7e8;
      }

      .cls-20 {
        fill: #fff;
      }

      .cls-21 {
        fill: #4671c8;
      }
    </style>
    <linearGradient id="linear-gradient" x1="143.37" y1="171.44" x2="142.44" y2="116.73" gradientUnits="userSpaceOnUse">
      <stop offset="0" stop-color="#fff"/>
      <stop offset=".91" stop-color="#dfdfdf"/>
    </linearGradient>
    <linearGradient id="linear-gradient-2" x1="546.25" y1="80.46" x2="546.64" y2="134.23" gradientTransform="translate(-166.9)" xlink:href="#linear-gradient"/>
    <clipPath id="clippath">
      <polygon class="cls-10" points="330.63 137.17 334.02 150.27 334.53 156.7 332.87 162.63 343.39 164.46 344.55 164.46 346.17 153.62 345.25 141.51 331.51 137.17 330.63 137.17"/>
    </clipPath>
    <clipPath id="clippath-1">
      <rect class="cls-10" x="-11.11" y="-1231.77" width="1324.78" height="557.72"/>
    </clipPath>
    <clipPath id="clippath-2">
      <path class="cls-10" d="M-114.09-880.21l395.53-224.58c50.41-28.62,112.16-28.61,162.56.03l313.59,178.21,87.47-46.67c41.36-22.07,91.13-21.45,131.93,1.62l380.06,214.96,1.04,205.69H-114.09v-329.28Z"/>
    </clipPath>
  </defs>
  <path class="cls-4" d="M392.93,228.51s0-.07.01-.1c0,.03,0,.06-.01.1Z"/>
  <path class="cls-4" d="M22.75,227.04s.04-.06.07-.08c-.03.03-.05.06-.07.08Z"/>
  <path class="cls-4" d="M393.17,227.71c.02-.05.05-.1.08-.15-.03.05-.06.1-.08.15Z"/>
  <g>
    <path class="cls-18" d="M160.67,222.53c-1.04,2.42-3.96,4.91-5.91,6.38-.77.58-1.93.12-1.99-.78l-.22-3.53-1.52-.82c-3.16,2.6-2.89,7.59-2.89,7.59l-21.58,19.36s-1.79-12.01-8.06-24.89l-5.16-9.31-4.93,4.6c-1.29,1.2-2.01,2.79-2.04,4.45-.11,6.64.76,24.3,12.11,36.98,1.26,1.41,3.14,2.26,5.15,2.28,3.03.04,5.95-1.1,8.02-3.14,4.45-4.39,12.71-12.63,19.97-20.46.51-.54.56-1.28.23-1.88l2.47-2.98.56.42s9.53-4.85,9.85-10c.33-5.15-2.44-8.02-4.05-4.27Z"/>
    <path class="cls-4" d="M162.39,219.89c-.6-.14-1.8-.19-2.86,2.29-.72,1.68-2.49,4.74-5.9,5.94-.68.24-.39-3.13-.61-4.13-.16-.72-.82-2.08-2.75-1.03-2.59,1.41-3.13,5.34-3.1,7.51l-4.16,3.48-15.81,14.75c-.51-2.58-1.65-7.59-3.75-13.53l-1.94.65c2.98,8.46,3.99,14.98,4,15.06l.29,1.92,22.23-20.29,1.25-.85c-.13-1.3-.5-7.44,1.96-6.82.59.15-.23,4.74,1.24,5.17,4.37,1.3,7.51-4.48,8.61-7.04.41-.95.77-1.08.81-1.09.43.1,1.47,1.76,1.28,4.89-.22,3.49-5.94,7.32-8.74,8.86l-1.29,1.59s-18.16,19.72-22.25,23.76c-1.87,1.84-4.52,2.89-7.28,2.84-1.71-.02-3.32-.73-4.4-1.94-3.36-3.76-5.79-7.96-7.53-12.18l-2.03.45c1.83,4.53,4.41,9.05,8.03,13.1,1.47,1.64,3.62,2.59,5.9,2.62.32,0,.65,0,.97-.02,2.95-.19,5.74-1.4,7.78-3.41,4.34-4.28,23.43-25.21,23.43-25.21,2.52-1.43,9.16-5.64,9.46-10.33.23-3.61-.97-6.56-2.84-7.01Z"/>
    <path class="cls-19" d="M114.64,215.69s10.48,8.39,14.81,23.89l-11.26,3.46"/>
    <path class="cls-11" d="M112.84,286.82c.33,1.31,2.3,15.12,2.3,22.68s-2.96,27.8-2.3,33.78c.66,5.98-.1,37.19-.1,37.19,0,0-5.49,3.97-12.72,2.98,0,0-4.93-21.69-2.96-36.15,0,0-10.52-28.59-10.52-39.11s.42-21.69,4.98-23.34,21.32,1.97,21.32,1.97Z"/>
    <path class="cls-4" d="M102.37,384.54c-.8,0-1.62-.05-2.48-.17-.38-.05-.7-.34-.78-.72-.2-.89-4.89-21.8-3-36.26-1.05-2.86-10.5-29.02-10.5-39.22,0-11.23.43-22.35,5.59-24.21,4.75-1.72,21.13,1.79,21.83,1.94.35.07.62.34.71.68.36,1.45,2.33,15.29,2.33,22.91,0,3.34-.56,8.99-1.15,14.97-.75,7.58-1.52,15.43-1.16,18.71.66,5.98-.06,36.03-.09,37.31,0,.29-.15.56-.38.73-.21.15-4.67,3.32-10.92,3.32ZM100.79,382.6c5.43.53,9.77-1.86,11.04-2.64.09-3.99.69-31.13.09-36.57-.38-3.47.4-11.41,1.16-19.09.58-5.94,1.14-11.54,1.14-14.79,0-6.73-1.63-18.92-2.16-21.9-5.01-1.04-16.83-3.1-20.21-1.88-4.36,1.57-4.36,15.68-4.36,22.46,0,10.23,10.36,38.51,10.46,38.79.05.14.07.3.05.45-1.74,12.76,2.02,31.5,2.8,35.18Z"/>
    <path class="cls-11" d="M69.13,300.95s-2.96,21.04-2.3,28.92c.66,7.89-.1,25.97-.1,25.97l-1.55,36.39s8.87,2.86,14.79,0c0,0,3.29-23.9,4.6-32.44,1.31-8.55,1.64-16.43,3.29-21.04s5.59-24.65,6.24-29.25c.66-4.6,0-16.44,0-16.44l-24.98,7.89Z"/>
    <path class="cls-4" d="M73.49,394.43c-4.42,0-8.34-1.24-8.59-1.32-.4-.13-.66-.51-.64-.92l1.55-36.39c0-.18.74-18.11.1-25.85-.66-7.9,2.18-28.27,2.31-29.13.05-.35.3-.65.64-.76l24.98-7.89c.27-.09.57-.04.81.12.24.16.38.43.4.71.03.49.66,11.98,0,16.62-.69,4.79-4.66,24.87-6.29,29.43-1.03,2.9-1.54,7.23-2.13,12.25-.32,2.77-.66,5.62-1.12,8.62-1.3,8.44-4.57,32.19-4.6,32.43-.04.31-.24.57-.52.71-2.13,1.03-4.58,1.37-6.89,1.37ZM66.14,391.54c2.06.55,8.4,1.99,12.98.06.48-3.51,3.34-24.18,4.53-31.95.46-2.96.79-5.8,1.11-8.55.6-5.13,1.12-9.56,2.22-12.65,1.6-4.48,5.52-24.32,6.2-29.07.52-3.61.2-11.94.05-15.06l-23.27,7.35c-.47,3.44-2.8,21.17-2.22,28.14.66,7.86-.06,25.34-.09,26.08l-1.52,35.66Z"/>
    <path class="cls-19" d="M60.21,229.53c4.31-8.11,21.07-14.37,21.07-14.37l6.89,1.05,10.5-4.85s14.91,2.32,17.17,5.31c2.27,2.99,3.54,24.05,1.56,32.12-1.98,8.07-1.07,53.64-1.07,53.64,0,0-3.78,1.2-7.38,2.04-2.45.57-16.99,1.69-26.19,1.35-4.36-.16-15.08-1.41-15.08-1.41,0,0-.84-2.18-.75-6.79.41-19.35-1.35-51.22-1.35-51.22,0,0-9.69-8.73-5.38-16.85Z"/>
    <path class="cls-4" d="M90.55,306.96c-12.14,0-22.58-1.58-23.32-1.7-.43-.07-.76-.42-.79-.86l-.66-10.31c-.05-6.5,0-31.49,0-33.23-.28-1.41-3.67-18.35-4.67-26.25-1.16-9.13,9.52-15.07,15.26-18.25,6.5-3.61,25.34-4.74,26.14-4.79.35.02,5.18.51,9.31,1.98,4.49,1.59,4.91,2.8,6.66,9.77,1.74,6.92.5,28.34-1.17,37.62-1.56,8.69-.06,41.11-.05,41.44.02.4-.22.77-.6.91-7.56,2.84-17.29,3.67-26.11,3.67ZM68.25,303.53c4.73.66,31.05,3.93,47.12-1.75-.22-4.88-1.38-32.89.1-41.17,1.64-9.12,2.83-30.35,1.2-36.84-1.73-6.89-1.94-7.21-5.48-8.47-3.92-1.39-8.67-1.87-8.72-1.88-.05.01-19.07,1.16-25.2,4.56-7.41,4.12-15.24,9.12-14.31,16.4,1.03,8.14,4.63,26.03,4.67,26.21.01.06.02.12.02.19,0,.27-.05,26.62,0,33.26l.61,9.5Z"/>
    <g>
      <g>
        <path class="cls-16" d="M67.25,392.16l-.6,13.25c-.11,2.5.57,4.97,1.98,7.12l.63.96c1.69,2.58,4.55,4.35,7.81,4.84l3.45.51c1.17.17,2.36-.08,3.33-.69h0c1.6-1.02,2.29-2.87,1.71-4.56l-3.22-9.43h0c-1.04-2.82-1.81-5.71-2.31-8.65l-.96-5.61-11.82,2.26Z"/>
        <path class="cls-4" d="M81.26,419.97c-.3,0-.6-.02-.9-.07l-3.45-.51c-3.57-.53-6.69-2.47-8.55-5.31l-.63-.96c-1.53-2.34-2.28-5.02-2.15-7.75l.64-14.1,13.73-2.62,1.14,6.69c.49,2.87,1.25,5.71,2.26,8.46l3.23,9.46c.74,2.18-.12,4.52-2.15,5.81-.94.6-2.04.92-3.17.92ZM68.29,393.05l-.56,12.41c-.1,2.28.52,4.52,1.8,6.48l.63.96c1.52,2.33,4.1,3.92,7.07,4.36l3.45.51c.9.13,1.85-.06,2.59-.54,1.18-.76,1.69-2.09,1.28-3.31l-3.22-9.43c-1.05-2.84-1.84-5.82-2.36-8.81l-.77-4.53-9.91,1.89Z"/>
      </g>
      <rect class="cls-4" x="72.91" y="401.18" width="8.6" height="2.15" transform="translate(-83.53 25.52) rotate(-12.24)"/>
      <rect class="cls-4" x="74.63" y="405.13" width="8.6" height="2.15" transform="translate(-84.33 25.97) rotate(-12.24)"/>
    </g>
    <path class="cls-18" d="M116.78,232.97c-1.25,2.46-4.47,4.88-6.61,6.29-.85.56-2.03,0-2.03-.95v-3.72l-1.54-.96c-3.48,2.51-3.53,7.76-3.53,7.76l-23.88,18.84s-1.08-12.7-6.79-26.6l-4.78-10.09-5.47,4.49c-1.43,1.17-2.29,2.79-2.43,4.53-.56,6.95-.82,25.5,10.23,39.53,1.23,1.56,3.14,2.57,5.24,2.73,3.17.24,6.3-.76,8.6-2.75,4.95-4.3,14.14-12.39,22.27-20.1.57-.54.68-1.31.36-1.95l2.78-2.95.56.47s10.3-4.45,10.98-9.82c.68-5.37-2.02-8.56-3.96-4.74Z"/>
    <path class="cls-18" d="M79.68,206.87s2.4,2,.86,7.67c0,0-1.18,2.36-.86,3.11,1.42,3.35,26.83,15.27,23.67-3.34-1.04-6.16-16.09-7.44-16.09-7.44h-7.59Z"/>
    <g>
      <path class="cls-18" d="M82.23,208.54c1.16,2.82,5.12,7.67,18.56,7.56,1.19,0,2.23-.74,2.57-1.78,1.23-3.81,3.49-13.38-.63-23.33l-.83-3.53-20.47,3.9-1.5,8.53s-4.73-.45-3.29,4.17c.65,2.09,1.92,2.71,3.03,2.82,1.14.11,2.14.69,2.54,1.66Z"/>
      <path class="cls-4" d="M100.34,217.17c-13.66,0-17.83-5.14-19.11-8.23h0c-.23-.55-.84-.93-1.65-1-1.09-.1-3.06-.7-3.96-3.57-.54-1.74-.4-3.13.42-4.15.83-1.02,2.1-1.32,2.99-1.4l1.47-8.39,22.21-4.23,1.04,4.45c4.22,10.3,1.84,20.2.62,23.99-.48,1.5-1.92,2.51-3.58,2.52-.15,0-.31,0-.46,0ZM83.22,208.13c1.08,2.62,4.81,7.03,17.56,6.89.72,0,1.36-.43,1.56-1.03,1.15-3.57,3.4-12.92-.6-22.59l-.05-.17-.59-2.53-18.73,3.57-1.54,8.78-.99-.09c-.39-.03-1.63,0-2.13.62-.42.52-.25,1.46-.04,2.15.4,1.3,1.09,1.97,2.11,2.07,1.62.15,2.9,1.02,3.44,2.32h0Z"/>
    </g>
    <g>
      <path class="cls-4" d="M74.28,200.79c-1.13-.35-2.07-1.11-2.56-2.12-.84-1.73-1.82-4.61-.84-7.46,1.12-3.28,7.45-1.49,10.79-.28,1.18.43,1.78,1.63,1.38,2.74l-1.91,5.32c-.36,1-1.34,1.7-2.5,1.78l-2.58.22c-.6.05-1.21-.01-1.78-.19h0Z"/>
      <path class="cls-4" d="M75.66,202.07c-.58,0-1.15-.09-1.7-.26h0c-1.43-.44-2.6-1.42-3.21-2.67-1-2.05-1.96-5.15-.89-8.28.31-.92.96-1.63,1.86-2.06,2.56-1.23,7.02-.07,10.31,1.12,1.74.63,2.63,2.43,2.03,4.11l-1.91,5.32c-.5,1.4-1.85,2.38-3.43,2.49l-2.57.22c-.16.01-.33.02-.49.02ZM74.47,190.4c-.76,0-1.38.11-1.83.33-.39.19-.63.45-.76.82-.83,2.44-.03,4.96.79,6.65.35.72,1.05,1.29,1.92,1.56h0c.43.14.91.19,1.37.15l2.58-.22c.74-.05,1.36-.48,1.58-1.08l1.91-5.32c.2-.55-.12-1.14-.74-1.37-2.78-1-5.15-1.53-6.82-1.53Z"/>
    </g>
    <g>
      <g>
        <path class="cls-16" d="M100.58,384.29s-2.39,3.14-1.46,9.49h0c2.23,1.35,4.81,2.13,7.49,2.25l19,.87c1.71.08,3.41-.22,4.96-.88h0c1.68-.71,2.98-2,3.63-3.58h0c.58-1.42-.09-3-1.57-3.7l-19.88-9.37-12.15,4.9Z"/>
        <path class="cls-4" d="M126.12,398c-.19,0-.38,0-.56-.01l-19-.87c-2.85-.13-5.62-.96-8-2.41l-.43-.26-.07-.5c-.99-6.72,1.56-10.16,1.67-10.3l.18-.24,12.86-5.19,20.31,9.57c2,.94,2.9,3.12,2.11,5.07-.76,1.85-2.25,3.33-4.2,4.16-1.52.65-3.19.98-4.86.98ZM100.12,393.12c1.97,1.1,4.22,1.74,6.54,1.84l19,.87c1.55.07,3.09-.2,4.49-.8,1.43-.61,2.51-1.67,3.05-2.99.36-.89-.07-1.86-1.03-2.32l-19.46-9.17-11.4,4.6c-.44.76-1.73,3.42-1.18,7.96Z"/>
      </g>
      <rect class="cls-4" x="117.28" y="384.96" width="6.66" height="2.15" transform="translate(-260.92 251.86) rotate(-53.27)"/>
      <rect class="cls-4" x="122.07" y="386.75" width="4.92" height="2.15" transform="translate(-247.77 222.58) rotate(-48.26)"/>
    </g>
    <path class="cls-4" d="M94.47,225c-11.3,0-15.81-7.67-15.86-7.75-.25-.44-.1-1,.33-1.26.11-.07,2.98-1.99.78-8.21l1.75-.62c2.03,5.73.29,8.63-.83,9.79,1.49,2.02,6.99,7.98,18.91,5.68,3.05-.59,3.7-2.43,2.88-8.18l1.84-.26c.52,3.65,1.3,9.17-4.37,10.26-1.96.38-3.77.55-5.44.55Z"/>
    <path class="cls-19" d="M68.19,222.71s-9.29,8.04-10.11,11.9c-.76,3.57,1.48,24.64,1.48,24.64,0,0,14.38-2.5,18.17-6.59l-3.17-22.43-6.37-7.52Z"/>
    <path class="cls-4" d="M59.56,260.18c-.17,0-.34-.05-.49-.14-.21-.13-.36-.34-.42-.58-.22-.93-5.35-22.81.68-29.4.12-.17,4.36-5.74,9.51-8.91l.97,1.58c-4.85,2.99-9.02,8.46-9.06,8.52-4.3,4.71-1.98,20.19-.51,26.87,3.2-.81,13.86-3.65,16.88-6.18l1.19,1.43c-3.88,3.25-17.95,6.64-18.55,6.78-.07.02-.14.03-.22.03Z"/>
    <path class="cls-4" d="M118.76,230.32c-.62-.18-1.87-.31-3.15,2.21-.86,1.71-2.92,4.8-6.57,5.83-.73.21-.2-3.3-.37-4.37-.12-.76-.72-2.23-2.81-1.26-2.81,1.31-3.63,5.38-3.74,7.66l-4.59,3.36-17.53,14.4c-.36-2.73-1.23-8.05-3.03-14.42l-2.08.55c2.56,9.06,3.19,15.95,3.19,16.04l.17,2.03,24.62-19.77,1.37-.81c-.05-1.37-.03-7.83,2.51-7.01.61.2-.55,4.95.95,5.5,4.49,1.65,8.16-4.19,9.48-6.8.49-.97.87-1.08.92-1.09.44.14,1.43,1.94,1.01,5.2-.46,3.64-6.7,7.27-9.74,8.7l-1.46,1.58s-20.32,19.45-24.87,23.4c-2.08,1.81-4.92,2.72-7.82,2.49-1.79-.14-3.43-.98-4.48-2.33-3.27-4.16-5.53-8.72-7.08-13.25l-2.15.33c1.62,4.86,4.02,9.77,7.54,14.25,1.43,1.81,3.61,2.95,6,3.14.34.03.68.04,1.02.04,3.1,0,6.11-1.09,8.37-3.05,4.83-4.19,26.2-24.84,26.2-24.84,2.73-1.33,9.97-5.3,10.59-10.19.48-3.77-.58-6.93-2.51-7.53Z"/>
    <path class="cls-4" d="M101.24,188.9c-1.14.46-2.38.75-3.71.8-5.58.2-9.48,1.34-11.77,2.25-1.89.76-4.06.74-5.95-.05l-1.13-.47c-1.78-.74-3.14-2.06-3.73-3.61-1.08-2.85-.64-5.18,1.29-6.91,1.45-1.3,2.87-2.08,4.35-2.39.52-.11,1.04-.16,1.56-.16,1.94,0,3.83.69,5.82,1.41,3.26,1.19,6.63,2.41,10.44.65.72-.33,1.75-.49,2.83-.5l4.21-1.41c-2.11-2.59-7.23-.47-7.98-.13-2.97,1.37-5.77.35-8.73-.73-2.7-.98-5.49-2-8.61-1.34-1.88.39-3.64,1.35-5.39,2.92-2.62,2.35-3.29,5.68-1.89,9.38.8,2.13,2.61,3.91,4.96,4.89l1.13.47c1.24.51,2.57.77,3.9.77s2.56-.24,3.75-.72c2.12-.85,5.75-1.91,11.01-2.1,1.26-.04,2.48-.26,3.63-.61v-2.43Z"/>
    <path class="cls-4" d="M74.27,188.43s-3.47-4.6.41-7.75c3.89-3.15,5.34-4.48,8.98-3.2,3.64,1.28,8.12,4.11,11.96,2.83,3.84-1.28,4.7-1.62,6.61-1.08,3.06.86,3,4.14,3.23,4.1s2.49.63,1.82,2.29c-.67,1.65-2.53,3.82-4.02,4.11-1.49.29-7.45.05-11.93,1.97-4.48,1.92-6.74,3.73-11.02,2.29-4.28-1.44-6.03-5.55-6.03-5.55Z"/>
    <path class="cls-4" d="M100.18,191.49l-.42-1.81c2.28-.53,5.57-1.89,5.78-3.26.11-.73-.82-1.74-2.55-2.76-.28-.17-.46-.47-.46-.8s.17-.63.45-.8c.36-.22,1.33-.98,1.39-1.82.04-.53-.31-1.1-1.03-1.7-2.56-2.1-6.96,2.95-7,3l-1.42-1.2c.23-.27,5.59-6.53,9.6-3.23,1.22,1,1.79,2.1,1.71,3.28-.08,1.01-.64,1.82-1.18,2.38,1.78,1.28,2.55,2.57,2.34,3.93-.47,3.08-6.08,4.53-7.2,4.79Z"/>
    <path class="cls-4" d="M95.62,180.94s4.96-5.86,8.3-3.11c3.35,2.75-.47,5.03-.47,5.03,8.45,4.96-3.49,7.73-3.49,7.73"/>
    <path class="cls-4" d="M118.46,243.93l-.55-1.78,10.39-3.19c-4.33-14.47-14.14-22.47-14.24-22.55l1.16-1.45c.44.35,10.76,8.75,15.12,24.37.14.48-.14.99-.62,1.14l-11.26,3.46Z"/>
    <path class="cls-4" d="M104.87,203.37c-.98-1.15-3.83-.88-6.68-.09-2.67.74-5.85,2.45-5.55,3.37,1.73,5.17-4.27,9.23,1.12,9.54s8.95-.43,8.95-.43c0,0,4.3-9.87,2.16-12.39Z"/>
    <path class="cls-18" d="M103.25,206.04c-.81-2.12-8.75.39-8.16,2.66.22.84,1.36,1.04,3.07.78.97-.15.92-1.43,1.35-1.57.74-.23,1.22,1.13,2.68.38.85-.43,1.39-1.4,1.06-2.25Z"/>
    <rect class="cls-4" x="94.01" y="342.3" width="8.46" height="1.86" transform="translate(-258.78 342.77) rotate(-73.95)"/>
    <rect class="cls-4" x="67.84" y="338.97" width="1.86" height="14.26" transform="translate(-79.41 25.85) rotate(-13.59)"/>
  </g>
  <g>
    <g class="cls-23">
      <path class="cls-3" d="M119.67,131.63c-3.67,2.12-6.76,8.1-6.76,13.07v34.01c0,2.32.68,4.09,1.83,4.75,1.11.64,2.45.14,3.38-.4l28.63-15.9.48,1.99c1.06,4.44.21,9.19-.64,12.28,9.29-6.53,12.4-16.92,13.33-21.31l.14-.68,6.07-3.33c3.67-2.12,6.77-8.1,6.77-13.07v-34.01c0-2.32-.68-4.09-1.83-4.75-1.11-.64-2.45-.14-3.38.4l-48.02,26.96Z"/>
    </g>
    <g>
      <g>
        <polygon class="cls-13" points="162.47 149.8 162.53 149.76 162.53 115.84 162.47 115.88 162.47 149.8"/>
        <polygon class="cls-13" points="157.76 152.52 157.82 152.48 157.82 118.56 157.76 118.6 157.76 152.52"/>
        <polygon class="cls-13" points="153.05 155.24 153.11 155.2 153.11 121.28 153.05 121.32 153.05 155.24"/>
        <polygon class="cls-13" points="148.34 157.96 148.4 157.92 148.4 124 148.34 124.04 148.34 157.96"/>
        <polygon class="cls-13" points="143.63 160.68 143.69 160.64 143.69 126.72 143.63 126.76 143.63 160.68"/>
        <polygon class="cls-13" points="125.21 145.94 165.08 122.92 165.08 122.85 125.21 145.87 125.21 145.94"/>
        <polygon class="cls-13" points="138.92 163.4 138.98 163.36 138.98 129.44 138.92 129.48 138.92 163.4"/>
        <polygon class="cls-13" points="134.21 166.12 134.27 166.08 134.27 132.16 134.21 132.2 134.21 166.12"/>
        <polygon class="cls-13" points="129.5 168.84 129.56 168.8 129.56 134.88 129.5 134.92 129.5 168.84"/>
        <polygon class="cls-13" points="129.5 168.84 129.56 168.8 129.56 134.88 129.5 134.92 129.5 168.84"/>
        <polygon class="cls-13" points="125.21 140.54 165.08 117.52 165.08 117.45 125.21 140.47 125.21 140.54"/>
        <polygon class="cls-13" points="125.21 151.34 165.08 128.32 165.08 128.25 125.21 151.27 125.21 151.34"/>
        <polygon class="cls-13" points="125.21 156.74 165.08 133.72 165.08 133.65 125.21 156.67 125.21 156.74"/>
        <polygon class="cls-13" points="125.21 162.14 165.08 139.12 165.08 139.05 125.21 162.07 125.21 162.14"/>
        <polygon class="cls-13" points="125.21 167.54 165.08 144.52 165.08 144.45 125.21 167.47 125.21 167.54"/>
      </g>
      <g>
        <polygon class="cls-19" points="161.92 129.88 163.08 129.21 163.08 122.66 161.92 123.33 161.92 129.88"/>
        <polygon class="cls-19" points="162.42 123.32 162.55 123.25 162.55 118.57 162.42 118.64 162.42 123.32"/>
        <polygon class="cls-19" points="162.42 130.03 162.55 129.96 162.55 128.52 162.42 128.59 162.42 130.03"/>
      </g>
      <g>
        <polygon class="cls-21" points="158.73 130.02 159.88 129.35 159.88 124.3 158.73 124.97 158.73 130.02"/>
        <polygon class="cls-21" points="159.22 124.95 159.35 124.88 159.35 123.82 159.22 123.9 159.22 124.95"/>
        <polygon class="cls-21" points="159.22 130.57 159.35 130.49 159.35 128.65 159.22 128.73 159.22 130.57"/>
      </g>
      <g>
        <polygon class="cls-19" points="157.21 130.89 158.37 130.22 158.37 128.32 157.21 128.99 157.21 130.89"/>
        <polygon class="cls-19" points="157.71 128.98 157.84 128.9 157.84 127.84 157.71 127.92 157.71 128.98"/>
        <polygon class="cls-19" points="157.71 133.98 157.84 133.91 157.84 129.53 157.71 129.6 157.71 133.98"/>
      </g>
      <g>
        <polygon class="cls-21" points="155.68 135.53 156.84 134.86 156.84 129.53 155.68 130.2 155.68 135.53"/>
        <polygon class="cls-21" points="156.17 130.19 156.3 130.11 156.3 129.43 156.17 129.5 156.17 130.19"/>
        <polygon class="cls-21" points="156.17 136.9 156.3 136.82 156.3 130.73 156.17 130.81 156.17 136.9"/>
      </g>
      <polygon class="cls-19" points="154.15 151.22 155.3 150.55 155.3 136.16 154.15 136.83 154.15 151.22"/>
      <g>
        <polygon class="cls-21" points="153.02 142.39 153.15 142.31 153.15 137.93 153.02 138.01 153.02 142.39"/>
        <polygon class="cls-21" points="153.02 154.06 153.15 153.99 153.15 149.61 153.02 149.68 153.02 154.06"/>
        <polygon class="cls-21" points="152.5 152.17 153.66 151.5 153.66 140.02 152.5 140.69 152.5 152.17"/>
      </g>
      <g>
        <polygon class="cls-19" points="151.69 144.06 151.82 143.99 151.82 139.61 151.69 139.68 151.69 144.06"/>
        <polygon class="cls-19" points="151.17 141.26 152.33 140.59 152.33 139.88 151.17 140.55 151.17 141.26"/>
      </g>
      <g>
        <polygon class="cls-19" points="148.3 148.77 148.44 148.69 148.44 142.84 148.3 142.92 148.3 148.77"/>
        <polygon class="cls-19" points="147.79 146.67 148.95 146 148.95 145.29 147.79 145.96 147.79 146.67"/>
      </g>
      <g>
        <polygon class="cls-19" points="140.9 156.56 141.03 156.48 141.03 152.4 140.9 152.47 140.9 156.56"/>
        <polygon class="cls-19" points="140.38 155.51 141.54 154.85 141.54 153.74 140.38 154.41 140.38 155.51"/>
      </g>
      <g>
        <polygon class="cls-21" points="139.35 159.21 139.48 159.14 139.48 154.62 139.35 154.7 139.35 159.21"/>
        <polygon class="cls-21" points="138.83 157.75 139.99 157.08 139.99 155.65 138.83 156.32 138.83 157.75"/>
      </g>
      <g>
        <polygon class="cls-21" points="147.05 149.31 147.18 149.24 147.18 143.38 147.05 143.46 147.05 149.31"/>
        <polygon class="cls-21" points="146.54 146.55 147.69 145.88 147.69 144.02 146.54 144.69 146.54 146.55"/>
      </g>
      <g>
        <polygon class="cls-21" points="142.25 159.36 142.38 159.28 142.38 152.28 142.25 152.35 142.25 159.36"/>
        <polygon class="cls-21" points="141.73 156.08 142.89 155.41 142.89 153.32 141.73 153.99 141.73 156.08"/>
      </g>
      <g>
        <polygon class="cls-21" points="150.1 145.51 150.23 145.44 150.23 140.6 150.1 140.68 150.1 145.51"/>
        <polygon class="cls-21" points="149.58 145.4 150.74 144.74 150.74 141 149.58 141.67 149.58 145.4"/>
      </g>
      <g>
        <polygon class="cls-19" points="137.91 158.9 138.04 158.83 138.04 152.96 137.91 153.04 137.91 158.9"/>
        <polygon class="cls-19" points="137.39 158.66 138.55 157.99 138.55 153.06 137.39 153.73 137.39 158.66"/>
      </g>
      <g>
        <polygon class="cls-21" points="133.25 158.41 133.38 158.34 133.38 153.55 133.25 153.63 133.25 158.41"/>
        <polygon class="cls-21" points="132.73 156.89 133.89 156.22 133.89 153.47 132.73 154.14 132.73 156.89"/>
      </g>
      <g>
        <polygon class="cls-19" points="131.77 158.58 131.9 158.51 131.9 143.25 131.77 143.33 131.77 158.58"/>
        <polygon class="cls-19" points="131.26 154.99 132.41 154.33 132.41 144.56 131.26 145.23 131.26 154.99"/>
      </g>
      <g>
        <polygon class="cls-21" points="129.46 151.14 129.6 151.07 129.6 145.38 129.46 145.46 129.46 151.14"/>
        <polygon class="cls-21" points="128.95 148.16 130.11 147.49 130.11 145.62 128.95 146.29 128.95 148.16"/>
      </g>
      <g>
        <polygon class="cls-19" points="127.59 149.14 127.72 149.07 127.72 141.61 127.59 141.69 127.59 149.14"/>
        <polygon class="cls-19" points="127.07 148.98 128.23 148.31 128.23 141.99 127.07 142.66 127.07 148.98"/>
      </g>
      <g>
        <polygon class="cls-21" points="136.32 157.31 136.45 157.23 136.45 153.64 136.32 153.72 136.32 157.31"/>
        <polygon class="cls-21" points="135.8 155.31 136.96 154.64 136.96 154.19 135.8 154.86 135.8 155.31"/>
      </g>
      <g>
        <polygon class="cls-19" points="134.88 159.66 135.01 159.58 135.01 155.22 134.88 155.29 134.88 159.66"/>
        <polygon class="cls-19" points="134.36 156.4 135.52 155.73 135.52 155.28 134.36 155.95 134.36 156.4"/>
      </g>
      <g>
        <polygon class="cls-19" points="143.59 156.89 143.73 156.81 143.73 146.31 143.59 146.39 143.59 156.89"/>
        <polygon class="cls-19" points="143.08 155.3 144.24 154.63 144.24 146.62 143.08 147.29 143.08 155.3"/>
      </g>
    </g>
  </g>
  <g>
    <g>
      <path class="cls-5" d="M299.62,124.87s-4.13,17.16-6.86,27.1c0,0,2.84,2.95,2.71,12.37-.1,7-1.12,14.7-1.12,14.7,0,0,7.94,5.93,7.38,9.17-.39,2.26-2.31.6-3.44-.63-.2-.22-.56-.01-.48.27l1.67,3.91c.66,2.26,1.21,6.13-.92,7.14l-2.11.37s-9.48-3.86-10.52-16.15c0,0-2.04-19.85-2.98-24.61-.93-4.77-.04-34.87-.04-34.87l12.21-10.16,4.48,11.38Z"/>
      <path class="cls-4" d="M299.84,199.24c-.24.22-.51.42-.83.57-.08.04-.17.07-.25.08l-2.11.37c-.18.03-.37.01-.55-.06-.41-.17-10.06-4.24-11.13-16.98-.02-.18-2.05-19.84-2.96-24.5-.94-4.82-.1-33.85-.06-35.09,0-.28.14-.55.36-.73l12.21-10.16c.25-.2.57-.28.88-.2.31.08.56.3.68.6l4.48,11.38c.07.19.09.4.04.6-.04.17-4.04,16.75-6.73,26.66.83,1.2,2.72,4.82,2.61,12.6-.08,5.88-.82,12.31-1.05,14.24,2.06,1.59,7.88,6.43,7.31,9.79-.22,1.27-.87,1.72-1.38,1.87-.46.14-.95.09-1.48-.15l.55,1.28c.45,1.51,1.49,5.9-.57,7.86ZM298.25,197.95c1.15-.71.98-3.53.29-5.91l-1.63-3.79c-.21-.68.03-1.29.56-1.58.52-.29,1.16-.19,1.56.24.85.92,1.41,1.28,1.67,1.39.02-.06.04-.14.06-.25.31-1.82-3.9-5.9-7-8.21-.29-.21-.44-.57-.39-.93.01-.08,1.01-7.72,1.11-14.58.12-8.76-2.41-11.65-2.44-11.68-.23-.25-.32-.61-.23-.94,2.49-9.09,6.21-24.42,6.78-26.77l-3.86-9.8-10.8,8.99c-.11,3.76-.8,29.91.04,34.2.93,4.75,2.9,23.89,2.99,24.7.88,10.48,8.08,15,9.66,15.22.41.06,1.65-.29,1.65-.29Z"/>
    </g>
    <g>
      <path class="cls-11" d="M338.73,271.24l.59,12.89c.11,2.43-.56,4.83-1.92,6.92l-.61.94c-1.64,2.51-4.42,4.23-7.59,4.7l-3.36.5c-1.14.17-2.3-.07-3.24-.67h0c-1.56-1-2.23-2.79-1.67-4.44l3.13-9.17h0c1.01-2.74,1.76-5.55,2.25-8.41l.93-5.45,11.49,2.2Z"/>
      <path class="cls-4" d="M322.02,297.4c-1.98-1.26-2.82-3.53-2.09-5.65l3.14-9.19c.98-2.67,1.72-5.44,2.2-8.22l1.11-6.5,13.35,2.55.62,13.71c.12,2.65-.6,5.26-2.09,7.54l-.61.94c-1.81,2.77-4.84,4.65-8.31,5.16l-3.36.5c-.29.04-.58.07-.87.07-1.1,0-2.17-.31-3.08-.89ZM328.08,270.27l-.75,4.41c-.5,2.91-1.27,5.8-2.29,8.57l-3.13,9.17c-.41,1.19.09,2.48,1.24,3.22.72.46,1.64.65,2.52.52l3.36-.5c2.89-.43,5.39-1.98,6.87-4.24l.61-.94c1.25-1.91,1.85-4.09,1.75-6.3l-.55-12.06-9.64-1.84Z"/>
    </g>
    <g>
      <path class="cls-11" d="M306.32,263.59s2.33,3.06,1.42,9.23h0c-2.16,1.31-4.68,2.07-7.28,2.19l-18.47.85c-1.66.08-3.31-.22-4.82-.86h0c-1.63-.69-2.9-1.94-3.53-3.48h0c-.56-1.38.09-2.92,1.53-3.59l19.33-9.11,11.82,4.77Z"/>
      <path class="cls-4" d="M276.76,275.97c-1.9-.81-3.35-2.24-4.09-4.04-.78-1.9.11-4.02,2.05-4.93l19.75-9.3,12.51,5.04.17.23c.11.14,2.58,3.48,1.62,10.02l-.07.49-.42.25c-2.31,1.4-5,2.21-7.77,2.34l-18.47.85c-.18,0-.37.01-.55.01-1.63,0-3.25-.33-4.73-.95ZM305.62,264.44l-11.09-4.47-18.92,8.91c-.94.44-1.36,1.39-1.01,2.25.53,1.29,1.58,2.32,2.97,2.91,1.36.58,2.86.84,4.36.78l18.47-.85c2.26-.1,4.44-.72,6.36-1.79.53-4.42-.72-7.01-1.15-7.74Z"/>
    </g>
    <path class="cls-21" d="M289.99,102.32s-8.15,10.19-8.96,25.82l11.42.88"/>
    <path class="cls-4" d="M292.38,129.92l-11.42-.88c-.49-.04-.86-.46-.83-.95.81-15.77,10.9-27.13,11.33-27.61l1.34,1.21c-.1.11-9.7,10.94-10.81,25.61l10.54.81-.14,1.8Z"/>
    <path class="cls-17" d="M294.4,168.81c-.32,1.28-2.24,14.7-2.24,22.05s2.88,27.03,2.24,32.85.09,36.16.09,36.16c0,0,5.34,3.86,12.37,2.9,0,0,4.79-21.09,2.88-35.15,0,0,10.23-27.8,10.23-38.03,0-10.23-.41-21.09-4.84-22.69s-20.73,1.92-20.73,1.92Z"/>
    <path class="cls-4" d="M304.58,263.83c-6.08,0-10.41-3.08-10.62-3.22-.23-.17-.37-.43-.37-.71-.03-1.24-.73-30.47-.09-36.28.35-3.19-.4-10.82-1.13-18.19-.57-5.82-1.11-11.31-1.11-14.56,0-7.42,1.91-20.87,2.26-22.27.08-.33.35-.59.69-.66.68-.15,16.6-3.55,21.23-1.88,5.02,1.81,5.44,12.62,5.44,23.54,0,9.91-9.19,35.35-10.21,38.13,1.84,14.06-2.72,34.39-2.92,35.25-.08.37-.39.64-.76.7-.83.11-1.63.16-2.4.16ZM295.38,259.38c1.23.76,5.46,3.07,10.73,2.57.76-3.58,4.42-21.81,2.73-34.21-.02-.15,0-.29.05-.43.1-.28,10.17-27.77,10.17-37.72,0-6.59,0-20.31-4.24-21.84-3.29-1.19-14.78.81-19.65,1.83-.51,2.89-2.1,14.73-2.1,21.29,0,3.16.54,8.61,1.11,14.38.74,7.47,1.5,15.19,1.13,18.56-.58,5.3,0,31.68.09,35.56Z"/>
    <path class="cls-17" d="M336.9,182.56s2.88,20.45,2.24,28.12c-.64,7.67.09,25.25.09,25.25l1.51,35.38s-8.63,2.78-14.38,0c0,0-3.2-23.24-4.47-31.55-1.28-8.31-1.6-15.98-3.2-20.45-1.6-4.47-5.43-23.97-6.07-28.44-.64-4.48,0-15.98,0-15.98l24.29,7.67Z"/>
    <path class="cls-4" d="M332.66,273.46c-2.25,0-4.63-.33-6.7-1.33-.27-.13-.46-.39-.5-.69-.03-.23-3.21-23.33-4.47-31.53-.45-2.91-.77-5.7-1.09-8.38-.57-4.88-1.06-9.09-2.07-11.9-1.58-4.43-5.45-23.95-6.12-28.62-.64-4.51-.03-15.69,0-16.16.02-.28.16-.53.39-.69.23-.16.52-.2.79-.12l24.29,7.67c.33.1.57.39.62.74.12.84,2.88,20.64,2.24,28.32-.63,7.53.09,24.96.1,25.13l1.51,35.38c.02.41-.24.77-.63.9-.24.08-4.06,1.28-8.35,1.28ZM327.18,270.69c4.45,1.88,10.62.49,12.62-.05l-1.48-34.67c-.03-.72-.73-17.72-.09-25.36.56-6.78-1.7-24.02-2.15-27.36l-22.63-7.15c-.14,3.02-.45,11.13.05,14.64.66,4.62,4.48,23.92,6.03,28.27,1.08,3.01,1.58,7.32,2.16,12.3.31,2.67.64,5.44,1.08,8.32,1.16,7.55,3.94,27.65,4.41,31.07Z"/>
    <path class="cls-21" d="M345.58,113.11c-4.19-7.89-20.49-13.98-20.49-13.98l-6.7,1.02-10.21-4.72s-14.49,2.26-16.7,5.16c-2.2,2.91-3.44,23.39-1.51,31.23,1.93,7.85,1.04,52.15,1.04,52.15,0,0,3.67,1.17,7.17,1.98,2.38.55,16.52,1.64,25.46,1.31,4.24-.16,14.66-1.37,14.66-1.37,0,0,.82-2.12.73-6.6-.4-18.81,1.31-49.81,1.31-49.81,0,0,9.43-8.49,5.23-16.38Z"/>
    <path class="cls-4" d="M316.08,188.4c-8.58,0-18.03-.81-25.38-3.57-.37-.14-.6-.5-.59-.89.02-.32,1.47-31.85-.05-40.29-1.62-9.03-2.83-29.86-1.14-36.58,1.7-6.78,2.11-7.95,6.48-9.5,4.01-1.42,8.71-1.9,8.91-1.92.92.04,19.24,1.14,25.56,4.66,5.58,3.1,15.96,8.87,14.83,17.75-.98,7.68-4.27,24.16-4.54,25.52,0,1.69.04,25.99,0,32.26l-.65,10.08c-.03.42-.35.77-.76.83-.72.11-10.87,1.65-22.67,1.65ZM291.94,183.36c15.62,5.53,41.22,2.34,45.81,1.71l.6-9.29c.04-6.4,0-32.03,0-32.28,0-.06,0-.12.02-.18.04-.17,3.53-17.57,4.54-25.49.9-7.08-6.71-11.94-13.92-15.94-5.95-3.3-24.39-4.42-24.64-4.43.05,0-4.56.48-8.34,1.82-3.44,1.22-3.64,1.53-5.33,8.23-1.59,6.31-.43,26.95,1.16,35.82,1.45,8.05.31,35.29.1,40.03Z"/>
    <path class="cls-5" d="M326.64,91.08s-2.33,1.94-.84,7.46c0,0,1.14,2.3.84,3.02-1.38,3.26-26.08,14.85-23.02-3.24,1.02-5.99,15.64-7.24,15.64-7.24h7.38Z"/>
    <path class="cls-5" d="M324.17,92.7c-1.13,2.75-4.98,7.46-18.05,7.35-1.16,0-2.17-.72-2.5-1.73-1.19-3.7-3.39-13.01.61-22.68l.8-3.44,19.9,3.79,1.45,8.3s4.6-.44,3.2,4.05c-.63,2.03-1.87,2.64-2.95,2.74-1.11.1-2.08.67-2.47,1.62Z"/>
    <path class="cls-4" d="M312.26,108.7c-1.62,0-3.38-.16-5.29-.53-5.51-1.07-4.75-6.43-4.25-9.98l1.79.25c-.79,5.59-.16,7.38,2.8,7.95,11.59,2.25,16.94-3.55,18.39-5.52-1.08-1.13-2.78-3.95-.81-9.52l1.7.6c-2.14,6.05.65,7.91.77,7.99.41.26.55.8.31,1.22-.05.09-4.44,7.54-15.42,7.54Z"/>
    <g>
      <path class="cls-5" d="M329.47,129.7s3.51,17.3,5.86,27.34c0,0-2.94,2.85-3.16,12.26-.16,7,.58,14.73.58,14.73,0,0-8.15,5.63-7.71,8.9.3,2.27,2.28.68,3.46-.5.21-.21.56,0,.47.29l-1.81,3.85c-.74,2.23-1.43,6.08.65,7.17l2.09.45s9.62-3.51,11.1-15.75c0,0,2.77-19.76,3.87-24.49,1.11-4.73,1.32-34.84,1.32-34.84l-11.83-10.6-4.89,11.2Z"/>
      <path class="cls-4" d="M326.25,196.13l.6-1.26c-.55.22-1.04.25-1.49.1-.5-.17-1.14-.64-1.31-1.92-.45-3.37,5.54-8,7.66-9.51-.17-1.93-.67-8.39-.53-14.27.18-7.77,2.2-11.32,3.07-12.49-2.33-10-5.72-26.72-5.76-26.89-.04-.2-.02-.41.06-.6l4.89-11.2c.13-.29.39-.51.7-.57.31-.07.64.02.88.23l11.83,10.6c.21.19.33.46.33.75,0,1.23-.23,30.28-1.34,35.06-1.08,4.63-3.83,24.2-3.85,24.38-1.54,12.7-11.33,16.41-11.75,16.57-.18.06-.37.08-.55.04l-2.09-.45c-.09-.02-.17-.05-.25-.09-.32-.16-.59-.37-.81-.6-1.99-2.03-.78-6.38-.28-7.87ZM329.8,203.14c1.59-.16,8.95-4.42,10.21-14.85.11-.81,2.79-19.86,3.89-24.57,1-4.26,1.26-30.42,1.29-34.17l-10.47-9.38-4.22,9.66c.48,2.37,3.64,17.83,5.79,27,.08.33-.03.69-.27.93-.03.03-2.66,2.82-2.86,11.58-.16,6.86.57,14.54.58,14.61.03.36-.13.71-.42.91-3.18,2.2-7.54,6.12-7.29,7.95.01.11.03.19.05.25.26-.1.84-.44,1.72-1.33.42-.42,1.07-.5,1.57-.19.51.31.73.93.5,1.6l-1.77,3.73c-.78,2.36-1.05,5.17.07,5.92,0,0,1.22.39,1.64.35Z"/>
    </g>
    <path class="cls-21" d="M337.81,106.48s9.03,7.82,9.83,11.57c.74,3.47-1.44,23.96-1.44,23.96,0,0-13.98-2.43-17.67-6.41l1.56-21.86,7.72-7.27Z"/>
    <path class="cls-4" d="M346.2,142.91c-.07,0-.14,0-.21-.02-.58-.14-14.26-3.44-18.04-6.6-.22-.19-.34-.47-.32-.77,0-.06.49-6.2.55-8.63l1.81.05c-.05,2.1-.4,6.72-.52,8.24,3.34,2.38,13.06,4.97,16.05,5.73,1.44-6.5,3.69-21.55-.44-26.06-.09-.12-4.62-5.25-9.32-8.79l1.4-1.1c5.02,3.09,9.13,8.5,9.31,8.73,5.81,6.34.82,27.62.6,28.53-.06.23-.2.43-.41.56-.14.09-.31.13-.47.13Z"/>
    <rect class="cls-4" x="307.41" y="218.91" width="1.81" height="8.94" transform="translate(-54.94 109.35) rotate(-18.5)"/>
    <path class="cls-4" d="M291.96,174.55l-1.4-1.14c.05-.07,5.33-6.62,5.22-11.74l1.81-.04c.13,5.8-5.39,12.64-5.62,12.93Z"/>
    <path class="cls-5" d="M305.75,73.71s-.47-6.25,2.07-10.14c.92-1.41,6.01-3.54,9.63-3.29s8.44,2.08,9.41,2.49c2.81,1.18,7.34,8.19,6.76,13.51-.48,4.42-2.72,8.55-2.72,8.55l-5.37.59-19.78-11.71Z"/>
    <path class="cls-4" d="M334.84,76.26c.09-1.34.03-11.28-9.18-15.27-3.59-1.55-7.2-1.98-10.7-1.79-4.64.26-9.5,2.07-10.79,11.44-.15,1.06.06,1.82.59,2.32.34.33,1-1.4,1.12-2.12,1.32-8.27,5.29-9.74,9.18-9.96,3.28-.19,6.6.22,9.91,1.65,8.79,3.81,8.07,12.31,8.15,13.83,0,0-.07,6.08-3.02,8.32l.67,1.63c1.14-.88,3.58-3,4.07-10.06Z"/>
    <path class="cls-4" d="M330.18,84.62c-.6-1.41-3.05-1.33-3.92-1.41l-.73,2.21.96-.09c.38-.03,1.59,0,2.07.61.41.51.25,1.42.04,2.09-.39,1.26-1.06,1.92-2.05,2.01-1.57.15-2.82.99-3.34,2.26-1.05,2.55-4.68,6.83-17.07,6.7-.7,0-1.32-.42-1.51-1-1.12-3.47-3.3-12.57.58-21.97l.05-.16s.62-4.99.69-5.37l-1.76.14-.94,4.67c-4.1,10.01-1.79,19.64-.61,23.32.47,1.45,1.87,2.44,3.48,2.45.15,0,.3,0,.45,0,13.29,0,17.34-5,18.58-8,.22-.54.82-.9,1.6-.97,1.06-.1,2.98-.68,3.85-3.47.53-1.69.09-2.87-.41-4.03Z"/>
    <g>
      <path class="cls-4" d="M301.31,86.05s3.39-.27,6.5.42c2.92.65,5.18,2.88,6.17,3.21,6.12,2.01,8.64-7.59,8.64-7.59l4.07,1.15s-2.25,4.1-2.36,6.24c-.1,2.02,1.59,2.13,1.59,2.13,0,0-6.8,7.29-12.58,7.82s-9.67-.09-9.67-.09l-2.35-13.3Z"/>
      <path class="cls-5" d="M302.82,89.47c.75-2.19,9.45.05,8.95,2.38-.19.86-1.4,1.11-3.27.92-1.05-.11-1.07-1.42-1.54-1.54-.81-.2-1.25,1.2-2.86.49-.94-.41-1.58-1.37-1.27-2.25Z"/>
    </g>
  </g>
  <g>
    <path class="cls-6" d="M430.84,157.56s.32-11.04-9.8-15.5c-4.34-1.91-8.14-2.18-11.09-1.87-4.58.04-9.42,1.37-10.65,11.65-.44,3.68,3.24,1.48,7.33,1.62,5.29.19,8.11,4.16,10.28,5.03,1,.4,2.08.55,3.15.49-.1.22-.12.47-.04.72l1.89,5.26c.21.59.83,1.02,1.56,1.07l1.6.74c-.08.32.61,1.46,1.04,1.32.86-.26,2.82-2.83,3.17-3.54.81-1.67,2.39-4.58,1.57-7Z"/>
    <path class="cls-6" d="M420.32,145.62s.08-15.46,10.96-10.79c10.88,4.67,6.9,12.86.93,14.67-5.97,1.82-7.13,3.16-7.66,2.51s-4.23-6.4-4.23-6.4Z"/>
    <g>
      <path class="cls-18" d="M434.64,356.53l.6,13.12c.11,2.47-.57,4.92-1.96,7.04l-.62.95c-1.67,2.55-4.5,4.31-7.73,4.79l-3.42.51c-1.16.17-2.34-.07-3.3-.69h0c-1.58-1.01-2.27-2.84-1.7-4.52l3.19-9.33h0c1.03-2.79,1.79-5.65,2.29-8.56l.95-5.55,11.7,2.24Z"/>
      <path class="cls-4" d="M417.64,383.15c-2.01-1.28-2.87-3.6-2.13-5.75l3.2-9.36c1-2.72,1.75-5.53,2.24-8.37l1.13-6.62,13.59,2.6.64,13.95c.12,2.7-.61,5.35-2.13,7.67l-.62.95c-1.84,2.82-4.92,4.73-8.46,5.26l-3.42.51c-.3.04-.59.07-.89.07-1.12,0-2.21-.31-3.14-.91ZM423.81,355.54l-.77,4.48c-.51,2.96-1.29,5.91-2.33,8.72l-3.19,9.34c-.41,1.21.09,2.53,1.26,3.28.74.47,1.67.66,2.57.53l3.42-.51c2.94-.44,5.49-2.01,6.99-4.32l.62-.95c1.27-1.94,1.89-4.16,1.79-6.41l-.56-12.28-9.81-1.87Z"/>
    </g>
    <g>
      <path class="cls-18" d="M401.65,348.74s2.37,3.11,1.44,9.4h0c-2.2,1.34-4.76,2.11-7.41,2.23l-18.8.86c-1.69.08-3.37-.22-4.91-.87h0c-1.66-.71-2.95-1.98-3.59-3.54h0c-.57-1.4.09-2.97,1.55-3.66l19.68-9.27,12.03,4.85Z"/>
      <path class="cls-4" d="M371.57,361.34c-1.93-.82-3.41-2.28-4.16-4.11-.79-1.93.11-4.09,2.09-5.02l20.1-9.47,12.73,5.13.18.23c.11.14,2.63,3.54,1.65,10.2l-.07.5-.43.26c-2.36,1.43-5.09,2.25-7.91,2.38l-18.8.87c-.19,0-.37.01-.56.01-1.66,0-3.31-.33-4.81-.97ZM400.95,349.6l-11.29-4.55-19.26,9.07c-.95.45-1.38,1.42-1.02,2.29.54,1.31,1.61,2.36,3.02,2.96,1.38.59,2.91.86,4.44.79l18.8-.87c2.3-.11,4.52-.73,6.48-1.82.54-4.5-.73-7.13-1.17-7.88Z"/>
    </g>
    <g>
      <g>
        <path class="cls-9" d="M400.86,193.9c.56-3.15-2.58-5.82-5.75-6.23-.03,0-.05,0-.05,0,0,0-5.36-.59-9.73,6.37-4.37,6.96-5.92,30.55-5.92,30.55-4.07-2.57-9.62-3.38-13.73-3.44-3.09-.05-11.09-1.15-14.85-1.68l.06-.19s-.6-.68-4.24-.85c-2.34-.11-1.1-1.74-1.48-3.24-.46-1.75-2.32-3.4-2.32-3.4l-2.17-1.01-.43.57.37,2.67-.55.12-4.13-2.59c-8.6-5.34-7.29,3.74-4.64,6.4,1.68,1.69,3.4,3.21,4.86,4.42,1.67,1.39,5.81,2.98,9.11,3.85,0,0,0,.03,0,.03,10.28,7.09,35.41,10.76,42.64,11.69,1.18.15,2.32-.52,2.73-1.63,3.98-10.68,8.93-35.25,10.21-42.39Z"/>
        <path class="cls-4" d="M401.97,194.1c.27-1.49-.1-2.98-1.07-4.3-1.25-1.72-3.42-2.96-5.65-3.25l-.19,1.12-.1,1.13c1.61.21,3.23,1.13,4.12,2.34.41.56.87,1.47.67,2.56-1.02,5.71-6.05,31.17-10.16,42.2-.23.62-.86.98-1.52.9-24.48-2.84-39.57-9.97-39.57-9.97,0,0-3.22-1.14-4.14-1.88,0,0-4.68-1.11-7.47-3.46-1.73-1.46-3.35-2.91-4.78-4.35-1.39-1.39-2.15-4.75-1.32-5.8.55-.69,2.3-.24,4.56,1.16l6.09,2.94s-1.13-3.24-.16-3.54c2.44-.75,2.98,6.34,2.96,6.52,0,0,6.69,3,21.44,3.86,2.46.14,8.67.44,13.14,3.27l1.61,1.02.12-1.9c.02-.23,1.58-23.38,5.75-30.02,3.9-6.21,8.46-5.87,8.65-5.85l.11-1.13.15-1.12h-.03c-.25-.03-6.12-.58-10.81,6.89-3.8,6.06-5.49,23.59-5.95,29.3-4.5-2.24-9.78-2.67-12.71-2.72-3.9-.06-16.02-1.86-16.65-1.96l-2.56-.65c.11-4.41-2.82-6.73-3.09-6.9,0,0-1.37-1.21-2.5-.98-1.69.35-1.67,2.74-1.67,2.74l-2.7-1.69c-4.45-2.76-6.55-1.88-7.53-.65-1.78,2.24-.38,6.93,1.49,8.81,1.48,1.49,3.14,3,4.94,4.49.05.05.11.09.16.13,1.97,1.59,4.25,2.65,6.69,3.16,0,0,14.61,8.22,45.49,12.52,1.72.24,3.34-.75,3.94-2.36,4.17-11.19,9.24-36.84,10.27-42.59Z"/>
      </g>
      <path class="cls-4" d="M380.6,229.38c-.19-2.09-1.98-3.98-2-4l1.63-1.58c.1.1,2.36,2.46,2.63,5.37l-2.26.21Z"/>
    </g>
    <path class="cls-15" d="M385.03,184.58s-8.3,10.37-9.12,26.29l11.63.9"/>
    <path class="cls-4" d="M387.47,212.68l-11.63-.9c-.5-.04-.87-.47-.85-.96.82-16.06,11.09-27.62,11.53-28.1l1.37,1.23c-.1.11-9.88,11.14-11,26.07l10.72.83-.14,1.83Z"/>
    <path class="cls-16" d="M389.52,252.27c-.33,1.3-2.28,14.97-2.28,22.45,0,7.48,2.93,27.51,2.28,33.44-.65,5.92.09,36.8.09,36.8,0,0,5.44,3.93,12.59,2.95,0,0,4.88-21.47,2.93-35.78,0,0,10.41-28.3,10.41-38.71,0-10.41-.42-21.47-4.93-23.1s-21.1,1.95-21.1,1.95Z"/>
    <path class="cls-4" d="M399.88,348.99c-6.18,0-10.6-3.13-10.81-3.28-.23-.17-.37-.44-.38-.72-.03-1.26-.74-31.01-.09-36.93.36-3.25-.41-11.01-1.15-18.51-.58-5.92-1.13-11.52-1.13-14.82,0-7.56,1.95-21.24,2.3-22.67.09-.34.36-.6.7-.68.69-.15,16.89-3.62,21.6-1.92,5.11,1.84,5.53,12.85,5.53,23.96,0,10.09-9.35,35.98-10.39,38.81,1.87,14.31-2.77,35.01-2.97,35.88-.09.37-.39.66-.77.71-.84.11-1.66.17-2.45.17ZM390.52,344.45c1.25.78,5.56,3.13,10.92,2.62.78-3.65,4.5-22.2,2.77-34.82-.02-.15,0-.3.05-.44.1-.28,10.35-28.27,10.35-38.39,0-6.71,0-20.67-4.32-22.23-3.35-1.21-15.05.83-20,1.86-.52,2.94-2.14,15-2.14,21.67,0,3.22.55,8.77,1.13,14.64.75,7.6,1.52,15.46,1.15,18.9-.59,5.39,0,32.25.09,36.2Z"/>
    <path class="cls-16" d="M432.79,266.26s2.93,20.82,2.28,28.63c-.65,7.81.09,25.7.09,25.7l1.53,36.01s-8.78,2.83-14.64,0c0,0-3.25-23.65-4.55-32.11-1.3-8.46-1.63-16.27-3.25-20.82-1.63-4.55-5.53-24.39-6.18-28.95-.65-4.56,0-16.27,0-16.27l24.72,7.81Z"/>
    <path class="cls-4" d="M428.47,358.78c-2.29,0-4.72-.34-6.82-1.36-.28-.13-.47-.4-.51-.7-.03-.24-3.27-23.74-4.55-32.1-.46-2.97-.79-5.8-1.11-8.53-.58-4.96-1.08-9.25-2.1-12.12-1.61-4.51-5.55-24.38-6.23-29.13-.66-4.59-.03-15.97,0-16.45.02-.28.16-.54.4-.71.23-.16.53-.21.8-.12l24.72,7.81c.34.11.58.4.63.75.12.85,2.93,21.01,2.28,28.83-.64,7.66.09,25.41.1,25.58l1.53,36.01c.02.41-.24.79-.64.92-.24.08-4.13,1.31-8.5,1.31ZM422.89,355.97c4.53,1.91,10.81.49,12.85-.06l-1.5-35.29c-.03-.73-.74-18.04-.09-25.81.57-6.9-1.73-24.45-2.19-27.85l-23.03-7.27c-.14,3.08-.46,11.33.05,14.9.67,4.71,4.56,24.35,6.14,28.77,1.1,3.06,1.61,7.45,2.2,12.52.32,2.72.65,5.54,1.1,8.47,1.18,7.68,4.01,28.15,4.49,31.62Z"/>
    <path class="cls-15" d="M441.62,195.57c-4.27-8.03-20.85-14.23-20.85-14.23l-6.82,1.04-10.4-4.8s-14.75,2.3-16.99,5.25c-2.24,2.96-3.5,23.8-1.54,31.79,1.96,7.99,1.06,53.09,1.06,53.09,0,0,3.74,1.19,7.3,2.02,2.42.56,16.81,1.67,25.92,1.33,4.32-.16,14.92-1.4,14.92-1.4,0,0,.84-2.16.74-6.72-.4-19.15,1.34-50.7,1.34-50.7,0,0,9.59-8.64,5.32-16.67Z"/>
    <path class="cls-4" d="M411.59,272.2c-8.73,0-18.35-.83-25.84-3.63-.37-.14-.61-.51-.6-.9.02-.32,1.5-32.42-.05-41.01-1.65-9.19-2.88-30.4-1.16-37.24,1.73-6.9,2.15-8.09,6.59-9.67,4.09-1.45,8.87-1.93,9.07-1.95.94.04,19.58,1.17,26.01,4.74,5.68,3.15,16.25,9.03,15.1,18.07-.99,7.82-4.34,24.59-4.62,25.98,0,1.72.04,26.46,0,32.84l-.66,10.26c-.03.43-.35.78-.78.85-.73.11-11.06,1.68-23.08,1.68ZM387.02,267.07c15.9,5.63,41.95,2.38,46.63,1.74l.61-9.46c.04-6.52,0-32.6,0-32.86,0-.06,0-.12.02-.18.04-.18,3.59-17.89,4.62-25.94.92-7.2-6.83-12.15-14.17-16.23-6.06-3.36-24.83-4.5-25.08-4.51.05,0-4.64.49-8.49,1.85-3.51,1.25-3.71,1.56-5.42,8.38-1.62,6.43-.44,27.44,1.18,36.46,1.47,8.2.32,35.92.1,40.75Z"/>
    <path class="cls-9" d="M422.34,173.15s-2.37,1.98-.85,7.59c0,0,1.16,2.34.85,3.07-1.4,3.32-26.55,15.11-23.43-3.3,1.03-6.1,15.92-7.37,15.92-7.37h7.51Z"/>
    <path class="cls-4" d="M409.36,189.99l-1.8-.39c.06-.29,1.56-7.17,6.68-6.76,3.82.27,6.53-2.69,6.55-2.72l1.38,1.22c-.13.15-3.33,3.68-8.07,3.33-3.51-.27-4.73,5.26-4.75,5.32Z"/>
    <path class="cls-4" d="M403.13,189.52c-.47-3.94-3.49-4.02-3.86-4.02l-.04-1.84c1.76-.07,5.18,1.08,5.72,5.64l-1.83.22Z"/>
    <path class="cls-4" d="M410.12,189.41s3.37-5.96,8.74-3.57l-3.61,2.83-5.14.73Z"/>
    <g>
      <path class="cls-9" d="M419.82,174.79c-1.15,2.8-5.06,7.59-18.37,7.48-1.18,0-2.21-.73-2.54-1.76-1.21-3.77-3.45-13.24.62-23.09l.82-3.5,20.26,3.86,1.48,8.45s4.68-.44,3.25,4.12c-.64,2.06-1.9,2.68-3,2.79-1.13.11-2.12.68-2.52,1.64Z"/>
      <path class="cls-4" d="M401.44,183.34c-1.64-.01-3.07-1.02-3.55-2.5-1.21-3.75-3.56-13.55.62-23.74l1.03-4.41,21.72,4.14,1.72,8.35c.88.08,2.14.38,2.96,1.39.81,1,.95,2.39.42,4.11-.88,2.84-2.83,3.43-3.92,3.53-.8.07-1.41.45-1.63.99h0c-1.26,3.06-5.39,8.14-18.91,8.14-.15,0-.3,0-.45,0ZM418.84,174.39c.53-1.29,1.8-2.15,3.4-2.3,1-.09,1.69-.76,2.09-2.04.21-.69.38-1.61-.04-2.13-.49-.61-1.71-.65-2.1-.62l-.98.09-1.52-8.69-18.54-3.53-.59,2.5-.05.16c-3.95,9.57-1.73,18.82-.59,22.36.19.6.83,1.02,1.54,1.02,12.62.13,16.31-4.23,17.38-6.82h0Z"/>
    </g>
    <path class="cls-4" d="M407.7,191.08c-1.65,0-3.44-.16-5.38-.54-5.61-1.09-4.84-6.55-4.33-10.16l1.82.26c-.81,5.69-.17,7.51,2.85,8.1,11.8,2.29,17.24-3.62,18.72-5.62-1.1-1.15-2.83-4.02-.82-9.69l1.73.61c-2.18,6.16.66,8.05.78,8.13.41.26.56.81.32,1.24-.05.09-4.52,7.67-15.7,7.67Z"/>
    <g>
      <path class="cls-9" d="M425.22,212.45s3.57,17.61,5.97,27.83c0,0-3,2.9-3.21,12.48-.16,7.13.59,14.99.59,14.99,0,0-8.3,5.73-7.85,9.06.31,2.31,2.32.69,3.52-.51.22-.22.57,0,.48.3l-1.85,3.91c-.75,2.27-1.46,6.19.67,7.3l2.13.45s9.79-3.58,11.3-16.03c0,0,2.82-20.11,3.94-24.92,1.13-4.81,1.34-35.46,1.34-35.46l-12.04-10.79-4.98,11.4Z"/>
      <path class="cls-4" d="M421.95,280.08l.61-1.28c-.56.23-1.06.26-1.52.1-.51-.17-1.16-.65-1.33-1.95-.46-3.43,5.64-8.14,7.8-9.68-.17-1.97-.68-8.54-.54-14.52.18-7.91,2.24-11.52,3.12-12.71-2.37-10.18-5.82-27.19-5.86-27.37-.04-.2-.02-.42.06-.61l4.98-11.4c.13-.3.39-.51.71-.58.32-.07.65.02.89.24l12.04,10.79c.21.19.34.47.34.76,0,1.26-.23,30.82-1.37,35.69-1.1,4.71-3.9,24.63-3.92,24.81-1.56,12.93-11.53,16.71-11.96,16.86-.18.07-.37.08-.56.04l-2.13-.45c-.09-.02-.17-.05-.26-.09-.32-.17-.6-.37-.83-.61-2.03-2.07-.8-6.49-.29-8.01ZM425.56,287.21c1.62-.16,9.11-4.5,10.39-15.12.11-.82,2.83-20.21,3.96-25.01,1.01-4.33,1.28-30.96,1.31-34.79l-10.66-9.55-4.29,9.83c.49,2.41,3.7,18.15,5.9,27.48.08.34-.03.7-.27.95-.03.03-2.71,2.87-2.91,11.79-.16,6.98.58,14.8.59,14.87.04.37-.13.72-.43.93-3.23,2.24-7.68,6.23-7.42,8.09.01.11.03.2.05.26.27-.1.85-.44,1.75-1.35.43-.43,1.09-.51,1.6-.19.52.32.74.94.51,1.63l-1.8,3.8c-.79,2.4-1.07,5.26.07,6.02,0,0,1.24.4,1.67.36Z"/>
    </g>
    <path class="cls-15" d="M433.71,188.82s9.19,7.96,10.01,11.78c.75,3.54-1.46,24.39-1.46,24.39,0,0-14.23-2.48-17.98-6.53l3.14-22.2,6.3-7.44Z"/>
    <path class="cls-4" d="M442.26,225.91c-.07,0-.14,0-.21-.03-.59-.14-14.52-3.5-18.36-6.71-.23-.19-.35-.48-.33-.78,0-.06.5-6.31.56-8.79l1.84.05c-.05,2.14-.41,6.84-.53,8.39,3.4,2.43,13.3,5.06,16.34,5.83,1.46-6.61,3.76-21.93-.44-26.53-.1-.12-4.22-5.54-9.02-8.49l.96-1.57c5.1,3.14,9.3,8.65,9.47,8.89,5.91,6.46.83,28.12.61,29.04-.06.24-.2.44-.41.57-.15.09-.31.14-.48.14Z"/>
    <path class="cls-4" d="M426.08,169.02c-.57,0-.87-1.23-2.03-1.97-1.47-.94-2.87-.99-3.04-1.84l-1.86-5.19s-.03-.07-.04-.11c-.9-.05-1.76-.24-2.56-.56-.79-.32-1.58-.93-2.5-1.64-1.84-1.43-4.13-3.2-7.47-3.32-1.2-.04-2.39.14-3.44.29-1.72.26-3.21.48-4.13-.42-.56-.55-.77-1.37-.63-2.53,1.31-10.89,6.58-12.41,11.56-12.46,3.74-.39,7.62.25,11.47,1.95,9.87,4.34,10.34,14.73,10.35,16.19.79,2.58-.64,5.47-1.49,7.21l-.17.34c-.33.67-2.45,3.62-3.73,4.02-.09.03-.18.04-.29.04ZM421.49,157.99l-.6,1.37,1.92,5.49c.12.59,2.26,2,3.15,2.3.65-.45,2.17-2.34,2.49-2.99l.17-.35c.8-1.62,2-4.05,1.35-5.95l-.05-.16v-.17c.02-.43.17-10.48-9.25-14.63-3.54-1.56-7.12-2.17-10.62-1.79-4.18.04-8.65.92-9.84,10.84-.1.79.06.97.08.99.27.26,1.6.06,2.58-.08,1.13-.17,2.42-.36,3.78-.31,3.93.14,6.59,2.2,8.53,3.71.81.63,1.5,1.16,2.06,1.39.84.34,1.77.48,2.76.43l1.49-.08Z"/>
    <path class="cls-4" d="M430.85,151.13l-.54-1.76c2.87-.87,6.05-3.74,6.16-6.84.09-2.52-1.89-4.64-5.74-6.13-2.26-.88-4.17-.91-5.68-.08-2.23,1.22-3.08,3.97-3.39,5.51l-1.8-.36c.37-1.85,1.43-5.18,4.31-6.76,2-1.1,4.43-1.1,7.22-.02,6.18,2.4,6.98,5.99,6.91,7.91-.15,3.96-3.91,7.45-7.46,8.53Z"/>
    <path class="cls-4" d="M417.61,141.19l.92-.04h-.92c-.08-1.6.04-4.48,1.84-5.6,1.09-.68,2.51-.55,4.2.38l-.89,1.61c-.73-.41-1.73-.81-2.34-.43-.7.44-1.08,1.99-.98,3.96l-1.84.13Z"/>
    <path class="cls-4" d="M434.71,152.17c-1.45,0-3.23-.45-5.37-1.34l.71-1.7c3.26,1.36,5.52,1.57,6.53.59,1.44-1.37.49-5.13.05-6.34l1.73-.63c.22.59,2.05,5.86-.5,8.31-.78.75-1.82,1.12-3.14,1.12Z"/>
    <path class="cls-4" d="M431.89,159.5l-1.63-.85c2.75-5.26.98-6.31-.07-6.93-.33-.2-.62-.37-.82-.66l.76-.52.69-.6c.07.06.18.12.3.19,2.01,1.19,3.91,3.33.77,9.36Z"/>
    <path class="cls-9" d="M401.15,155.16s1.62-3.84,3.96-4.7,7.66,1.2,9.78,1.72c4.86,1.2,5.07,8.2,5.07,8.2l1.19,6.66-20-11.89Z"/>
    <path class="cls-4" d="M431.71,149.62l-1.83-.23c.31-2.38-.04-4.05-1.03-4.95-1.55-1.41-4.41-.75-5.35-.54-.39.09-.67.15-1.01-.05l.48-.78-.09-.91.21-.05c1.17-.27,4.73-1.09,7,.97,1.46,1.33,2.01,3.53,1.62,6.54Z"/>
    <path class="cls-4" d="M419.71,158.36c-1.5-6.09-5.51-6.45-9.38-6.8-1.1-.1-2.14-.19-3.1-.42-3.52-.82-6.08,3.22-6.11,3.27l-1.57-.97c.13-.21,3.28-5.21,8.09-4.09.83.19,1.81.28,2.85.37,3.88.35,9.19.83,11,8.19l-1.79.44Z"/>
    <polygon class="cls-2" points="428.49 266.5 437.42 268.87 439.35 255.37 442.24 238.36 442.26 224.88 427.01 220.44 427.79 227.22 431.18 240.18 428.44 245.72 427.92 257.58 428.49 266.5"/>
    <g class="cls-23">
      <g>
        <circle class="cls-4" cx="367.9" cy="233.35" r=".32"/>
        <circle class="cls-4" cx="369.8" cy="233.65" r=".32"/>
        <circle class="cls-4" cx="371.69" cy="233.96" r=".32"/>
        <circle class="cls-4" cx="373.59" cy="234.27" r=".32"/>
        <circle class="cls-4" cx="375.49" cy="234.57" r=".32"/>
        <circle class="cls-4" cx="377.38" cy="234.88" r=".32"/>
        <circle class="cls-4" cx="379.28" cy="235.18" r=".32"/>
        <circle class="cls-4" cx="381.18" cy="235.49" r=".32"/>
        <circle class="cls-4" cx="383.07" cy="235.79" r=".32"/>
        <circle class="cls-4" cx="384.97" cy="236.1" r=".32"/>
        <circle class="cls-4" cx="367.17" cy="231.72" r=".32"/>
        <circle class="cls-4" cx="369.07" cy="232.03" r=".32"/>
        <circle class="cls-4" cx="370.97" cy="232.34" r=".32"/>
        <circle class="cls-4" cx="372.86" cy="232.64" r=".32"/>
        <circle class="cls-4" cx="374.76" cy="232.95" r=".32"/>
        <circle class="cls-4" cx="376.66" cy="233.25" r=".32"/>
        <circle class="cls-4" cx="378.56" cy="233.56" r=".32"/>
        <circle class="cls-4" cx="380.45" cy="233.86" r=".32"/>
        <circle class="cls-4" cx="382.35" cy="234.17" r=".32"/>
        <circle class="cls-4" cx="384.25" cy="234.48" r=".32"/>
        <circle class="cls-4" cx="368.38" cy="230.37" r=".32"/>
        <circle class="cls-4" cx="370.28" cy="230.68" r=".32"/>
        <circle class="cls-4" cx="372.17" cy="230.98" r=".32"/>
        <circle class="cls-4" cx="374.07" cy="231.29" r=".32"/>
        <circle class="cls-4" cx="375.97" cy="231.6" r=".32"/>
        <circle class="cls-4" cx="377.86" cy="231.9" r=".32"/>
        <circle class="cls-4" cx="379.76" cy="232.21" r=".32"/>
        <circle class="cls-4" cx="381.66" cy="232.51" r=".32"/>
        <circle class="cls-4" cx="383.55" cy="232.82" r=".32"/>
        <circle class="cls-4" cx="385.45" cy="233.13" r=".32"/>
        <circle class="cls-4" cx="367.65" cy="228.75" r=".32"/>
        <circle class="cls-4" cx="369.55" cy="229.06" r=".32"/>
        <circle class="cls-4" cx="371.45" cy="229.36" r=".32"/>
        <circle class="cls-4" cx="373.34" cy="229.67" r=".32"/>
        <circle class="cls-4" cx="375.24" cy="229.97" r=".32"/>
        <circle class="cls-4" cx="377.14" cy="230.28" r=".32"/>
        <circle class="cls-4" cx="379.03" cy="230.58" r=".32"/>
        <circle class="cls-4" cx="380.93" cy="230.89" r=".32"/>
        <circle class="cls-4" cx="382.83" cy="231.2" r=".32"/>
        <circle class="cls-4" cx="384.73" cy="231.5" r=".32"/>
        <circle class="cls-4" cx="368.83" cy="227.6" r=".32"/>
        <circle class="cls-4" cx="370.72" cy="227.91" r=".32"/>
        <circle class="cls-4" cx="372.62" cy="228.21" r=".32"/>
        <circle class="cls-4" cx="374.52" cy="228.52" r=".32"/>
        <circle class="cls-4" cx="376.41" cy="228.83" r=".32"/>
        <circle class="cls-4" cx="378.31" cy="229.13" r=".32"/>
        <circle class="cls-4" cx="380.21" cy="229.44" r=".32"/>
        <circle class="cls-4" cx="382.1" cy="229.74" r=".32"/>
        <circle class="cls-4" cx="384" cy="230.05" r=".32"/>
        <circle class="cls-4" cx="385.9" cy="230.35" r=".32"/>
        <circle class="cls-4" cx="368.1" cy="225.98" r=".32"/>
        <circle class="cls-4" cx="370" cy="226.28" r=".32"/>
        <circle class="cls-4" cx="371.89" cy="226.59" r=".32"/>
        <circle class="cls-4" cx="373.79" cy="226.9" r=".32"/>
        <circle class="cls-4" cx="375.69" cy="227.2" r=".32"/>
        <circle class="cls-4" cx="377.58" cy="227.51" r=".32"/>
        <circle class="cls-4" cx="379.48" cy="227.81" r=".32"/>
        <circle class="cls-4" cx="381.38" cy="228.12" r=".32"/>
        <circle class="cls-4" cx="383.28" cy="228.43" r=".32"/>
        <circle class="cls-4" cx="385.17" cy="228.73" r=".32"/>
        <circle class="cls-4" cx="369.31" cy="224.63" r=".32"/>
        <circle class="cls-4" cx="371.2" cy="224.93" r=".32"/>
        <circle class="cls-4" cx="373.1" cy="225.24" r=".32"/>
        <circle class="cls-4" cx="375" cy="225.54" r=".32"/>
        <circle class="cls-4" cx="376.89" cy="225.85" r=".32"/>
        <circle class="cls-4" cx="378.79" cy="226.16" r=".32"/>
        <circle class="cls-4" cx="380.69" cy="226.46" r=".32"/>
        <circle class="cls-4" cx="382.58" cy="226.77" r=".32"/>
        <circle class="cls-4" cx="384.48" cy="227.07" r=".32"/>
        <circle class="cls-4" cx="368.58" cy="223" r=".32"/>
        <circle class="cls-4" cx="370.48" cy="223.31" r=".32"/>
        <circle class="cls-4" cx="372.37" cy="223.62" r=".32"/>
        <circle class="cls-4" cx="374.27" cy="223.92" r=".32"/>
        <circle class="cls-4" cx="376.17" cy="224.23" r=".32"/>
        <circle class="cls-4" cx="378.06" cy="224.53" r=".32"/>
        <circle class="cls-4" cx="379.96" cy="224.84" r=".32"/>
        <circle class="cls-4" cx="381.86" cy="225.14" r=".32"/>
        <circle class="cls-4" cx="383.75" cy="225.45" r=".32"/>
        <circle class="cls-4" cx="385.65" cy="225.76" r=".32"/>
        <circle class="cls-4" cx="369.73" cy="222.02" r=".32"/>
        <circle class="cls-4" cx="371.62" cy="222.33" r=".32"/>
        <circle class="cls-4" cx="373.52" cy="222.63" r=".32"/>
        <circle class="cls-4" cx="375.42" cy="222.94" r=".32"/>
        <circle class="cls-4" cx="377.31" cy="223.24" r=".32"/>
        <circle class="cls-4" cx="379.21" cy="223.55" r=".32"/>
        <circle class="cls-4" cx="381.11" cy="223.86" r=".32"/>
        <circle class="cls-4" cx="383" cy="224.16" r=".32"/>
        <circle class="cls-4" cx="384.9" cy="224.47" r=".32"/>
        <circle class="cls-4" cx="380.05" cy="222.12" r=".32"/>
        <circle class="cls-4" cx="381.95" cy="222.42" r=".32"/>
        <circle class="cls-4" cx="383.85" cy="222.73" r=".32"/>
        <circle class="cls-4" cx="381.26" cy="220.77" r=".32"/>
        <circle class="cls-4" cx="383.16" cy="221.07" r=".32"/>
        <circle class="cls-4" cx="385.05" cy="221.38" r=".32"/>
        <circle class="cls-4" cx="382.43" cy="219.45" r=".32"/>
        <circle class="cls-4" cx="384.33" cy="219.75" r=".32"/>
        <circle class="cls-4" cx="381.68" cy="218.16" r=".32"/>
        <circle class="cls-4" cx="383.58" cy="218.47" r=".32"/>
        <circle class="cls-4" cx="382.01" cy="216.63" r=".32"/>
        <circle class="cls-4" cx="383.91" cy="216.94" r=".32"/>
        <circle class="cls-4" cx="381.29" cy="215.01" r=".32"/>
        <circle class="cls-4" cx="383.18" cy="215.31" r=".32"/>
        <circle class="cls-4" cx="382.43" cy="214.02" r=".32"/>
        <circle class="cls-4" cx="384.33" cy="214.33" r=".32"/>
      </g>
      <g>
        <circle class="cls-4" cx="344.26" cy="226.89" r=".32"/>
        <circle class="cls-4" cx="346.14" cy="227.31" r=".32"/>
        <circle class="cls-4" cx="348.01" cy="227.72" r=".32"/>
        <circle class="cls-4" cx="349.89" cy="228.14" r=".32"/>
        <circle class="cls-4" cx="351.77" cy="228.55" r=".32"/>
        <circle class="cls-4" cx="353.64" cy="228.97" r=".32"/>
        <circle class="cls-4" cx="355.52" cy="229.39" r=".32"/>
        <circle class="cls-4" cx="357.39" cy="229.8" r=".32"/>
        <circle class="cls-4" cx="359.27" cy="230.22" r=".32"/>
        <circle class="cls-4" cx="361.15" cy="230.63" r=".32"/>
        <circle class="cls-4" cx="363.02" cy="231.05" r=".32"/>
        <circle class="cls-4" cx="364.9" cy="231.46" r=".32"/>
        <circle class="cls-4" cx="343.67" cy="225.2" r=".32"/>
        <circle class="cls-4" cx="345.54" cy="225.61" r=".32"/>
        <circle class="cls-4" cx="347.42" cy="226.03" r=".32"/>
        <circle class="cls-4" cx="349.3" cy="226.44" r=".32"/>
        <circle class="cls-4" cx="351.17" cy="226.86" r=".32"/>
        <circle class="cls-4" cx="353.05" cy="227.28" r=".32"/>
        <circle class="cls-4" cx="354.92" cy="227.69" r=".32"/>
        <circle class="cls-4" cx="356.8" cy="228.11" r=".32"/>
        <circle class="cls-4" cx="358.68" cy="228.52" r=".32"/>
        <circle class="cls-4" cx="360.55" cy="228.94" r=".32"/>
        <circle class="cls-4" cx="362.43" cy="229.35" r=".32"/>
        <circle class="cls-4" cx="364.3" cy="229.77" r=".32"/>
        <circle class="cls-4" cx="366.18" cy="230.19" r=".32"/>
        <circle class="cls-4" cx="343.04" cy="223.53" r=".32"/>
        <circle class="cls-4" cx="344.91" cy="223.95" r=".32"/>
        <circle class="cls-4" cx="346.79" cy="224.37" r=".32"/>
        <circle class="cls-4" cx="348.67" cy="224.78" r=".32"/>
        <circle class="cls-4" cx="350.54" cy="225.2" r=".32"/>
        <circle class="cls-4" cx="352.42" cy="225.61" r=".32"/>
        <circle class="cls-4" cx="354.29" cy="226.03" r=".32"/>
        <circle class="cls-4" cx="356.17" cy="226.44" r=".32"/>
        <circle class="cls-4" cx="358.05" cy="226.86" r=".32"/>
        <circle class="cls-4" cx="359.92" cy="227.28" r=".32"/>
        <circle class="cls-4" cx="361.8" cy="227.69" r=".32"/>
        <circle class="cls-4" cx="363.67" cy="228.11" r=".32"/>
        <circle class="cls-4" cx="365.55" cy="228.52" r=".32"/>
        <circle class="cls-4" cx="344.28" cy="222.46" r=".32"/>
        <circle class="cls-4" cx="346.15" cy="222.87" r=".32"/>
        <circle class="cls-4" cx="348.03" cy="223.29" r=".32"/>
        <circle class="cls-4" cx="349.9" cy="223.7" r=".32"/>
        <circle class="cls-4" cx="351.78" cy="224.12" r=".32"/>
        <circle class="cls-4" cx="353.65" cy="224.54" r=".32"/>
        <circle class="cls-4" cx="355.53" cy="224.95" r=".32"/>
        <circle class="cls-4" cx="357.41" cy="225.37" r=".32"/>
        <circle class="cls-4" cx="359.28" cy="225.78" r=".32"/>
        <circle class="cls-4" cx="361.16" cy="226.2" r=".32"/>
        <circle class="cls-4" cx="363.03" cy="226.61" r=".32"/>
        <circle class="cls-4" cx="364.91" cy="227.03" r=".32"/>
        <circle class="cls-4" cx="366.79" cy="227.45" r=".32"/>
        <circle class="cls-4" cx="343.65" cy="220.79" r=".32"/>
        <circle class="cls-4" cx="345.52" cy="221.21" r=".32"/>
        <circle class="cls-4" cx="347.4" cy="221.63" r=".32"/>
        <circle class="cls-4" cx="349.27" cy="222.04" r=".32"/>
        <circle class="cls-4" cx="351.15" cy="222.46" r=".32"/>
        <circle class="cls-4" cx="353.03" cy="222.87" r=".32"/>
        <circle class="cls-4" cx="354.9" cy="223.29" r=".32"/>
        <circle class="cls-4" cx="356.78" cy="223.7" r=".32"/>
        <circle class="cls-4" cx="358.65" cy="224.12" r=".32"/>
        <circle class="cls-4" cx="360.53" cy="224.54" r=".32"/>
        <circle class="cls-4" cx="362.4" cy="224.95" r=".32"/>
        <circle class="cls-4" cx="364.28" cy="225.37" r=".32"/>
        <circle class="cls-4" cx="366.16" cy="225.78" r=".32"/>
        <circle class="cls-4" cx="344.93" cy="219.52" r=".32"/>
        <circle class="cls-4" cx="346.8" cy="219.93" r=".32"/>
        <circle class="cls-4" cx="348.68" cy="220.35" r=".32"/>
        <circle class="cls-4" cx="350.56" cy="220.76" r=".32"/>
        <circle class="cls-4" cx="352.43" cy="221.18" r=".32"/>
        <circle class="cls-4" cx="354.31" cy="221.59" r=".32"/>
        <circle class="cls-4" cx="356.18" cy="222.01" r=".32"/>
        <circle class="cls-4" cx="358.06" cy="222.43" r=".32"/>
        <circle class="cls-4" cx="359.93" cy="222.84" r=".32"/>
        <circle class="cls-4" cx="361.81" cy="223.26" r=".32"/>
        <circle class="cls-4" cx="363.69" cy="223.67" r=".32"/>
        <circle class="cls-4" cx="365.56" cy="224.09" r=".32"/>
        <circle class="cls-4" cx="367.44" cy="224.5" r=".32"/>
        <circle class="cls-4" cx="346.17" cy="218.27" r=".32"/>
        <circle class="cls-4" cx="348.05" cy="218.68" r=".32"/>
        <circle class="cls-4" cx="349.93" cy="219.1" r=".32"/>
        <circle class="cls-4" cx="351.8" cy="219.52" r=".32"/>
        <circle class="cls-4" cx="353.68" cy="219.93" r=".32"/>
        <circle class="cls-4" cx="355.55" cy="220.35" r=".32"/>
        <circle class="cls-4" cx="357.43" cy="220.76" r=".32"/>
        <circle class="cls-4" cx="359.3" cy="221.18" r=".32"/>
        <circle class="cls-4" cx="361.18" cy="221.59" r=".32"/>
        <circle class="cls-4" cx="363.06" cy="222.01" r=".32"/>
        <circle class="cls-4" cx="364.93" cy="222.43" r=".32"/>
        <circle class="cls-4" cx="366.81" cy="222.84" r=".32"/>
      </g>
      <g>
        <path class="cls-4" d="M353.71,231.26c-1.27-1.25-.88-3.23-.54-4.98.13-.68.26-1.32.26-1.8,0-1.21-1.27-3.3-1.72-3.94l1.51-1.05c.21.3,2.05,2.99,2.05,4.99,0,.65-.14,1.38-.3,2.15-.24,1.23-.54,2.76.02,3.32l-1.29,1.31Z"/>
        <path class="cls-4" d="M356.65,225.91c-.02-.09-.56-2.13.56-3.88.74-1.15,1.98-1.88,3.7-2.16l.3,1.81c-1.17.19-1.99.64-2.44,1.33-.68,1.05-1.05,2.41-1.05,2.42l-1.07.47Z"/>
        <path class="cls-4" d="M360.34,231.61l-1.79-.4c-.18-2.75-.03-10.52,4.52-10.54l2.63,1.4c-2.21,0-4.46,5.59-5.35,9.54Z"/>
        <path class="cls-4" d="M370.91,232.06c-.24,0-.51-.04-.8-.13-2.58-.82-2.61-4.59-2.61-4.75h1.84c0,.67.25,2.65,1.33,2.99.28.09.37.02.42-.01.3-.22.81-1.07.83-4.29,0-.21,0-.36-.23-.55-.27-.22-1.39-.88-4.64-.2-1.16.24-1.38.76-1.45.93-.44,1.05.43,2.82.78,3.36l-1.55.98c-.19-.3-1.81-2.95-.92-5.06.3-.72,1.03-1.65,2.76-2.01,3.61-.76,5.35-.1,6.19.58.59.48.91,1.13.9,1.84-.01,2.44-.21,4.92-1.59,5.92-.28.21-.7.41-1.26.41Z"/>
        <path class="cls-4" d="M373.14,235.97l-.89-1.61s5.93-2.41,3.12-11.11l1.9.31c5.12,8.55-3.87,12.28-4.13,12.42Z"/>
        <path class="cls-4" d="M349.41,227.19l-3.5-2.9-.04-.38c-.11-1.06.41-4.21,2.49-4.49,1.23-.16,2.18,1.24,2.86,2.01.53.59.72,1.35.54,2.09-.31,1.21-1.62,2.79-1.77,2.97l-.59.7ZM347.71,223.38l1.44,1.2c.37-.52.73-1.11.83-1.51.04-.18-.04-.32-.13-.42-.27-.3-.79-.43-1.4-.35-.58.08-.72.67-.75,1.07Z"/>
      </g>
    </g>
    <rect class="cls-4" x="402.77" y="303.26" width="1.84" height="9.1" transform="translate(-76.8 143.96) rotate(-18.5)"/>
    <path class="cls-4" d="M387.04,258.11l-1.43-1.16c.05-.07,5.43-6.73,5.31-11.95l1.84-.04c.14,5.9-5.48,12.87-5.72,13.16Z"/>
    <path class="cls-7" d="M396.32,168.7s3.3-.72,6.44-.4c2.94.3,5.44,2.34,6.45,2.55,6.26,1.31,11.4-8.26,11.4-8.26l1.88,3.63s-2.11,2.24-2.46,3.3c-.65,2.02.53,3.9.53,3.9,0,0-2.25,7.01-10.81,7.68-5.75.45-9.51,1.16-9.51,1.16l-3.93-13.57Z"/>
    <path class="cls-9" d="M399.59,173.25c.47-2.38,9.29-1.17,9.08,1.33-.08.92-1.24,1.34-3.1,1.38-1.05.02-1.23-1.35-1.7-1.41-.82-.11-1.09,1.41-2.75.88-.97-.31-1.72-1.22-1.53-2.18Z"/>
  </g>
  <g class="cls-22">
    <path class="cls-4" d="M296.49,346.78l-54.14,30.86c-9.7,5.6-21.64,5.6-31.34,0l-54.73-31.96c-8.16-4.7-8.16-16.48,0-21.19l54.14-30.86c9.7-5.6,21.64-5.6,31.34,0l54.73,31.96c8.16,4.71,8.16,16.48,0,21.19Z"/>
  </g>
  <g>
    <g>
      <g>
        <g>
          <path class="cls-12" d="M299.1,312.2c0-.08,0-.15,0-.23v-21.35l-23.99.54-36.26-20.54c-9.7-5.6-21.64-5.6-31.34,0l-20.4,12.17-40.38,7.54v21.8c-.38,4.46,1.63,9.09,6.05,11.64l54.14,30.86c9.7,5.6,21.64,5.6,31.34,0l54.73-31.96c3.98-2.3,6.01-6.28,6.1-10.31h.01v-.17Z"/>
          <path class="cls-4" d="M222.6,360.22c-5.66,0-11.33-1.46-16.38-4.37l-54.14-30.86c-4.62-2.67-7.2-7.63-6.75-12.97v-22.85s41.27-7.71,41.27-7.71l20.19-12.04c10.12-5.84,22.66-5.83,32.76,0l35.92,20.34,25.04-.56v24.48h-.1c-.49,4.28-2.94,8.04-6.71,10.22l-54.72,31.96c-5.05,2.91-10.71,4.37-16.37,4.37ZM148.13,291.49v20.64c-.36,4.36,1.69,8.31,5.35,10.43l54.14,30.86c9.24,5.33,20.71,5.34,29.95.01l54.72-31.96c3.3-1.9,5.32-5.32,5.41-9.13v-.47s.01-19.81.01-19.81l-22.94.52-36.6-20.73c-9.24-5.34-20.71-5.34-29.95-.01l-20.6,12.29-39.48,7.37Z"/>
        </g>
        <g>
          <path class="cls-20" d="M152.78,302.01l54.14,30.86c9.7,5.6,21.64,5.6,31.34,0l54.73-31.96c8.16-4.7,8.16-16.48,0-21.19l-54.14-30.86c-9.7-5.6-21.64-5.6-31.34,0l-54.73,31.96c-8.16,4.71-8.16,16.48,0,21.19Z"/>
          <path class="cls-4" d="M222.6,338.46c-5.66,0-11.33-1.46-16.38-4.37l-54.14-30.86c-4.27-2.46-6.82-6.88-6.82-11.81,0-4.93,2.55-9.34,6.82-11.81l54.72-31.96c10.1-5.83,22.65-5.82,32.75,0l54.14,30.86c4.27,2.47,6.82,6.88,6.82,11.81,0,4.93-2.55,9.34-6.82,11.8l-54.72,31.96c-5.05,2.91-10.71,4.37-16.37,4.37ZM153.48,300.79l54.14,30.86c9.24,5.33,20.71,5.34,29.95.01l54.72-31.96c3.4-1.96,5.43-5.47,5.43-9.38,0-3.92-2.02-7.42-5.41-9.38l-54.14-30.86c-9.24-5.33-20.71-5.34-29.95-.01l-54.72,31.96c-3.4,1.96-5.43,5.47-5.43,9.38,0,3.92,2.02,7.42,5.41,9.38Z"/>
        </g>
      </g>
      <rect class="cls-4" x="220.6" y="336.51" width="2.8" height="22.61"/>
    </g>
    <g>
      <g>
        <g>
          <path class="cls-4" d="M243.81,301.63s-2.62-1.31-4.16,3.93c-1.55,5.23-2.97,7.61-2.38,9.99.59,2.38,9.4,2.62,9.4,2.62,0,0,13.2,6.9,23.19,6.9,9.99,0,4.16-6.42,3.81-6.78-.36-.36-13.14-5.49-14.54-10.11-1.4-4.61-1.6-4.12-1.6-4.12l-13.71-2.42Z"/>
          <path class="cls-4" d="M269.85,326.41c-9.51,0-21.51-5.88-23.54-6.91-3.7-.12-9.65-.78-10.36-3.63-.51-2.05.13-3.92,1.1-6.74.39-1.12.83-2.41,1.29-3.96.74-2.51,1.86-4.11,3.33-4.74.95-.42,1.9-.33,2.51-.1l13.41,2.36c1.03.05,1.42.52,2.81,5.1.65,2.13,4.88,5.04,12.57,8.66,1.19.56,1.4.66,1.64.89.03.03,3.34,3.39,2.14,6.28-.78,1.89-3.04,2.81-6.91,2.81ZM243.07,302.84c-.09,0-.22.02-.37.09-.31.15-1.1.75-1.77,3.01-.47,1.59-.93,2.93-1.33,4.08-.85,2.45-1.35,3.93-1.04,5.2.46.71,4.34,1.49,8.12,1.6h.31s.28.15.28.15c.13.07,13.03,6.74,22.57,6.74,2.9,0,4.18-.59,4.41-1.14.32-.77-.73-2.44-1.46-3.23-.19-.1-.53-.25-.98-.47-5.9-2.77-12.83-6.45-14-10.31-.58-1.9-.92-2.84-1.11-3.29l-13.47-2.42s-.09-.02-.17-.02Z"/>
        </g>
        <g>
          <path class="cls-4" d="M263.79,294.41s8.79,4.42,14.25,9.26c5.46,4.84,9.89-5.65,1.03-13.77-8.86-8.12-14.62-9.01-14.62-9.01l-3.4,4.58,2.73,8.94Z"/>
          <path class="cls-4" d="M280.73,306.05c-1.04,0-2.22-.42-3.46-1.51-5.28-4.68-13.92-9.05-14.01-9.09l-.44-.22-3.04-9.97,4.15-5.6.69.11c.25.04,6.21,1.03,15.22,9.3,6.41,5.87,6.34,12.86,3.83,15.64-.69.77-1.72,1.35-2.95,1.35ZM264.75,293.61c1.88.97,9.18,4.89,14.06,9.2.88.78,2.15,1.48,3.17.34,1.6-1.77,1.74-7.44-3.68-12.4-6.76-6.2-11.67-8.06-13.37-8.56l-2.59,3.5,2.42,7.92Z"/>
        </g>
      </g>
      <g>
        <g>
          <path class="cls-21" d="M251.15,282.96c-4.86.77-12.04,1.76-17.15,1.84-8.23.13-11.61-2.86-19.85-.21-.21.07-.42.14-.64.21-8.72,3.01,10.83-8.76,15.92-12.78,4.23-3.34,26.74-9.38,33.67-11.66.39-.13.66.38.34.63-2.83,2.22-8.01,7.15-10.01,14.58-2.16,8.04-6.42,19.22-8.27,23.96-.51,1.32.16,2.78,1.49,3.25,2.26.8,5.85,1.72,9.55,1.25.8-.1,1.5-.55,1.9-1.25,2.89-5.09,15.99-28.01,23.59-37.39,8.57-10.58,2.95-19.59-3.88-22.8-5.08-2.39-27.46.13-40.87.81-4.62.23-8.17.25-9.58-.23-5.53-1.88-32.18,5.45-32.18,5.45l-9.2,4.6-.04,11.91-2.56,19.89c-.52,4-.05,8.07,1.35,11.86h0c1.42,3.82,4.74,6.61,8.74,7.34h0c1.05.19,2.12.24,3.18.14,5.69-.55,25.03-2.53,33.88-4.8,5.05-1.29,11.06-2.68,15.94-3.77l4.7-12.8Z"/>
          <path class="cls-4" d="M195.53,305.46c-.76,0-1.52-.07-2.28-.21-4.35-.8-8.02-3.87-9.55-8.02-1.46-3.93-1.94-8.21-1.41-12.37l2.56-19.89.03-12.44,9.99-4.97c2.76-.76,27.12-7.35,32.81-5.43,1.65.56,7.32.27,9.18.18,3.29-.17,7.09-.44,11.12-.73,12.87-.93,26.18-1.9,30.26.02,4.34,2.04,7.52,5.83,8.51,10.14.74,3.22.6,8.32-4.25,14.3-7.59,9.38-20.9,32.67-23.49,37.24-.56.98-1.54,1.63-2.69,1.78-3.86.5-7.59-.43-10.04-1.3-.92-.33-1.65-1-2.06-1.88-.4-.88-.43-1.87-.08-2.77.21-.55.46-1.19.74-1.92-5.58,1.26-10.32,2.39-14.11,3.36-8.91,2.29-28.31,4.28-34.04,4.83-.4.04-.8.06-1.2.06ZM187.02,253.87l-.04,11.25-2.57,20.02c-.49,3.82-.04,7.74,1.29,11.35,1.28,3.45,4.32,6,7.93,6.66.96.18,1.93.22,2.89.12,5.69-.55,24.95-2.53,33.72-4.77,4.12-1.06,9.35-2.3,15.56-3.69,1.13-2.99,2.51-6.74,3.79-10.52-4.87.74-11.01,1.51-15.58,1.59-3.22.05-5.74-.36-7.97-.73-3.59-.59-6.69-1.1-11.57.47l-.62.21c-1.37.47-2.93,1.01-3.5-.15-.63-1.27.04-2,10.63-9.09,3.19-2.13,6.2-4.15,7.78-5.4,3.36-2.65,16.82-6.67,26.65-9.6,3.04-.91,5.65-1.69,7.34-2.24.66-.22,1.38.07,1.71.68.33.61.17,1.37-.38,1.81-2.78,2.19-7.73,6.91-9.64,14.01-2.19,8.13-6.54,19.54-8.31,24.07-.14.36-.13.75.03,1.1.16.35.45.62.83.75,2.23.79,5.6,1.63,9.05,1.19.48-.06.88-.32,1.1-.71,2.61-4.6,15.99-28.03,23.69-37.53,3.41-4.21,4.73-8.52,3.83-12.48-.84-3.67-3.58-6.91-7.33-8.68-3.58-1.68-17.78-.65-29.19.18-4.04.29-7.86.57-11.17.74-5.57.28-8.56.2-9.98-.29-4.26-1.45-24.05,3.41-31.45,5.44l-8.52,4.26ZM220.68,282.42c2.02,0,3.84.3,5.7.6,2.25.37,4.59.74,7.59.7,4.79-.08,11.43-.96,16.37-1.73.77-2.34,1.47-4.64,2.03-6.72,1.56-5.8,4.97-10.12,7.83-12.9-1.25.38-2.67.8-4.19,1.26-9.12,2.72-22.91,6.83-25.94,9.23-1.65,1.3-4.69,3.34-7.92,5.5-2.27,1.52-5.03,3.37-7.07,4.83,2.1-.56,3.91-.77,5.58-.77Z"/>
        </g>
        <path class="cls-4" d="M264.13,261.38l-1.98-1.79c.11-.08,3.47-1.91,7.09-1.79l-.07,2.14c-2.92-.12-5.02,1.42-5.04,1.44Z"/>
        <path class="cls-4" d="M218.32,280.9l-1.34-1.67c.09-.07,9.26-7.45,12.96-13.3l1.81,1.15c-3.89,6.15-13.05,13.52-13.43,13.83Z"/>
        <path class="cls-4" d="M225.78,269.04l-1.42-1.61s3.18-2.86,5.65-8.19l1.94.9c-2.67,5.77-6.04,8.77-6.18,8.89Z"/>
      </g>
    </g>
    <path class="cls-8" d="M232.14,209.4s13.72,8.88,21.88,13.81c0,0-.02,3.79,6.07,10.02,4.53,4.63,10.12,9.15,10.12,9.15,0,0-1.55,9.04.9,10.86,1.7,1.27,1.93-1.07,1.91-2.61,0-.28.37-.37.5-.12l1.37,3.69c1,1.93,3.1,4.88,5.17,4.2l1.65-1.09s3.9-8.64-3.24-17.54c0,0-11.28-14.61-13.7-18.4-2.41-3.79-22.2-23.41-22.2-23.41l-14.67.97,4.25,10.49Z"/>
    <path class="cls-4" d="M274.02,254.5l-.45-1.21c-.21.5-.5.85-.9,1.05-.44.22-1.16.34-2.12-.38-2.53-1.88-1.71-8.84-1.34-11.22-1.39-1.14-5.98-4.99-9.79-8.88-5.03-5.14-6.07-8.78-6.28-10.11-8.12-4.92-21.38-13.5-21.52-13.59-.16-.1-.28-.25-.35-.43l-4.25-10.49c-.11-.27-.08-.58.07-.83.16-.25.42-.41.72-.43l14.67-.97c.26-.01.52.08.71.26.81.8,19.89,19.74,22.33,23.57,2.36,3.71,13.54,18.19,13.64,18.32,7.41,9.23,3.53,18.12,3.36,18.49-.07.16-.19.29-.33.39l-1.65,1.1c-.07.05-.14.08-.22.11-.31.1-.62.15-.92.15-2.63,0-4.73-3.61-5.39-4.91ZM280.95,256.68c.92-1.16,2.86-8.78-3.22-16.37-.46-.6-11.34-14.69-13.75-18.47-2.17-3.41-19.31-20.51-21.78-22.96l-12.98.86,3.66,9.04c1.88,1.21,14.15,9.13,21.61,13.63.27.16.44.47.44.78,0,.04.14,3.59,5.81,9.39,4.44,4.54,9.99,9.03,10.04,9.07.26.21.39.54.33.87-.6,3.52-.83,8.95.54,9.97.08.06.15.1.2.13.11-.24.25-.84.24-2,0-.55.36-1.03.89-1.16.54-.13,1.09.12,1.38.71l1.33,3.59c1.06,2.04,2.74,4.04,3.96,3.78,0,0,1.05-.55,1.29-.86Z"/>
    <path class="cls-11" d="M246.5,199.5s-11.04-15.45-24.87-16.58c0,0-22.21.87-29.22,8.27,0,0-11.6,11.34-13.81,30.01,0,0,6.32,6.39,13.97,3.35,0,0-.97,11.27-5.2,26.74l8.2,11.09s5.99,0,9.61-.5c12.35-1.73,30.47-12.78,30.47-12.78,0,0-5.04-13.51-6.94-26.88-1.71-8.13-.83-14.46-.83-14.46l6.99,5.05s4.28-9.42,11.62-13.31Z"/>
    <path class="cls-8" d="M205.68,286.17c-1.39-2.09-.87-1.95-.15-1.44.69.49,1.65.07,1.82-.76.33-1.6.3-3.89-1.95-5.22-3.71-2.2-4.6-2.06-9.03-7.69-4.43-5.63-7.35-15.65-9-19.08,0,0,5.35-20.24,5.21-26.73,0,0,0,0-.01,0-6.34,2.15-11.18-1.01-12.83-2.33-.14.76-3.92,16.5-4.72,30.72,0,0,2.63,7.62,8.95,15.44,6.32,7.83,9.22,14.66,9.22,14.66,0,0,.27,8.48,9.06,10.4,8.79,1.92,5.9-4.26,3.43-7.96Z"/>
    <path class="cls-4" d="M194.84,262.93l-8.2-11.09c-.17-.23-.22-.52-.15-.79,3.3-12.09,4.62-21.7,5.02-25.17-7.46,2.03-13.3-3.76-13.56-4.03-.2-.2-.29-.48-.26-.75,2.22-18.78,13.6-30.09,14.06-30.53,7.19-7.59,28.93-8.52,29.96-8.55,14.09,1.15,25.08,16.32,25.54,16.96.15.22.21.49.15.75-.06.26-.23.48-.46.6-6.97,3.69-11.18,12.79-11.22,12.88-.11.25-.34.44-.6.51-.27.07-.55.02-.77-.14l-5.68-4.1c-.14,2.34-.2,7.07.97,12.64,1.86,13.11,6.84,26.55,6.89,26.69.15.41,0,.88-.38,1.11-.75.46-18.43,11.17-30.83,12.9-3.12.44-9.46.51-9.73.51h0c-.29,0-.57-.14-.74-.37ZM227.82,222.41c-1.73-8.19-.88-14.51-.84-14.78.04-.32.25-.59.55-.72s.64-.09.9.1l6.11,4.42c1.28-2.46,4.95-8.77,10.6-12.21-2.48-3.16-12.13-14.45-23.46-15.38-.22,0-21.91.93-28.61,8.01-.11.11-11.21,11.16-13.49,29,1.32,1.16,6.58,5.27,12.66,2.85.3-.12.63-.07.89.12.26.19.4.5.37.82,0,.11-1.01,11.32-5.11,26.47l7.66,10.35c1.54-.03,6.5-.13,9.02-.49,10.73-1.5,26.16-10.31,29.48-12.27-1.06-2.99-5.08-14.78-6.71-26.29Z"/>
    <path class="cls-4" d="M202.05,294.34c-8.61-1.88-9.66-9.73-9.77-11.07-.44-.99-3.35-7.28-9.03-14.3-6.34-7.86-8.99-15.4-9.1-15.72-.04-.11-.06-.23-.05-.35.48-8.47,2.07-18.93,4.61-30.26.07-.31.11-.5.13-.57.06-.32.28-.58.58-.69.3-.11.64-.06.89.15,1.48,1.19,5.62,3.78,12.03,2.15.23-.06.47-.02.68.09.46.26.47.65.47,1.14v.29s0,.03,0,.05c.13,6.16-4.43,23.3-5.15,25.97.45.98.97,2.36,1.57,3.93,1.72,4.52,4.07,10.72,7.18,14.67,3.57,4.54,4.68,5.16,7.1,6.51.5.28,1.05.58,1.68.96,2.1,1.24,2.94,3.44,2.38,6.19-.14.71-.63,1.29-1.3,1.56-.13.05-.26.09-.4.11,2.48,3.76,3.16,6.51,2.03,8.17-.65.95-1.8,1.43-3.48,1.43-.87,0-1.89-.13-3.06-.38ZM204.19,283.08c.67-.65,1.54-.03,1.87.21.06.04.13.05.21.02.04-.02.15-.07.18-.21.4-1.98-.11-3.41-1.52-4.24-.61-.36-1.15-.66-1.63-.93-2.48-1.38-3.85-2.15-7.65-6.98-3.28-4.17-5.69-10.52-7.45-15.15-.65-1.71-1.21-3.18-1.65-4.1-.1-.2-.12-.43-.06-.64.05-.19,5.09-18.67,5.18-25.35-5.35,1.03-9.21-.59-11.33-1.92-2.4,10.86-3.92,20.88-4.39,29.03.42,1.14,3.11,8.03,8.74,15,6.32,7.84,9.23,14.59,9.35,14.88.04.1.07.22.07.33.01.32.38,7.79,8.34,9.54,2.45.54,4.13.43,4.62-.28.63-.93-.19-3.33-2.15-6.27h0c-.75-1.12-1.46-2.19-.72-2.91Z"/>
    <path class="cls-4" d="M192.57,225.47c.2,0,2.1-.07,5.53-2.5.24-.17.39-.45.39-.75v-7.87s-1.84,0-1.84,0v7.39c-2.68,1.81-4.08,1.89-4.1,1.89l.02,1.84Z"/>
    <rect class="cls-4" x="225.63" y="205.41" width="1.84" height="3.11" transform="translate(-67.18 295.73) rotate(-59.23)"/>
    <path class="cls-4" d="M187.49,252.2c.27-.04,6.77-.89,9.32-4.54l-1.51-1.05c-2.07,2.97-7.98,3.76-8.04,3.76l.23,1.83Z"/>
    <g class="cls-1">
      <path class="cls-4" d="M266.04,239.44c6.55,0,8.68-5.28,8.7-5.33l-1.71-.67.86.33-.86-.34c-.07.18-1.8,4.31-7.3,4.15l-.05,1.84c.12,0,.25,0,.37,0Z"/>
      <path class="cls-4" d="M264.35,237.99c.29-.1,7.01-2.39,8.06-7.44l-1.8-.37c-.83,4.01-6.78,6.05-6.84,6.07l.58,1.74Z"/>
      <rect class="cls-4" x="266.36" y="228.38" width="1.84" height="2.99" transform="translate(-84.6 251.47) rotate(-44.21)"/>
      <rect class="cls-4" x="262.31" y="227.62" width="1.84" height="5.78" transform="translate(-86.08 210.31) rotate(-37.9)"/>
      <path class="cls-4" d="M256.87,229.5s1.9-1.56,3.34-3.25c1.43-1.69,2.63-.73,4.8-.13,2.16.61,2.27-1.17,2.27-1.17l-2.52-3.6s-7.3.31-9.15,5.87l1.26,2.27Z"/>
      <path class="cls-4" d="M261.76,233.48c.12-.34,1.16-1.26,2.19-1.93l-1.01-1.54c-1.37.9-3.01,2.21-3.01,3.38h1.84c0,.05-.01.09-.01.09Z"/>
      <path class="cls-4" d="M256.43,221.53c3.42,0,5.34-2.45,5.88-3.8l-1.7-.7c-.05.11-1.21,2.8-4.45,2.65-1.42-.07-2.38-.55-3.31-1.02-1.46-.73-2.96-1.49-5.39,0l.96,1.57c1.56-.95,2.29-.59,3.61.08,1,.5,2.23,1.12,4.05,1.21.12,0,.24,0,.36,0Z"/>
      <path class="cls-4" d="M258.97,214.89s-.3,4.67-4.27,1.88c-3.97-2.79.25-6.1.25-6.1l4.03,4.22Z"/>
      <path class="cls-4" d="M244.81,218.3c.57-.1,5.6-1.08,6.29-4.45.29-1.43,1.1-2.8,2.4-4.06.18-.18.43-.42.41-.85l-1.84.1.92-.05-.69-.6c-1.65,1.61-2.63,3.29-3,5.09-.38,1.83-3.6,2.79-4.81,3.01l.32,1.81Z"/>
      <path class="cls-4" d="M244.09,216.42c.06-.11,1.43-2.79,2.4-5.86.78-2.47,4.44-3.49,4.48-3.5l-.46-1.78c-.19.05-4.68,1.25-5.77,4.73-.92,2.91-2.26,5.54-2.28,5.57l1.63.84Z"/>
    </g>
    <g class="cls-1">
      <path class="cls-4" d="M189.76,258.01s-.44,7.2-6.62,9.28l9.43,12.76,2.38,1.22c.7.36,1.52.41,2.26.14l.19-.07c.79-.28,1.41-.9,1.7-1.69l1.49-4.05-6.36-7.76-4.47-9.83Z"/>
      <path class="cls-4" d="M182.01,266.27c6.93-3.05,7.46-11.68,7.47-12.05l-1.84-.1c0,.08-.49,7.87-6.38,10.46l.74,1.68Z"/>
      <path class="cls-4" d="M186.24,259.76l1.52-1.04c-1.09-1.58-3.67-6.25-2.58-8.81.42-.99,1.38-1.6,2.93-1.86l-.31-1.81c-2.19.37-3.65,1.37-4.32,2.96-1.7,4.01,2.58,10.3,2.76,10.57Z"/>
      <path class="cls-4" d="M183.52,260.75l1.39-1.21s-2.83-3.33-2.36-7.79l-1.83-.19c-.56,5.27,2.66,9.03,2.8,9.18Z"/>
      <path class="cls-4" d="M180.02,260.79c.04-.17.99-4.29-.55-8.74-1.36-3.93-.54-7.68-.17-8.19l-1.4-1.2c-.88,1.01-1.74,5.46-.18,9.98,1.36,3.92.51,7.68.5,7.71l1.79.42Z"/>
      <path class="cls-4" d="M181.77,248.5c.79,0,1.63-.38,2.17-1.31,1.08-1.87.18-4.55.07-4.85l-1.73.62c.21.59.63,2.35.07,3.32-.27.47-.63.41-.77.36-.06-.02-.36-.14-.33-.45.17-1.37.76-4.4.77-4.43l-1.81-.36c-.03.13-.61,3.13-.79,4.57-.13,1.07.52,2.06,1.57,2.41.24.08.5.12.77.12Z"/>
      <path class="cls-4" d="M177.57,233.31c3.2-1.13,5.19,2.86,7.96,4.85,2.77,1.99,4.85,1.21,4.85,1.21l-1.34,5.34s-5.43-8.05-12.31-6.3l.83-5.1Z"/>
      <path class="cls-4" d="M189.42,237.09c.34,0,.66-.06.96-.18,1.7-.65,2.03-2.77,2.07-3.01l-1.82-.25.91.13-.91-.13c-.05.33-.32,1.33-.91,1.55-.54.2-1.47-.21-2.56-1.12l-1.57-1.33c-3.26-2.79-5.04-4.32-7.65-3.51l.54,1.76c1.55-.48,2.66.38,5.91,3.15l1.58,1.34c1.27,1.07,2.43,1.61,3.44,1.61Z"/>
    </g>
    <path class="cls-20" d="M218.09,206.52c.34-.56.8-1.07,1.39-1.51.69-.52,1.26-.7,1.72-.52s.73.7.84,1.55c.09.76,0,1.51-.3,2.26s-.82,1.4-1.58,1.97-1.36.72-1.82.44c-.29-.17-.47-.44-.54-.82l1.25-.95c.06.24.16.4.3.47s.36,0,.64-.22c.41-.31.66-.72.75-1.25.05-.28.06-.61.01-.97-.05-.38-.13-.66-.24-.83-.21-.32-.52-.33-.93-.01-.29.22-.49.48-.6.79-.08.22-.11.43-.11.64l-1.26.95c-.02-.76.14-1.43.48-1.99Z"/>
    <g>
      <g>
        <g>
          <path class="cls-8" d="M202.14,180.01s.18,2.81-1.25,7.09c0,0,2.02,2.83,5.48,5.08,3.86,2.51,8.81,2.62,12.92.55h0s-2.79-7.01-2.67-11.49c.12-4.48-14.48-1.24-14.48-1.24Z"/>
          <path class="cls-4" d="M205.74,193.16c-3.6-2.35-5.71-5.26-5.79-5.38l-.34-.48.19-.56c1.33-3.98,1.2-6.63,1.2-6.65l-.06-.99.97-.21c1.94-.43,11.75-2.44,14.83.1.72.59,1.08,1.39,1.06,2.31-.11,4.18,2.56,10.96,2.59,11.03l.39.99-.95.48c-1.78.89-3.68,1.4-5.58,1.54-2.99.21-5.98-.52-8.5-2.15ZM215.47,181.22c0-.2-.05-.32-.22-.46-1.52-1.25-7.61-.68-11.96.19-.05,1.16-.28,3.24-1.11,5.92.69.85,2.39,2.76,4.82,4.34,3.15,2.05,7.22,2.37,10.83.92-.79-2.17-2.46-7.26-2.36-10.91Z"/>
        </g>
        <g>
          <path class="cls-8" d="M221.72,157.69s4.39,8.75,4.01,17.41c-.15,3.53-.96,7-2.18,10.31l-.69,1.87c-.27.74-.94,1.25-1.73,1.29-2.79.16-9.56-.05-15.46-4.87l-2.21-2.24c-.29-.3-.56-.75-.79-1.23-.61-1.28-1.5-2.42-2.68-3.19-.71-.47-1.47-1.22-1.92-2.41-.45-1.2-.31-2.54.18-3.73h0c.37-.89,1.34-1.35,2.26-1.08l-.22-5.68,8.06-6.13,13.37-.32Z"/>
          <path class="cls-4" d="M220.94,189.79c-2.81.16-10.01-.03-16.35-5.21l-2.21-2.24c-.36-.36-.69-.87-1.01-1.55-.56-1.19-1.33-2.1-2.27-2.72-1.1-.72-1.9-1.72-2.37-2.98-.52-1.39-.45-3.02.2-4.59.48-1.15-.57-4.32.61-4.31l10.01-9.41,15.28,1.69,1.03,1.91c.13.24,3.15,5.95,2.77,14.83-.15,3.43-.91,7.01-2.25,10.66l-.69,1.87c-.43,1.16-1.49,1.96-2.71,2.04h-.04ZM208.63,159.35l-9.03,8.79.32,2.85c-.35-.1-.71.07-.86.41-.42,1.02-.48,2.04-.17,2.88.29.78.79,1.41,1.47,1.85,1.29.84,2.36,2.11,3.1,3.67.27.57.47.82.57.92l2.12,2.16c5.61,4.59,12.12,4.75,14.66,4.61.34-.06.59-.22.71-.54l.69-1.87c1.26-3.42,1.97-6.77,2.11-9.96.3-6.8-2.1-13.64-2.77-15.13l-12.92-.63Z"/>
        </g>
      </g>
      <path class="cls-4" d="M213.61,193.87s.55-4.18-1.06-5.27c-1.61-1.09-9.59-1.42-9.92-.57s1.69,2.38,2.27,2.68,4.74,3.23,5.45,3.16,3.25,0,3.25,0Z"/>
      <path class="cls-4" d="M215.99,188.87s-.99,2.56-.43,4.37l3.07-.69s.03-1.99-.17-2.38-.23-1.53-.85-1.5-1.62.2-1.62.2Z"/>
      <path class="cls-4" d="M205.21,186.75c1.97,0,3.13-.59,3.67-.88l-.68-1.72-.16.08c-.7.36-2.34,1.2-5.87.2l-.5,1.77c1.4.4,2.57.54,3.54.54Z"/>
      <path class="cls-4" d="M223.6,159.9s-12.08-1.9-21.1,3.75l2.78,4.56-4.24,3.35s-2.85-4.36-3.03-.62.38,7.46,2.92,8.15c0,0-8.83-3.63-7.94-16.22.73-10.26,10.08-14.68,13.93-14.67,8.2.01,15.91,2.43,16.69,11.69Z"/>
      <ellipse class="cls-8" cx="199.6" cy="172.52" rx="1.65" ry="2.69" transform="translate(-31.89 45.97) rotate(-12.17)"/>
      <path class="cls-4" d="M225.73,175.1s-3.3-.72-6.44-.4c-2.94.3-5.44,2.34-6.45,2.55-6.26,1.31-7.56-9.03-7.56-9.03l-4.24,3.35s1.33,3.08,1.67,4.14c.65,2.02-1.82,2.02-1.82,2.02,0,0,5.8,8.48,11.41,9.79,5.61,1.3,9.51,1.16,9.51,1.16l3.93-13.57Z"/>
      <path class="cls-8" d="M223.84,178.47c-.47-2.38-9.29-1.17-9.08,1.33.08.92,1.24,1.34,3.1,1.38,1.05.02,1.23-1.35,1.7-1.41.82-.11,1.09,1.41,2.75.88.97-.31,1.72-1.22,1.53-2.18Z"/>
    </g>
    <path class="cls-20" d="M219.44,205.55l.29-.27c.05-.05,1.32-1.26.84-3.7-.24-1.18.08-1.84.51-2.76.33-.7.75-1.58.98-2.88.53-2.99-.66-6.06-.71-6.19,0,0-.27.04-.36.05-.1,0-.4.02-.4.02.01.03,1.23,3.22.74,6-.21,1.21-.59,2-.92,2.7-.46.97-.85,1.8-.57,3.22.28,1.4-.1,2.29-.38,2.72-.75-.78-2.86-2.58-6.18-2.37-3.98.28-9.52-2.16-12.12-5.28-2.09-2.52-2.33-8.18-1.04-11.17.07-.17-.54-.38-.69-.27-1.04.81-1.96,8.18,1.16,11.91,2.79,3.32,8.46,5.83,12.73,5.55,3.71-.24,5.83,2.4,5.86,2.43l.25.31Z"/>
  </g>
  <g>
    <g class="cls-23">
      <path class="cls-14" d="M354.74,66.42c-.93-.54-2.27-1.04-3.38-.4-1.15.66-1.83,2.44-1.83,4.75v34.01c0,4.97,3.1,10.95,6.77,13.07l6.07,3.33.14.68c.93,4.39,4.04,14.79,13.33,21.31-.85-3.09-1.7-7.83-.64-12.28l.48-1.99,28.63,15.9c.93.54,2.27,1.04,3.38.4,1.15-.66,1.83-2.44,1.83-4.75v-34.01c0-4.97-3.1-10.95-6.76-13.07l-48.02-26.96Z"/>
    </g>
    <g>
      <g>
        <polygon class="cls-13" points="359.96 111.56 359.9 111.52 359.9 77.6 359.96 77.63 359.96 111.56"/>
        <polygon class="cls-13" points="364.67 114.27 364.61 114.24 364.61 80.32 364.67 80.35 364.67 114.27"/>
        <polygon class="cls-13" points="369.38 116.99 369.32 116.96 369.32 83.04 369.38 83.07 369.38 116.99"/>
        <polygon class="cls-13" points="374.09 119.71 374.03 119.68 374.03 85.75 374.09 85.79 374.09 119.71"/>
        <polygon class="cls-13" points="378.8 122.43 378.74 122.4 378.74 88.47 378.8 88.51 378.8 122.43"/>
        <polygon class="cls-13" points="397.22 107.7 357.35 84.68 357.35 84.6 397.22 107.62 397.22 107.7"/>
        <polygon class="cls-13" points="383.51 125.15 383.45 125.11 383.45 91.19 383.51 91.23 383.51 125.15"/>
        <polygon class="cls-13" points="388.22 127.87 388.16 127.83 388.16 93.91 388.22 93.95 388.22 127.87"/>
        <polygon class="cls-13" points="392.93 130.59 392.87 130.55 392.87 96.63 392.93 96.67 392.93 130.59"/>
        <polygon class="cls-13" points="392.93 130.59 392.87 130.55 392.87 96.63 392.93 96.67 392.93 130.59"/>
        <polygon class="cls-13" points="397.22 102.3 357.35 79.28 357.35 79.2 397.22 102.22 397.22 102.3"/>
        <polygon class="cls-13" points="397.22 113.1 357.35 90.08 357.35 90 397.22 113.02 397.22 113.1"/>
        <polygon class="cls-13" points="397.22 118.5 357.35 95.48 357.35 95.4 397.22 118.42 397.22 118.5"/>
        <polygon class="cls-13" points="397.22 123.89 357.35 100.88 357.35 100.8 397.22 123.82 397.22 123.89"/>
        <polygon class="cls-13" points="397.22 129.29 357.35 106.28 357.35 106.2 397.22 129.22 397.22 129.29"/>
      </g>
      <g>
        <polygon class="cls-19" points="360.51 91.64 359.35 90.97 359.35 84.42 360.51 85.09 360.51 91.64"/>
        <polygon class="cls-19" points="360.01 85.07 359.88 85 359.88 80.32 360.01 80.4 360.01 85.07"/>
        <polygon class="cls-19" points="360.01 91.79 359.88 91.71 359.88 90.27 360.01 90.35 360.01 91.79"/>
      </g>
      <g>
        <polygon class="cls-21" points="363.7 91.77 362.55 91.1 362.55 86.05 363.7 86.72 363.7 91.77"/>
        <polygon class="cls-21" points="363.21 86.71 363.08 86.63 363.08 85.57 363.21 85.65 363.21 86.71"/>
        <polygon class="cls-21" points="363.21 92.32 363.08 92.24 363.08 90.41 363.21 90.48 363.21 92.32"/>
      </g>
      <g>
        <polygon class="cls-19" points="365.22 92.64 364.06 91.97 364.06 90.07 365.22 90.74 365.22 92.64"/>
        <polygon class="cls-19" points="364.72 90.73 364.59 90.66 364.59 89.6 364.72 89.67 364.72 90.73"/>
        <polygon class="cls-19" points="364.72 95.73 364.59 95.66 364.59 91.28 364.72 91.36 364.72 95.73"/>
      </g>
      <g>
        <polygon class="cls-21" points="366.75 97.29 365.6 96.62 365.6 91.28 366.75 91.95 366.75 97.29"/>
        <polygon class="cls-21" points="366.26 91.94 366.13 91.86 366.13 91.18 366.26 91.26 366.26 91.94"/>
        <polygon class="cls-21" points="366.26 98.65 366.13 98.58 366.13 92.49 366.26 92.56 366.26 98.65"/>
      </g>
      <polygon class="cls-19" points="368.29 112.97 367.13 112.3 367.13 97.91 368.29 98.58 368.29 112.97"/>
      <g>
        <polygon class="cls-21" points="369.42 104.14 369.29 104.06 369.29 99.68 369.42 99.76 369.42 104.14"/>
        <polygon class="cls-21" points="369.42 115.82 369.29 115.74 369.29 111.36 369.42 111.44 369.42 115.82"/>
        <polygon class="cls-21" points="369.93 113.92 368.77 113.25 368.77 101.78 369.93 102.45 369.93 113.92"/>
      </g>
      <g>
        <polygon class="cls-19" points="370.75 105.82 370.62 105.74 370.62 101.36 370.75 101.44 370.75 105.82"/>
        <polygon class="cls-19" points="371.26 103.01 370.1 102.35 370.1 101.63 371.26 102.3 371.26 103.01"/>
      </g>
      <g>
        <polygon class="cls-19" points="374.13 110.52 374 110.45 374 104.59 374.13 104.67 374.13 110.52"/>
        <polygon class="cls-19" points="374.64 108.42 373.48 107.75 373.48 107.04 374.64 107.71 374.64 108.42"/>
      </g>
      <g>
        <polygon class="cls-19" points="381.53 118.31 381.4 118.24 381.4 114.15 381.53 114.23 381.53 118.31"/>
        <polygon class="cls-19" points="382.05 117.27 380.89 116.6 380.89 115.49 382.05 116.16 382.05 117.27"/>
      </g>
      <g>
        <polygon class="cls-21" points="383.08 120.97 382.95 120.89 382.95 116.37 383.08 116.45 383.08 120.97"/>
        <polygon class="cls-21" points="383.6 119.51 382.44 118.84 382.44 117.41 383.6 118.07 383.6 119.51"/>
      </g>
      <g>
        <polygon class="cls-21" points="375.38 111.07 375.25 110.99 375.25 105.14 375.38 105.21 375.38 111.07"/>
        <polygon class="cls-21" points="375.9 108.3 374.74 107.64 374.74 105.78 375.9 106.44 375.9 108.3"/>
      </g>
      <g>
        <polygon class="cls-21" points="380.18 121.11 380.05 121.04 380.05 114.03 380.18 114.1 380.18 121.11"/>
        <polygon class="cls-21" points="380.7 117.83 379.54 117.16 379.54 115.07 380.7 115.74 380.7 117.83"/>
      </g>
      <g>
        <polygon class="cls-21" points="372.33 107.26 372.2 107.19 372.2 102.36 372.33 102.43 372.33 107.26"/>
        <polygon class="cls-21" points="372.85 107.16 371.69 106.49 371.69 102.75 372.85 103.42 372.85 107.16"/>
      </g>
      <g>
        <polygon class="cls-19" points="384.53 120.65 384.39 120.58 384.39 114.71 384.53 114.79 384.53 120.65"/>
        <polygon class="cls-19" points="385.04 120.41 383.88 119.74 383.88 114.81 385.04 115.48 385.04 120.41"/>
      </g>
      <g>
        <polygon class="cls-21" points="389.18 120.17 389.05 120.09 389.05 115.3 389.18 115.38 389.18 120.17"/>
        <polygon class="cls-21" points="389.7 118.64 388.54 117.97 388.54 115.23 389.7 115.89 389.7 118.64"/>
      </g>
      <g>
        <polygon class="cls-19" points="390.66 120.34 390.53 120.26 390.53 105 390.66 105.08 390.66 120.34"/>
        <polygon class="cls-19" points="391.18 116.75 390.02 116.08 390.02 106.31 391.18 106.98 391.18 116.75"/>
      </g>
      <g>
        <polygon class="cls-21" points="392.97 112.9 392.84 112.82 392.84 107.14 392.97 107.21 392.97 112.9"/>
        <polygon class="cls-21" points="393.48 109.91 392.32 109.24 392.32 107.37 393.48 108.04 393.48 109.91"/>
      </g>
      <g>
        <polygon class="cls-19" points="394.84 110.89 394.71 110.82 394.71 103.37 394.84 103.44 394.84 110.89"/>
        <polygon class="cls-19" points="395.36 110.73 394.2 110.06 394.2 103.74 395.36 104.41 395.36 110.73"/>
      </g>
      <g>
        <polygon class="cls-21" points="386.11 119.06 385.98 118.99 385.98 115.4 386.11 115.47 386.11 119.06"/>
        <polygon class="cls-21" points="386.63 117.06 385.47 116.39 385.47 115.94 386.63 116.61 386.63 117.06"/>
      </g>
      <g>
        <polygon class="cls-19" points="387.55 121.41 387.42 121.33 387.42 116.97 387.55 117.05 387.55 121.41"/>
        <polygon class="cls-19" points="388.07 118.15 386.91 117.48 386.91 117.03 388.07 117.7 388.07 118.15"/>
      </g>
      <g>
        <polygon class="cls-19" points="378.84 118.64 378.71 118.57 378.71 108.07 378.84 108.14 378.84 118.64"/>
        <polygon class="cls-19" points="379.35 117.05 378.19 116.38 378.19 108.37 379.35 109.04 379.35 117.05"/>
      </g>
    </g>
  </g>
  <g class="cls-24">
    <g class="cls-1">
      <g>
        <rect class="cls-4" x="333.6" y="145.84" width="2.99" height="1.84" transform="translate(-4.27 10.16) rotate(-1.73)"/>
        <path class="cls-4" d="M336.34,138.98c-.4.45-2.61,1.18-4.64,1.55l.55,3.03c2.71-.49,6.09-1.45,6.86-3.26l-2.84-1.2c.04-.08.07-.13.07-.13Z"/>
        <path class="cls-4" d="M346.11,162.59c-.38-.44-3.8-4.26-7.05-3.12-1.38.48-2.97.49-4.72.02-.25-.07-.58-.16-.94.08l1.03,1.53-.51-.76-.16.9c2.22.59,4.17.57,5.91-.04,1.77-.62,4.24,1.66,5.05,2.59l1.39-1.2Z"/>
        <g id="wvP6la">
          <g>
            <path class="cls-4" d="M339.43,154.19c-.08.05-.16.1-.25.14-.55.3-1.1.3-1.66.04-.18-.08-.35-.21-.53-.3-.1-.05-.22-.07-.34-.12-.04-.01-.08-.04-.1-.07-.26-.71-.46-1.42-.36-2.19.04-.26.14-.49.28-.72.17-.27.31-.55.44-.83.29-.65.67-1.21,1.28-1.59.26-.16.54-.25.84-.31.26-.05.52-.14.78-.21.41-.11.82-.12,1.24-.03.32.06.64.08.97.12,0-.02.01-.03.02-.05-.06-.03-.12-.07-.19-.1-.77-.33-1.56-.55-2.37-.73-.3-.07-.6-.12-.9-.17-.36-.06-.65.04-.85.36-.35.55-.86.93-1.35,1.33-.24.19-.46.4-.7.6-.34.29-.46.66-.49,1.09-.05.73.21,1.38.51,2.02.08.18.18.35.27.52-.29.29-.27.64-.17.99.12.44.4.77.78,1.01.27.17.57.3.86.45.04.02.09.04.16.06-1.05.07-1.99-.66-2.18-1.69-.07-.37-.1-.75-.11-1.12-.03-.7-.06-1.39-.21-2.08-.03-.15-.03-.31-.04-.47-.01-.45.13-.83.46-1.14.32-.29.66-.56.97-.86.4-.37.77-.76,1.16-1.15.07-.07.13-.15.21-.19.09-.04.22-.09.3-.05.61.29,1.27.32,1.91.45.59.12,1.15.31,1.68.59.05.02.1.04.13.08.22.23.5.24.78.22.06,0,.11,0,.17,0,.14,0,.19.06.22.19.07.29.16.58.28.89.18-.35.46-.28.75-.24.6.08,1.19.22,1.74.5.18.09.37.15.56.21.1.03.16.08.19.17.14.56.3,1.12.43,1.68.19.83.34,1.68.64,2.48.06.15.12.3.17.46.03.1.02.18-.07.25-.33.26-.66.52-.99.78-.18.14-.35.29-.52.44.01.02.02.03.02.03.8.16,1.26.67,1.49,1.43.11.37.14.76.13,1.15,0,.08-.02.13-.12.14-1.12.07-2.23.08-3.31-.27-.3-.1-.6-.26-.86-.45-.2-.14-.33-.38-.5-.58-.99.71-2.1,1.11-3.38.73-.02.13-.03.24-.04.36-.06.48-.27.89-.61,1.22-.5.47-1,.94-1.51,1.41-.56-.54-.98-1.16-1.05-1.98-.74.55-1.63.64-2.44.95-.12-.51.24-1.37.73-1.71-.57-.2-1.09-.5-1.7-.53,0-.03,0-.05.01-.07.33-.64.37-1.34.34-2.04-.02-.35-.06-.7-.12-1.04-.07-.37.02-.68.3-.94.13-.11.25-.23.38-.33.1-.07.11-.14.07-.24-.07-.17-.15-.34-.2-.51-.02-.08-.04-.2,0-.26.35-.53.72-1.04,1.19-1.47-.03.05-.06.09-.09.14-.2.3-.4.6-.59.91-.16.26-.19.53-.11.82.1.35.19.7.3,1.04.2.64.59,1.15,1.17,1.5.79.48,1.61.92,2.47,1.27.49.2,1.01.32,1.55.29-.29.25-.61.47-1.03.58.08.04.13.06.17.08,1.25.57,2.48.52,3.69-.12.45-.24.91-.46,1.26-.84.15-.16.29-.33.41-.52.07-.11.09-.26.09-.39,0-.15-.02-.29-.03-.44.01,0,.03,0,.03,0,.31.2.5.02.61-.21.15-.33.18-.69.18-1.04,0-.68-.14-1.33-.48-1.93-.16-.27-.36-.49-.62-.66-.09-.06-.16-.07-.26,0-.38.27-.77.54-1.16.81.03-.05.05-.1.08-.14.23-.37.46-.75.69-1.12.33-.52.33-1.03-.01-1.56-.17-.26-.3-.55-.44-.84-.05-.11-.11-.14-.24-.11-.39.1-.79.05-1.18-.04-.35-.08-.69-.17-1.04-.24-.3-.06-.61-.03-.95.06.17.04.3.07.37.09-.27.02-.6.04-.92.08-.26.03-.48.16-.68.32-.6.48-.96,1.11-1.23,1.81-.03.08-.08.15-.14.21-.17.16-.33.32-.31.58,0,.04-.04.09-.07.13-.16.21-.21.44-.11.69.01.03.03.07.03.1-.06.17.05.24.16.32.06.05.11.12.16.18.06.07.1.15.16.22.25.26.45.54.58.89.13.38.41.51.81.46.13-.02.27-.04.38-.09.24-.11.48-.09.73-.02h0ZM334.12,153.43c-.22.27-.35.55-.39.87-.06.41.05.8.13,1.19.16.71.03,1.36-.41,1.95-.02.03-.04.07-.06.1.02.02.04.03.06.04.06.03.12.07.18.09.74.34,1.53.5,2.34.43.41-.03.81-.14,1.14-.4.26-.21.5-.43.75-.64-.09-.15-.14-.19-.33-.2-.33-.02-.66-.03-.99-.05-.04,0-.12-.05-.12-.09-.05-.31-.21-.55-.43-.76-.24-.23-.49-.46-.76-.66-.44-.33-.73-.75-.9-1.27-.06-.19-.12-.39-.19-.6ZM343.33,149.25c.08.08.12.13.18.17.11.07.24.12.35.19,1.62.96,2.52,3.28,1.98,5.08-.24.81-.72,1.42-1.55,1.69-.07.02-.13.04-.24.07.07.01.09.02.12.02.24-.06.48-.1.7-.18.48-.17.96-.35,1.36-.68.41-.34.81-.68,1.21-1.02.12-.1.14-.2.08-.35-.3-.72-.59-1.44-.88-2.16-.23-.6-.47-1.19-.52-1.84,0-.04-.04-.09-.08-.12-.58-.35-1.18-.68-1.85-.85-.26-.07-.53-.11-.86-.03ZM337.63,160.01c.17-.88.33-1.76.77-2.56-.11-.05-.21-.1-.3-.15-.29.63-.53,1.92-.47,2.71ZM346.7,157.63c-.36-.43-.77-.78-1.34-.89-.13-.02-.3-.06-.4,0-.36.18-.73.19-1.11.1-.14-.03-.2.04-.27.15,1.12-.14,2.19-.07,3.12.66ZM334.55,159.2c.42-.58,1.07-.64,1.7-.77-.08-.03-.16-.05-.23-.04-.16.01-.32.05-.48.06-.41.01-.85.34-.99.75Z"/>
            <path class="cls-4" d="M341.85,150.36c-.1.19-.18.37-.27.55.15-.85.12-1.63-.65-2.22.07,0,.13,0,.2,0,.44.07.76.31.98.69.35.59.39,1.23.32,1.89-.06.5-.19.98-.37,1.45.43-.43.9-.72,1.56-.63-.14,1.02-.35,2-.93,2.86-.7,1.06-1.67,1.72-2.87,2.08.02-.14.04-.28.05-.4-.04-.03-.04-.03-.05-.03-.56.09-.98-.15-1.33-.55-.14-.15-.27-.3-.4-.46-.02.02-.02.02-.01,0,.16-.22.36-.14.57-.08.48.16.96.13,1.43-.08.3-.14.6-.28.88-.45.18-.11.33-.27.46-.43.12-.14.23-.23.43-.19.18.03.32-.07.45-.21-.09,0-.17-.02-.26,0-.41.09-.82.2-1.23.3-.39.1-.78.2-1.16.3-.05.01-.11,0-.19.01.08-.14.17-.2.31-.2.11,0,.21-.03.31-.06.11-.03.22-.08.33-.09.18-.01.34-.07.47-.2.31-.29.59-.61.73-1.02.12-.34.21-.69.3-1.04.04-.15,0-.3-.14-.4.03-.02.05-.03.07-.04.26-.08.39-.25.39-.53,0-.33-.06-.63-.37-.86Z"/>
            <path class="cls-4" d="M339.63,152.71c.14-.13.26-.23.37-.34.28-.29.45-.62.49-1.03.02-.17.06-.33.09-.49.01-.08.04-.17.01-.24-.12-.34-.36-.58-.69-.73-.07-.03-.2,0-.27.04-.21.13-.43.21-.66.29-.22.07-.42.09-.64.08-.27,0-.54.06-.82.09.05-.03.1-.06.15-.09.37-.19.73-.38,1.1-.57.79-.4,1.73-.22,2.11.5.35.68.41,1.3-.14,1.84-.3.3-.65.53-1.08.65Z"/>
            <path class="cls-4" d="M338.82,152.73c.07-.06.16-.12.21-.19.1-.15.21-.3.24-.46.07-.31-.09-.44-.36-.37-.07.12-.11.21-.17.29-.02.03-.07.04-.11.06-.02-.04-.04-.08-.05-.12,0-.02,0-.05,0-.1-.07.3.09.73.38.71-.1.07-.17.11-.24.16.01.01.03.04.07.08-.04.02-.07.05-.11.05-.48.1-1.03-.06-1.35-.5-.13-.18-.18-.38-.06-.59.12-.22.32-.3.55-.33-.03.28-.05.55-.08.82.02,0,.04.01.06.02.05-.5.28-.9.66-1.23-.02.03-.04.07-.05.1-.17.32-.35.63-.38,1-.02.22.04.42.21.58-.18-.36-.03-.68.1-1,.1-.25.43-.41.69-.38.24.03.42.23.4.48-.04.39-.22.7-.56.91,0,0-.02,0-.03,0ZM338.52,152.57s.02,0,.04-.01c-.06-.17-.11-.34-.17-.51-.02,0-.03.01-.05.02l.19.5Z"/>
            <path class="cls-4" d="M338.16,152.96c.51.03,1.01.04,1.51-.07.5-.11.94-.31,1.23-.75.1-.15.16-.33.25-.51.01.21.03.41.04.61,0,.03,0,.07-.02.1-.19.37-.41.71-.71,1.01-.03.03-.1.06-.14.05-.63-.11-1.26-.23-1.89-.35-.09-.02-.18-.06-.26-.1Z"/>
            <path class="cls-4" d="M339.43,154.19c-.24-.1-.49-.2-.73-.3-.62-.26-1.1-.67-1.47-1.23-.02-.03-.03-.05-.04-.08,0-.01,0-.03.01-.07.14.14.29.27.42.42.33.37.77.5,1.25.5.37,0,.74,0,1.11.01.1,0,.2.03.29.04,0,.01,0,.03.01.04-.29.22-.57.44-.86.66,0,0,0,0,0,0Z"/>
            <path class="cls-4" d="M339.68,152.18c-.05-.22-.09-.41-.15-.59-.07-.22-.18-.39-.44-.48-.19-.07-.34-.09-.52,0,.2-.27.8-.36,1.05-.14.06.05.11.14.12.22.05.32.02.64-.06.98Z"/>
            <path class="cls-4" d="M339.64,152.53c.07-.24.16-.47.21-.71.04-.23.06-.46.05-.69-.02-.24-.18-.38-.41-.43-.04-.01-.09-.01-.13-.04-.25-.16-.48-.11-.72.06.17-.23.34-.28.59-.19.09.03.18.07.28.07.24.01.38.14.45.35.06.19.06.4.12.59.15.46-.17.71-.43.99Z"/>
            <path class="cls-4" d="M339.05,154.96c-.54.38-2.4-.11-2.47-.77.71.58,1.49.96,2.47.77Z"/>
            <path class="cls-4" d="M340.23,151.69c-.09-.59-.25-1.11-.84-1.42.75.1,1.12.73.84,1.42Z"/>
            <path class="cls-4" d="M338.19,150.6c-.22.16-.26.41-.32.64-.03.11-.07.16-.18.16-.08,0-.16.03-.24.04-.24.05-.39.19-.44.43-.03-.23.03-.35.22-.44.05-.03.11-.05.17-.07.16-.05.28-.15.35-.31.08-.21.24-.35.45-.45Z"/>
            <path class="cls-4" d="M339.53,151.91c.27.68-.03.98-.72.99.57-.1.77-.46.72-.99Z"/>
            <path class="cls-4" d="M338.77,152.17c.36-.02.43-.1.35-.38.14.1.16.25.03.42-.09.12-.18.12-.38-.04Z"/>
          </g>
        </g>
        <g id="wvP6la-2" data-name="wvP6la">
          <g>
            <path class="cls-4" d="M342.03,141.43c-.09,0-.19,0-.28-.01-.62-.04-1.09-.33-1.43-.85-.11-.17-.19-.36-.29-.54-.06-.1-.15-.18-.22-.28-.02-.03-.05-.08-.04-.11.15-.74.36-1.45.86-2.05.17-.2.38-.34.62-.46.28-.14.56-.3.82-.47.59-.39,1.21-.67,1.93-.67.3,0,.59.07.88.18.25.1.51.16.77.24.4.13.76.34,1.07.63.24.22.5.41.75.62.01-.01.03-.02.04-.03-.03-.06-.07-.12-.11-.18-.47-.68-1.03-1.29-1.62-1.88-.22-.21-.44-.42-.67-.62-.27-.24-.57-.31-.92-.15-.59.28-1.22.33-1.85.41-.3.04-.6.09-.91.14-.44.06-.74.32-.99.67-.43.59-.55,1.28-.64,1.98-.02.2-.03.39-.05.59-.4.09-.57.4-.67.74-.13.43-.07.86.12,1.26.14.29.33.56.49.84.03.04.06.08.1.14-.93-.5-1.34-1.61-.95-2.59.14-.35.32-.68.5-1.01.34-.61.69-1.21.92-1.87.05-.15.14-.28.22-.42.23-.38.56-.63,1-.72.43-.08.86-.13,1.28-.21.53-.11,1.06-.24,1.59-.35.09-.02.19-.06.28-.05.1.01.23.05.28.12.36.57.9.95,1.38,1.4.43.41.8.88,1.11,1.39.03.04.06.09.07.13.06.31.29.47.55.6.05.03.09.06.14.09.12.07.13.15.08.28-.1.29-.17.58-.24.9.34-.2.54,0,.76.19.47.39.89.82,1.21,1.35.1.17.23.32.36.47.07.08.09.15.06.25-.18.55-.34,1.11-.53,1.65-.29.81-.6,1.6-.77,2.44-.03.16-.06.32-.1.48-.02.1-.08.16-.2.18-.42.04-.84.09-1.26.13-.23.03-.45.06-.67.09,0,.02,0,.03,0,.04.59.56.71,1.24.5,2-.1.38-.28.72-.5,1.04-.05.07-.09.1-.17.05-.99-.53-1.93-1.12-2.66-1.99-.2-.25-.37-.54-.49-.84-.09-.23-.08-.49-.11-.76-1.22.07-2.37-.17-3.25-1.18-.08.1-.15.19-.23.28-.31.37-.7.61-1.17.71-.67.14-1.35.26-2.03.4-.19-.75-.21-1.5.16-2.23-.92.07-1.72-.32-2.57-.49.17-.5.93-1.03,1.52-1.06-.38-.47-.66-1-1.16-1.35.02-.02.03-.04.05-.05.62-.37,1.03-.94,1.37-1.55.17-.3.32-.63.45-.95.14-.35.38-.57.76-.63.17-.03.33-.06.5-.07.12,0,.17-.06.19-.17.03-.18.05-.36.1-.54.02-.08.07-.18.14-.21.57-.26,1.16-.5,1.79-.61-.05.02-.1.05-.15.07-.33.15-.66.3-.98.46-.27.13-.44.35-.53.64-.1.35-.21.69-.3,1.04-.17.65-.11,1.28.19,1.89.42.83.88,1.63,1.42,2.38.31.43.68.81,1.16,1.07-.39.06-.77.07-1.18-.06.05.08.07.12.1.16.76,1.14,1.82,1.76,3.19,1.86.51.04,1.02.09,1.52-.04.21-.06.42-.12.62-.22.11-.06.21-.17.29-.28.08-.12.14-.26.21-.39.01,0,.03,0,.03.01.15.33.42.28.63.14.3-.2.52-.48.71-.79.36-.58.59-1.2.62-1.89.01-.31-.04-.61-.18-.89-.05-.1-.1-.14-.22-.14-.47.03-.93.05-1.42.07.05-.03.1-.06.14-.08.39-.19.78-.39,1.18-.58.56-.27.83-.7.82-1.33,0-.31.04-.63.07-.94.01-.12-.02-.18-.14-.22-.39-.12-.7-.37-.98-.66-.25-.25-.49-.51-.75-.75-.23-.21-.5-.35-.84-.45.12.12.22.22.27.27-.24-.12-.53-.29-.82-.42-.23-.11-.49-.12-.75-.09-.76.09-1.4.42-2,.88-.07.05-.15.09-.23.1-.23.04-.45.09-.57.33-.02.04-.08.06-.13.08-.24.1-.41.26-.46.53,0,.03,0,.08-.03.1-.14.11-.08.23-.03.36.03.07.03.16.04.24,0,.09,0,.18.02.27.07.35.09.7.01,1.06-.09.4.07.65.44.82.12.06.25.11.37.13.27.04.45.18.62.37h0ZM337.94,137.97c-.33.11-.59.28-.79.53-.26.32-.38.7-.52,1.08-.25.69-.7,1.17-1.39,1.43-.04.01-.07.03-.11.05.01.03.02.05.03.07.03.06.06.12.1.17.45.69,1.03,1.23,1.76,1.61.37.19.76.31,1.17.26.33-.04.65-.1.97-.15,0-.18-.02-.23-.17-.34-.27-.19-.54-.38-.81-.57-.04-.03-.07-.11-.06-.14.12-.29.11-.58.04-.87-.08-.32-.17-.65-.29-.96-.2-.51-.22-1.03-.09-1.56.05-.2.1-.39.15-.61ZM347.96,139.32c.02.1.03.18.06.24.06.12.13.23.19.35.86,1.67.39,4.12-1.02,5.36-.64.56-1.36.82-2.21.61-.07-.02-.13-.04-.24-.06.05.05.07.07.09.08.23.08.46.17.69.22.5.12,1,.21,1.51.14.52-.07,1.05-.15,1.57-.22.16-.02.23-.1.25-.25.13-.77.26-1.53.4-2.3.12-.63.24-1.26.54-1.84.02-.04.02-.1,0-.14-.31-.61-.64-1.2-1.12-1.7-.19-.2-.39-.37-.71-.48ZM337.41,145.41c.61-.66,1.22-1.31,2.02-1.76-.07-.11-.12-.19-.18-.28-.58.37-1.47,1.35-1.84,2.04ZM346.36,148.21c-.08-.55-.24-1.07-.66-1.46-.1-.09-.22-.21-.34-.22-.4-.04-.72-.23-.99-.51-.1-.1-.19-.08-.31-.02,1.02.47,1.89,1.1,2.3,2.22ZM335.24,143.09c.66-.26,1.25.03,1.85.25-.05-.07-.11-.12-.17-.16-.14-.07-.3-.13-.44-.21-.35-.2-.9-.16-1.24.11Z"/>
            <path class="cls-4" d="M346.12,139.47c-.18.11-.35.22-.52.33.58-.64.97-1.32.63-2.22.06.04.12.06.17.11.33.29.48.67.46,1.1-.02.68-.32,1.25-.73,1.77-.31.39-.68.73-1.09,1.03.59-.14,1.15-.13,1.65.3-.66.79-1.36,1.5-2.31,1.93-1.15.52-2.33.57-3.53.24.09-.11.18-.22.26-.31-.02-.04-.02-.05-.02-.05-.52-.22-.75-.65-.84-1.17-.04-.2-.07-.4-.1-.6-.03,0-.02,0-.01,0,.26-.1.38.07.52.24.33.39.75.63,1.25.69.33.04.66.08.99.09.21,0,.42-.05.62-.12.17-.06.32-.07.46.06.14.13.31.11.49.06-.07-.05-.14-.11-.22-.13-.4-.14-.8-.27-1.2-.4-.38-.12-.76-.24-1.15-.36-.05-.02-.1-.05-.17-.09.14-.07.25-.08.37,0,.09.05.2.08.3.12.11.04.23.05.32.1.16.09.33.12.5.08.42-.08.82-.21,1.16-.48.28-.22.55-.47.8-.72.11-.1.16-.25.09-.41.03,0,.06,0,.08,0,.26.07.46,0,.61-.24.17-.28.28-.57.14-.92Z"/>
            <path class="cls-4" d="M342.99,140.28c.18-.03.34-.06.49-.09.39-.09.71-.29.96-.61.1-.13.23-.25.34-.37.05-.06.12-.12.14-.2.08-.35,0-.69-.19-.99-.04-.07-.16-.11-.25-.11-.24,0-.47-.05-.71-.11-.22-.06-.4-.15-.59-.27-.22-.15-.49-.24-.75-.36.06,0,.12,0,.17,0,.41.03.82.07,1.23.1.88.08,1.58.74,1.52,1.55-.06.76-.34,1.32-1.09,1.49-.41.09-.83.1-1.26-.03Z"/>
            <path class="cls-4" d="M342.3,139.87c.1-.02.2-.01.28-.05.16-.07.33-.14.45-.26.22-.22.16-.42-.1-.51-.12.06-.2.12-.3.16-.03.01-.08,0-.12,0,0-.04.01-.09.02-.13,0-.02.02-.04.04-.09-.21.22-.31.66-.06.81-.12,0-.2,0-.29,0,0,.02,0,.05.02.1-.05,0-.09,0-.12-.01-.46-.17-.84-.59-.88-1.14-.02-.22.05-.42.26-.53.21-.12.43-.08.65.01-.17.23-.34.44-.5.66.01.02.03.03.04.05.31-.4.72-.62,1.21-.69-.03.02-.07.04-.1.06-.31.18-.63.35-.86.65-.13.18-.19.37-.13.6.04-.4.34-.59.61-.79.22-.16.58-.12.79.05.19.16.23.42.08.61-.24.31-.56.48-.96.47,0,0-.01-.01-.02-.03ZM342.12,139.57s.03,0,.04,0c.04-.17.08-.35.12-.52-.02,0-.04,0-.05-.01l-.11.52Z"/>
            <path class="cls-4" d="M341.61,139.72c.42.3.84.57,1.31.74.48.17.96.24,1.44.02.17-.08.31-.2.48-.3-.1.19-.2.37-.29.54-.02.03-.04.06-.07.07-.36.21-.73.38-1.13.48-.05.01-.12,0-.15-.03-.47-.43-.95-.86-1.41-1.3-.07-.06-.12-.15-.17-.22Z"/>
            <path class="cls-4" d="M342.03,141.43c-.15-.21-.31-.43-.46-.64-.38-.55-.58-1.16-.59-1.83,0-.03,0-.06,0-.09,0-.01,0-.03.05-.05.05.19.1.39.13.58.09.49.39.83.79,1.09.31.2.63.4.94.6.08.05.15.13.23.19,0,.02,0,.03-.01.05-.36.03-.72.07-1.08.1,0,0,0,0,0,0Z"/>
            <path class="cls-4" d="M343.31,139.86c.07-.21.14-.39.19-.58.05-.22.05-.42-.12-.64-.13-.16-.24-.26-.45-.27.32-.12.87.12.96.44.02.08.02.18-.01.25-.13.3-.32.55-.57.8Z"/>
            <path class="cls-4" d="M343.09,140.14c.19-.16.39-.31.55-.49.16-.17.3-.36.41-.56.11-.21.05-.42-.12-.59-.03-.03-.07-.06-.09-.1-.13-.26-.35-.35-.64-.33.26-.11.44-.06.6.15.06.08.12.15.2.21.19.14.25.32.19.54-.05.19-.16.37-.21.57-.12.47-.52.51-.89.6Z"/>
            <path class="cls-4" d="M341.3,141.89c-.66.04-1.97-1.37-1.68-1.97.29.88.75,1.6,1.68,1.97Z"/>
            <path class="cls-4" d="M344.04,139.74c.23-.55.37-1.08.04-1.65.58.48.56,1.21-.04,1.65Z"/>
            <path class="cls-4" d="M342.89,137.73c-.27.02-.44.21-.61.38-.08.08-.14.09-.24.04-.07-.04-.15-.06-.23-.09-.23-.09-.43-.05-.6.13.1-.21.21-.28.42-.26.06,0,.12.01.18.03.17.04.32.02.46-.08.18-.13.39-.17.62-.14Z"/>
            <path class="cls-4" d="M343.32,139.55c-.14.72-.54.81-1.14.46.53.22.89.02,1.14-.46Z"/>
            <path class="cls-4" d="M342.55,139.37c.31.18.42.14.5-.13.07.16,0,.3-.2.37-.14.06-.22,0-.3-.24Z"/>
          </g>
        </g>
      </g>
    </g>
  </g>
</svg>